{"glyphs":{"0":{"ha":883,"x_min":60,"x_max":822,"o":"m 447 994 q 658 919 574 994 q 783 729 743 844 q 822 489 822 614 q 779 249 822 367 q 650 54 736 131 q 442 -22 564 -22 q 223 52 308 -22 q 99 241 138 126 q 60 482 60 356 q 104 723 60 604 q 237 918 149 842 q 447 994 325 994 m 444 897 q 311 791 351 897 q 271 511 271 685 q 307 199 271 322 q 450 76 343 76 q 576 181 540 76 q 611 460 611 285 q 576 779 611 661 q 444 897 542 897 z "},"1":{"ha":564,"x_min":8,"x_max":510,"o":"m 410 228 q 406 103 410 139 q 510 107 450 107 l 510 0 l 111 0 l 111 92 q 168 101 149 93 q 199 133 188 108 q 210 213 210 158 l 210 769 l 58 679 l 8 763 l 326 994 l 410 994 l 410 228 z "},"2":{"ha":740,"x_min":54,"x_max":674,"o":"m 358 994 q 510 968 439 994 q 625 883 581 942 q 669 732 669 824 q 644 630 669 682 q 553 507 619 578 q 364 336 486 436 q 254 227 293 279 q 208 143 215 175 l 481 136 q 558 153 532 133 q 585 226 585 172 l 674 226 l 663 0 l 54 0 q 84 160 54 90 q 157 278 114 229 q 271 393 200 328 q 413 562 369 485 q 457 715 457 639 q 427 844 457 792 q 326 896 397 896 q 259 879 290 896 q 211 838 228 863 q 232 803 225 824 q 239 765 239 783 q 215 706 239 735 q 147 676 192 676 q 81 706 106 676 q 56 778 56 735 q 92 873 56 822 q 198 959 129 924 q 358 994 267 994 z "},"3":{"ha":778,"x_min":49,"x_max":722,"o":"m 363 994 q 587 935 503 994 q 671 749 671 876 q 649 664 671 708 q 581 583 628 619 q 463 531 535 546 l 463 529 q 656 435 590 506 q 722 272 722 365 q 619 56 722 133 q 350 -22 517 -22 q 183 8 251 -22 q 82 84 115 38 q 49 182 49 131 q 76 257 49 226 q 146 288 103 288 q 212 260 190 288 q 233 199 233 232 q 228 166 233 183 q 211 135 222 149 q 260 94 225 110 q 336 79 296 79 q 467 130 421 79 q 513 263 513 181 q 465 407 513 347 q 307 465 417 467 q 235 461 285 465 l 235 561 q 275 560 250 560 q 418 609 367 560 q 469 739 469 658 q 438 855 469 813 q 340 897 407 897 q 274 880 304 897 q 231 839 243 863 q 247 806 242 825 q 253 771 253 786 q 230 711 253 740 q 163 682 207 682 q 95 710 119 682 q 71 782 71 739 q 105 876 71 826 q 205 960 139 926 q 363 994 271 994 z "},"4":{"ha":760,"x_min":17,"x_max":714,"o":"m 714 376 l 714 251 l 578 251 l 578 228 q 572 103 578 135 q 676 107 618 107 l 676 0 l 281 0 l 281 92 q 338 101 318 93 q 368 133 357 108 q 379 213 379 158 l 379 251 l 17 251 l 17 382 l 493 994 l 578 994 l 578 376 l 714 376 m 146 381 l 379 379 l 381 686 l 379 686 l 146 381 z "},"5":{"ha":750,"x_min":61,"x_max":706,"o":"m 200 829 l 200 582 q 280 606 232 596 q 368 615 328 615 q 555 573 479 615 q 668 460 631 531 q 706 303 706 389 q 655 126 706 200 q 522 15 604 53 q 347 -22 440 -22 q 196 6 261 -22 q 96 78 131 35 q 61 168 61 122 q 88 242 61 211 q 160 274 115 274 q 224 246 204 274 q 244 185 244 218 q 229 128 244 153 q 272 91 238 106 q 338 76 306 76 q 453 135 415 76 q 492 274 492 193 q 325 514 492 514 q 247 501 292 514 q 158 463 203 489 l 99 508 l 93 972 l 453 972 q 533 990 507 972 q 558 1063 558 1008 l 646 1063 l 636 838 l 200 829 z "},"6":{"ha":799,"x_min":64,"x_max":739,"o":"m 444 994 q 584 967 526 994 q 669 896 642 939 q 697 808 697 853 q 674 739 697 768 q 610 710 650 710 q 540 737 563 710 q 518 797 518 764 q 523 828 518 811 q 538 858 528 846 q 503 886 526 875 q 451 897 481 897 q 313 790 356 897 q 265 542 269 683 q 347 595 289 571 q 456 619 404 619 q 668 533 597 619 q 739 299 739 446 q 694 138 739 211 q 572 21 650 64 q 399 -22 494 -22 q 142 99 219 -22 q 64 447 64 219 q 97 678 64 553 q 215 899 131 804 q 444 994 300 994 m 404 508 q 323 482 361 508 q 265 417 285 456 q 299 184 265 293 q 406 75 333 75 q 501 128 472 75 q 529 264 529 181 q 404 508 529 508 z "},"7":{"ha":651,"x_min":21,"x_max":622,"o":"m 622 846 q 500 544 544 688 q 394 154 456 400 q 376 83 374 71 q 341 8 365 39 q 279 -22 317 -22 q 219 1 239 -22 q 200 58 200 25 q 201 76 200 71 q 229 174 206 108 q 325 409 253 239 q 506 832 397 579 l 214 835 q 135 813 163 836 q 108 736 108 790 l 21 736 l 31 972 l 622 972 l 622 846 z "},"8":{"ha":794,"x_min":78,"x_max":736,"o":"m 408 994 q 548 967 482 994 q 654 885 614 939 q 694 758 694 832 q 646 633 694 693 q 529 532 597 574 l 529 531 q 736 239 736 404 q 638 44 736 111 q 393 -22 539 -22 q 247 1 319 -22 q 126 79 175 25 q 78 219 78 133 q 132 363 78 293 q 261 476 186 433 l 261 478 q 134 599 175 532 q 93 729 93 667 q 140 875 93 815 q 260 965 188 935 q 408 994 332 994 m 419 897 q 324 860 361 897 q 288 768 288 822 q 331 665 288 715 q 439 588 375 614 q 513 668 483 621 q 544 753 543 715 q 511 858 547 819 q 419 897 475 897 m 357 426 q 275 328 303 385 q 247 225 247 271 q 290 118 247 161 q 397 75 332 75 q 499 113 461 75 q 538 210 538 151 q 495 323 538 267 q 357 426 453 379 z "},"9":{"ha":800,"x_min":60,"x_max":735,"o":"m 394 994 q 653 868 571 994 q 735 525 735 742 q 652 145 735 313 q 354 -22 569 -22 q 163 30 225 -22 q 100 160 100 82 q 126 231 100 200 q 192 263 151 263 q 260 236 239 263 q 281 175 281 210 q 275 144 281 163 q 261 115 269 126 q 294 88 271 99 q 347 76 317 76 q 493 180 446 76 q 533 432 540 283 q 453 378 508 403 q 347 353 399 353 q 133 442 206 353 q 60 676 60 531 q 102 841 60 768 q 220 954 144 914 q 394 994 296 994 m 393 897 q 301 842 333 897 q 269 708 269 786 q 296 540 269 615 q 397 464 322 464 q 476 490 439 464 q 533 556 514 517 q 501 802 533 707 q 393 897 468 897 z "},"\r":{"ha":261,"x_min":0,"x_max":0,"o":""}," ":{"ha":407,"x_min":0,"x_max":0,"o":""},"A":{"ha":928,"x_min":6,"x_max":922,"o":"m 803 240 q 826 172 814 213 q 842 103 839 131 q 922 107 888 107 l 922 0 l 549 0 l 549 92 q 615 147 615 92 q 600 214 615 175 l 572 290 l 271 285 l 249 219 q 230 169 244 208 q 204 107 215 131 q 303 111 249 111 l 303 0 l 6 0 l 6 96 q 66 117 42 96 q 104 167 90 138 q 139 254 118 197 l 410 997 l 507 997 l 803 240 m 419 753 q 368 569 397 653 l 306 389 l 538 389 l 474 563 q 421 753 433 676 l 419 753 z "},"Á":{"ha":928,"x_min":6,"x_max":922,"o":"m 6 0 m 803 240 q 826 172 814 213 q 842 103 839 131 q 922 107 888 107 l 922 0 l 549 0 l 549 92 q 615 147 615 92 q 600 214 615 175 l 572 290 l 271 285 l 249 219 q 230 169 244 208 q 204 107 215 131 q 303 111 249 111 l 303 0 l 6 0 l 6 96 q 66 117 42 96 q 104 167 90 138 q 139 254 118 197 l 410 997 l 507 997 l 803 240 m 419 753 q 368 569 397 653 l 306 389 l 538 389 l 474 563 q 421 753 433 676 l 419 753 m 615 1276 q 554 1307 590 1307 q 515 1298 535 1307 q 481 1274 496 1289 l 326 1110 l 376 1042 l 574 1146 q 613 1185 597 1161 q 629 1235 629 1210 q 615 1276 629 1257 z "},"Ă":{"ha":928,"x_min":6,"x_max":922,"o":"m 6 0 m 803 240 q 826 172 814 213 q 842 103 839 131 q 922 107 888 107 l 922 0 l 549 0 l 549 92 q 615 147 615 92 q 600 214 615 175 l 572 290 l 271 285 l 249 219 q 230 169 244 208 q 204 107 215 131 q 303 111 249 111 l 303 0 l 6 0 l 6 96 q 66 117 42 96 q 104 167 90 138 q 139 254 118 197 l 410 997 l 507 997 l 803 240 m 419 753 q 368 569 397 653 l 306 389 l 538 389 l 474 563 q 421 753 433 676 l 419 753 m 708 1242 q 610 1128 676 1164 q 467 1093 543 1093 q 322 1128 389 1093 q 222 1242 256 1164 l 301 1297 q 372 1241 333 1261 q 465 1221 410 1221 q 559 1241 521 1221 q 629 1297 597 1261 l 708 1242 z "},"Â":{"ha":928,"x_min":6,"x_max":922,"o":"m 6 0 m 803 240 q 826 172 814 213 q 842 103 839 131 q 922 107 888 107 l 922 0 l 549 0 l 549 92 q 615 147 615 92 q 600 214 615 175 l 572 290 l 271 285 l 249 219 q 230 169 244 208 q 204 107 215 131 q 303 111 249 111 l 303 0 l 6 0 l 6 96 q 66 117 42 96 q 104 167 90 138 q 139 254 118 197 l 410 997 l 507 997 l 803 240 m 419 753 q 368 569 397 653 l 306 389 l 538 389 l 474 563 q 421 753 433 676 l 419 753 m 706 1075 l 457 1196 l 204 1078 l 167 1140 l 450 1349 l 478 1349 l 749 1140 l 706 1075 z "},"Ä":{"ha":928,"x_min":6,"x_max":922,"o":"m 6 0 m 803 240 q 826 172 814 213 q 842 103 839 131 q 922 107 888 107 l 922 0 l 549 0 l 549 92 q 615 147 615 92 q 600 214 615 175 l 572 290 l 271 285 l 249 219 q 230 169 244 208 q 204 107 215 131 q 303 111 249 111 l 303 0 l 6 0 l 6 96 q 66 117 42 96 q 104 167 90 138 q 139 254 118 197 l 410 997 l 507 997 l 803 240 m 419 753 q 368 569 397 653 l 306 389 l 538 389 l 474 563 q 421 753 433 676 l 419 753 m 339 1318 q 404 1287 378 1318 q 431 1211 431 1256 q 403 1138 431 1168 q 338 1107 375 1107 q 272 1138 300 1107 q 244 1211 244 1168 q 273 1286 244 1254 q 339 1318 301 1318 m 581 1318 q 646 1287 619 1318 q 672 1211 672 1256 q 644 1138 672 1168 q 579 1107 617 1107 q 515 1138 542 1107 q 488 1211 488 1168 q 515 1286 488 1254 q 581 1318 543 1318 z "},"À":{"ha":928,"x_min":6,"x_max":922,"o":"m 6 0 m 803 240 q 826 172 814 213 q 842 103 839 131 q 922 107 888 107 l 922 0 l 549 0 l 549 92 q 615 147 615 92 q 600 214 615 175 l 572 290 l 271 285 l 249 219 q 230 169 244 208 q 204 107 215 131 q 303 111 249 111 l 303 0 l 6 0 l 6 96 q 66 117 42 96 q 104 167 90 138 q 139 254 118 197 l 410 997 l 507 997 l 803 240 m 419 753 q 368 569 397 653 l 306 389 l 538 389 l 474 563 q 421 753 433 676 l 419 753 m 313 1276 q 374 1307 338 1307 q 413 1298 393 1307 q 447 1274 432 1289 l 601 1110 l 551 1042 l 354 1146 q 315 1185 331 1161 q 299 1235 299 1210 q 313 1276 299 1257 z "},"Ā":{"ha":928,"x_min":6,"x_max":922,"o":"m 6 0 m 803 240 q 826 172 814 213 q 842 103 839 131 q 922 107 888 107 l 922 0 l 549 0 l 549 92 q 615 147 615 92 q 600 214 615 175 l 572 290 l 271 285 l 249 219 q 230 169 244 208 q 204 107 215 131 q 303 111 249 111 l 303 0 l 6 0 l 6 96 q 66 117 42 96 q 104 167 90 138 q 139 254 118 197 l 410 997 l 507 997 l 803 240 m 419 753 q 368 569 397 653 l 306 389 l 538 389 l 474 563 q 421 753 433 676 l 419 753 m 267 1149 l 267 1282 l 661 1282 l 661 1154 l 267 1149 z "},"Ą":{"ha":928,"x_min":6,"x_max":922,"o":"m 833 -1 q 709 -81 761 -32 q 657 -185 657 -131 q 673 -227 657 -211 q 718 -243 689 -243 q 804 -203 760 -243 l 853 -262 q 767 -340 815 -311 q 669 -369 718 -369 q 560 -333 601 -369 q 519 -226 519 -296 q 566 -103 519 -162 q 689 0 613 -44 l 549 0 l 549 92 q 615 147 615 92 q 600 214 615 175 l 572 290 l 271 285 l 249 219 q 230 169 244 208 q 204 107 215 131 q 303 111 249 111 l 303 0 l 6 0 l 6 96 q 66 117 42 96 q 104 167 90 138 q 139 254 118 197 l 410 997 l 507 997 l 803 240 q 826 172 814 213 q 842 103 839 131 q 922 107 888 107 l 922 0 l 833 -1 m 474 563 q 421 753 433 676 l 419 753 q 368 569 397 653 l 306 389 l 538 389 l 474 563 z "},"Å":{"ha":928,"x_min":6,"x_max":922,"o":"m 842 103 q 922 107 888 107 l 922 0 l 549 0 l 549 92 q 615 147 615 92 q 600 214 615 175 l 572 290 l 271 285 l 249 219 q 230 169 244 208 q 204 107 215 131 q 303 111 247 111 l 303 0 l 6 0 l 6 96 q 66 117 42 96 q 104 167 90 138 q 139 254 118 197 l 386 932 q 299 990 333 947 q 265 1097 265 1032 q 292 1190 265 1149 q 362 1253 319 1231 q 450 1276 404 1276 q 576 1233 521 1276 q 636 1108 632 1189 q 607 1006 638 1050 q 529 940 576 961 l 803 240 q 826 172 814 213 q 842 103 839 131 m 450 1203 q 406 1178 422 1203 q 389 1108 389 1153 q 406 1028 389 1057 q 451 997 422 1000 l 460 997 q 498 1020 483 999 q 513 1083 513 1042 q 496 1172 513 1140 q 450 1203 479 1203 m 474 563 q 421 753 433 676 l 419 753 q 368 569 397 653 l 306 389 l 538 389 l 474 563 z "},"Ã":{"ha":928,"x_min":6,"x_max":922,"o":"m 6 0 m 803 240 q 826 172 814 213 q 842 103 839 131 q 922 107 888 107 l 922 0 l 549 0 l 549 92 q 615 147 615 92 q 600 214 615 175 l 572 290 l 271 285 l 249 219 q 230 169 244 208 q 204 107 215 131 q 303 111 249 111 l 303 0 l 6 0 l 6 96 q 66 117 42 96 q 104 167 90 138 q 139 254 118 197 l 410 997 l 507 997 l 803 240 m 419 753 q 368 569 397 653 l 306 389 l 538 389 l 474 563 q 421 753 433 676 l 419 753 m 753 1281 q 669 1144 719 1183 q 568 1106 619 1106 q 514 1115 539 1106 q 458 1142 489 1124 q 408 1167 429 1158 q 363 1175 388 1175 q 301 1158 332 1175 q 246 1103 271 1142 l 168 1154 q 250 1265 197 1226 q 357 1303 303 1303 q 415 1293 389 1303 q 472 1265 440 1283 q 522 1242 504 1249 q 561 1235 539 1235 q 622 1260 589 1235 q 674 1325 654 1286 l 753 1281 z "},"Æ":{"ha":1299,"x_min":-8,"x_max":1243,"o":"m 1113 703 q 1063 845 1113 806 q 944 882 1014 885 l 894 881 q 842 872 861 879 q 812 838 822 864 q 801 760 801 811 l 801 551 l 964 551 q 958 672 963 575 l 1065 672 l 1065 335 l 974 335 q 956 417 974 390 q 911 451 939 443 q 838 457 883 458 l 801 456 l 801 228 q 796 106 801 153 l 982 106 q 1102 153 1053 106 q 1151 306 1151 201 l 1243 306 l 1235 0 l 501 0 l 501 92 q 558 101 539 93 q 589 133 578 108 q 600 213 600 158 l 600 288 q 467 285 558 288 l 328 281 l 279 210 q 192 104 225 129 l 192 103 l 303 107 l 303 0 l -8 0 l -8 92 q 71 129 35 92 q 157 238 107 167 l 606 868 l 606 869 l 501 865 l 501 972 l 1196 972 l 1204 703 l 1113 703 m 608 694 q 508 544 574 642 l 396 383 l 600 383 l 600 503 q 608 694 600 594 z "},"B":{"ha":918,"x_min":69,"x_max":879,"o":"m 454 975 q 715 915 621 976 q 810 736 810 854 q 759 610 810 668 q 610 526 708 553 l 610 525 q 811 436 743 504 q 879 276 879 368 q 785 72 879 144 q 542 0 692 0 l 69 0 l 69 92 q 126 101 107 93 q 157 133 146 108 q 168 213 168 158 l 168 744 q 174 869 168 822 l 69 865 l 69 972 l 454 975 m 454 878 q 408 871 425 878 q 380 838 390 864 q 369 761 369 813 l 369 546 l 442 547 q 560 599 524 549 q 597 733 597 650 q 556 843 597 808 q 454 878 514 878 m 482 449 q 369 447 406 449 l 369 221 q 364 99 369 146 q 499 100 456 99 q 621 152 581 104 q 661 281 661 200 q 610 409 661 369 q 482 449 558 449 z "},"C":{"ha":956,"x_min":49,"x_max":943,"o":"m 535 994 q 655 976 590 994 q 774 926 719 958 l 775 926 l 769 985 l 876 985 l 876 661 l 786 661 q 553 894 749 892 q 395 840 460 894 q 299 694 331 785 q 267 500 267 604 q 301 288 267 381 q 401 142 336 194 q 558 90 467 90 q 733 136 647 90 q 876 261 818 182 l 943 200 q 742 26 851 74 q 525 -22 632 -22 q 276 43 385 -22 q 108 222 168 108 q 49 472 49 335 q 105 724 49 604 q 271 919 161 844 q 535 994 381 994 z "},"Ć":{"ha":956,"x_min":49,"x_max":943,"o":"m 49 0 m 535 994 q 655 976 590 994 q 774 926 719 958 l 775 926 l 769 985 l 876 985 l 876 661 l 786 661 q 553 894 749 892 q 395 840 460 894 q 299 694 331 785 q 267 500 267 604 q 301 288 267 381 q 401 142 336 194 q 558 90 467 90 q 733 136 647 90 q 876 261 818 182 l 943 200 q 742 26 851 74 q 525 -22 632 -22 q 276 43 385 -22 q 108 222 168 108 q 49 472 49 335 q 105 724 49 604 q 271 919 161 844 q 535 994 381 994 m 701 1276 q 715 1235 715 1257 q 699 1185 715 1210 q 660 1146 683 1161 l 463 1042 l 413 1110 l 567 1274 q 601 1298 582 1289 q 640 1307 621 1307 q 701 1276 676 1307 z "},"Č":{"ha":956,"x_min":49,"x_max":943,"o":"m 49 0 m 535 994 q 655 976 590 994 q 774 926 719 958 l 775 926 l 769 985 l 876 985 l 876 661 l 786 661 q 553 894 749 892 q 395 840 460 894 q 299 694 331 785 q 267 500 267 604 q 301 288 267 381 q 401 142 336 194 q 558 90 467 90 q 733 136 647 90 q 876 261 818 182 l 943 200 q 742 26 851 74 q 525 -22 632 -22 q 276 43 385 -22 q 108 222 168 108 q 49 472 49 335 q 105 724 49 604 q 271 919 161 844 q 535 994 381 994 m 543 1063 l 517 1063 l 246 1271 l 289 1335 l 536 1214 l 790 1338 l 826 1275 l 543 1063 z "},"Ç":{"ha":960,"x_min":50,"x_max":943,"o":"m 535 994 q 656 976 592 994 q 774 926 719 958 l 775 926 l 771 985 l 878 985 l 878 661 l 786 661 q 553 894 749 892 q 397 840 461 894 q 300 694 332 785 q 268 500 268 604 q 302 287 268 379 q 402 142 336 194 q 560 90 468 90 q 733 136 647 90 q 876 261 819 182 l 943 200 q 743 26 853 74 q 525 -22 633 -22 l 513 -22 l 486 -93 l 488 -93 q 531 -78 503 -85 q 578 -72 558 -72 q 656 -99 624 -72 q 688 -174 688 -126 q 634 -278 688 -233 q 507 -347 581 -322 q 368 -382 433 -372 l 357 -306 q 465 -268 408 -296 q 522 -203 522 -240 q 512 -176 522 -185 q 486 -168 501 -168 q 456 -174 472 -168 q 429 -189 440 -181 l 372 -168 l 408 -10 q 219 84 300 15 q 94 253 138 153 q 50 472 50 354 q 106 724 50 604 q 271 919 161 844 q 535 994 381 994 z "},"D":{"ha":1054,"x_min":69,"x_max":1006,"o":"m 474 974 q 767 905 647 974 q 947 726 888 836 q 1006 496 1006 617 q 949 260 1006 374 q 772 74 893 147 q 467 0 650 0 l 69 0 l 69 92 q 126 101 107 93 q 157 133 146 108 q 168 213 168 158 l 168 744 q 174 869 168 822 l 69 865 l 69 972 l 474 974 m 457 881 q 390 857 410 881 q 369 763 369 833 l 369 228 q 364 103 369 150 q 390 104 371 104 l 450 103 q 496 101 468 101 q 658 153 593 101 q 755 287 724 204 q 786 467 786 369 q 700 779 786 678 q 457 881 614 881 z "},"Ð":{"ha":1054,"x_min":42,"x_max":1006,"o":"m 474 975 q 767 906 647 975 q 947 728 888 838 q 1006 496 1006 618 q 949 260 1006 374 q 772 74 893 147 q 467 0 650 0 l 69 0 l 69 92 q 126 101 107 94 q 157 134 146 108 q 168 213 168 160 l 168 435 l 42 433 l 42 543 l 168 543 l 168 746 q 174 869 168 822 l 69 867 l 69 974 l 474 975 m 463 882 q 391 859 413 882 q 369 764 369 836 l 369 543 l 585 543 l 585 439 l 369 436 l 369 229 q 364 104 369 151 q 407 105 385 106 q 446 104 429 104 q 496 103 465 103 q 658 153 593 103 q 755 287 724 204 q 786 467 786 369 q 701 780 786 678 q 463 882 617 882 z "},"Ď":{"ha":1054,"x_min":69,"x_max":1006,"o":"m 69 0 m 474 974 q 767 905 647 974 q 947 726 888 836 q 1006 496 1006 617 q 949 260 1006 374 q 772 74 893 147 q 467 0 650 0 l 69 0 l 69 92 q 126 101 107 93 q 157 133 146 108 q 168 213 168 158 l 168 744 q 174 869 168 822 l 69 865 l 69 972 l 474 974 m 457 881 q 390 857 410 881 q 369 763 369 833 l 369 228 q 364 103 369 150 q 390 104 371 104 l 450 103 q 496 101 468 101 q 658 153 593 101 q 755 287 724 204 q 786 467 786 369 q 700 779 786 678 q 457 881 614 881 m 501 1063 l 475 1063 l 204 1271 l 247 1335 l 494 1214 l 749 1338 l 785 1275 l 501 1063 z "},"Đ":{"ha":1054,"x_min":42,"x_max":1006,"o":"m 42 0 m 474 975 q 767 906 647 975 q 947 728 888 838 q 1006 496 1006 618 q 949 260 1006 374 q 772 74 893 147 q 467 0 650 0 l 69 0 l 69 92 q 126 101 107 94 q 157 134 146 108 q 168 213 168 160 l 168 435 l 42 433 l 42 543 l 168 543 l 168 746 q 174 869 168 822 l 69 867 l 69 974 l 474 975 m 463 882 q 391 859 413 882 q 369 764 369 836 l 369 543 l 585 543 l 585 439 l 369 436 l 369 229 q 364 104 369 151 q 407 105 385 106 q 446 104 429 104 q 496 103 465 103 q 658 153 593 103 q 755 287 724 204 q 786 467 786 369 q 701 780 786 678 q 463 882 617 882 z "},"E":{"ha":867,"x_min":69,"x_max":810,"o":"m 681 703 q 631 845 681 806 q 513 882 582 885 l 463 881 q 410 872 429 879 q 380 838 390 864 q 369 760 369 811 l 369 551 l 532 551 q 526 672 531 575 l 633 672 l 633 335 l 542 335 q 524 417 542 390 q 479 451 507 443 q 406 457 451 458 l 369 456 l 369 228 q 364 106 369 153 l 550 106 q 670 153 621 106 q 719 306 719 201 l 810 306 l 803 0 l 69 0 l 69 92 q 126 101 107 93 q 157 133 146 108 q 168 213 168 158 l 168 744 q 174 869 168 822 l 69 865 l 69 972 l 764 972 l 772 703 l 681 703 z "},"É":{"ha":867,"x_min":69,"x_max":810,"o":"m 69 0 m 681 703 q 631 845 681 806 q 513 882 582 885 l 463 881 q 410 872 429 879 q 380 838 390 864 q 369 760 369 811 l 369 551 l 532 551 q 526 672 531 575 l 633 672 l 633 335 l 542 335 q 524 417 542 390 q 479 451 507 443 q 406 457 451 458 l 369 456 l 369 228 q 364 106 369 153 l 550 106 q 670 153 621 106 q 719 306 719 201 l 810 306 l 803 0 l 69 0 l 69 92 q 126 101 107 93 q 157 133 146 108 q 168 213 168 158 l 168 744 q 174 869 168 822 l 69 865 l 69 972 l 764 972 l 772 703 l 681 703 m 592 1276 q 606 1235 606 1257 q 590 1185 606 1210 q 550 1146 574 1161 l 353 1042 l 303 1110 l 457 1274 q 492 1298 472 1289 q 531 1307 511 1307 q 592 1276 567 1307 z "},"Ě":{"ha":867,"x_min":69,"x_max":810,"o":"m 69 0 m 681 703 q 631 845 681 806 q 513 882 582 885 l 463 881 q 410 872 429 879 q 380 838 390 864 q 369 760 369 811 l 369 551 l 532 551 q 526 672 531 575 l 633 672 l 633 335 l 542 335 q 524 417 542 390 q 479 451 507 443 q 406 457 451 458 l 369 456 l 369 228 q 364 106 369 153 l 550 106 q 670 153 621 106 q 719 306 719 201 l 810 306 l 803 0 l 69 0 l 69 92 q 126 101 107 93 q 157 133 146 108 q 168 213 168 158 l 168 744 q 174 869 168 822 l 69 865 l 69 972 l 764 972 l 772 703 l 681 703 m 447 1063 l 421 1063 l 150 1271 l 193 1335 l 440 1214 l 694 1338 l 731 1275 l 447 1063 z "},"Ê":{"ha":867,"x_min":69,"x_max":810,"o":"m 69 0 m 681 703 q 631 845 681 806 q 513 882 582 885 l 463 881 q 410 872 429 879 q 380 838 390 864 q 369 760 369 811 l 369 551 l 532 551 q 526 672 531 575 l 633 672 l 633 335 l 542 335 q 524 417 542 390 q 479 451 507 443 q 406 457 451 458 l 369 456 l 369 228 q 364 106 369 153 l 550 106 q 670 153 621 106 q 719 306 719 201 l 810 306 l 803 0 l 69 0 l 69 92 q 126 101 107 93 q 157 133 146 108 q 168 213 168 158 l 168 744 q 174 869 168 822 l 69 865 l 69 972 l 764 972 l 772 703 l 681 703 m 693 1075 l 444 1196 l 192 1078 l 154 1140 l 438 1349 l 465 1349 l 736 1140 l 693 1075 z "},"Ë":{"ha":867,"x_min":69,"x_max":810,"o":"m 69 0 m 681 703 q 631 845 681 806 q 513 882 582 885 l 463 881 q 410 872 429 879 q 380 838 390 864 q 369 760 369 811 l 369 551 l 532 551 q 526 672 531 575 l 633 672 l 633 335 l 542 335 q 524 417 542 390 q 479 451 507 443 q 406 457 451 458 l 369 456 l 369 228 q 364 106 369 153 l 550 106 q 670 153 621 106 q 719 306 719 201 l 810 306 l 803 0 l 69 0 l 69 92 q 126 101 107 93 q 157 133 146 108 q 168 213 168 158 l 168 744 q 174 869 168 822 l 69 865 l 69 972 l 764 972 l 772 703 l 681 703 m 318 1318 q 383 1287 357 1318 q 410 1211 410 1256 q 382 1138 410 1168 q 317 1107 354 1107 q 251 1138 279 1107 q 224 1211 224 1168 q 252 1286 224 1254 q 318 1318 281 1318 m 560 1318 q 625 1287 599 1318 q 651 1211 651 1256 q 624 1138 651 1168 q 558 1107 596 1107 q 494 1138 521 1107 q 467 1211 467 1168 q 494 1286 467 1254 q 560 1318 522 1318 z "},"Ė":{"ha":867,"x_min":69,"x_max":810,"o":"m 69 0 m 681 703 q 631 845 681 806 q 513 882 582 885 l 463 881 q 410 872 429 879 q 380 838 390 864 q 369 760 369 811 l 369 551 l 532 551 q 526 672 531 575 l 633 672 l 633 335 l 542 335 q 524 417 542 390 q 479 451 507 443 q 406 457 451 458 l 369 456 l 369 228 q 364 106 369 153 l 550 106 q 670 153 621 106 q 719 306 719 201 l 810 306 l 803 0 l 69 0 l 69 92 q 126 101 107 93 q 157 133 146 108 q 168 213 168 158 l 168 744 q 174 869 168 822 l 69 865 l 69 972 l 764 972 l 772 703 l 681 703 m 451 1324 q 526 1290 496 1324 q 556 1210 556 1257 q 527 1128 556 1161 q 453 1096 499 1096 q 375 1129 406 1096 q 344 1210 344 1163 q 376 1290 344 1257 q 451 1324 408 1324 z "},"È":{"ha":867,"x_min":69,"x_max":810,"o":"m 69 0 m 681 703 q 631 845 681 806 q 513 882 582 885 l 463 881 q 410 872 429 879 q 380 838 390 864 q 369 760 369 811 l 369 551 l 532 551 q 526 672 531 575 l 633 672 l 633 335 l 542 335 q 524 417 542 390 q 479 451 507 443 q 406 457 451 458 l 369 456 l 369 228 q 364 106 369 153 l 550 106 q 670 153 621 106 q 719 306 719 201 l 810 306 l 803 0 l 69 0 l 69 92 q 126 101 107 93 q 157 133 146 108 q 168 213 168 158 l 168 744 q 174 869 168 822 l 69 865 l 69 972 l 764 972 l 772 703 l 681 703 m 299 1276 q 360 1307 324 1307 q 399 1298 379 1307 q 433 1274 418 1289 l 588 1110 l 538 1042 l 340 1146 q 301 1185 317 1161 q 285 1235 285 1210 q 299 1276 285 1257 z "},"Ē":{"ha":867,"x_min":69,"x_max":810,"o":"m 69 0 m 681 703 q 631 845 681 806 q 513 882 582 885 l 463 881 q 410 872 429 879 q 380 838 390 864 q 369 760 369 811 l 369 551 l 532 551 q 526 672 531 575 l 633 672 l 633 335 l 542 335 q 524 417 542 390 q 479 451 507 443 q 406 457 451 458 l 369 456 l 369 228 q 364 106 369 153 l 550 106 q 670 153 621 106 q 719 306 719 201 l 810 306 l 803 0 l 69 0 l 69 92 q 126 101 107 93 q 157 133 146 108 q 168 213 168 158 l 168 744 q 174 869 168 822 l 69 865 l 69 972 l 764 972 l 772 703 l 681 703 m 253 1149 l 253 1282 l 647 1282 l 647 1154 l 253 1149 z "},"Ę":{"ha":867,"x_min":69,"x_max":810,"o":"m 767 0 q 651 -78 699 -31 q 603 -176 603 -126 q 619 -220 603 -204 q 664 -236 635 -236 q 750 -196 706 -236 l 799 -256 q 713 -333 761 -304 q 615 -362 664 -362 q 506 -326 547 -362 q 465 -219 465 -289 q 508 -101 465 -158 q 624 0 551 -44 l 69 0 l 69 92 q 126 101 107 93 q 157 133 146 108 q 168 213 168 158 l 168 744 q 174 869 168 822 l 69 865 l 69 972 l 764 972 l 772 703 l 681 703 q 631 845 681 806 q 513 882 582 885 l 463 881 q 410 872 429 879 q 380 838 390 864 q 369 760 369 811 l 369 551 l 532 551 q 526 672 531 575 l 633 672 l 633 335 l 542 335 q 524 417 542 390 q 479 451 507 443 q 406 457 451 458 l 369 456 l 369 228 q 364 106 369 153 l 550 106 q 670 153 621 106 q 719 306 719 201 l 810 306 l 803 0 l 767 0 z "},"F":{"ha":793,"x_min":69,"x_max":772,"o":"m 681 703 q 631 845 681 806 q 513 882 582 885 l 463 881 q 410 872 429 879 q 380 838 390 864 q 369 760 369 811 l 369 518 l 513 518 q 507 638 511 536 l 614 638 l 614 300 l 522 300 q 505 383 522 356 q 459 417 488 410 q 386 422 431 424 l 369 422 l 369 228 q 364 103 369 150 q 488 107 408 107 l 488 0 l 69 0 l 69 92 q 126 101 107 93 q 157 133 146 108 q 168 213 168 158 l 168 744 q 174 869 168 822 l 69 865 l 69 972 l 764 972 l 772 703 l 681 703 z "},"G":{"ha":1047,"x_min":50,"x_max":1024,"o":"m 532 994 q 667 976 592 994 q 796 926 743 958 l 797 926 l 792 985 l 899 985 l 899 661 l 808 661 q 721 833 790 774 q 550 894 651 893 q 394 840 458 894 q 299 694 331 785 q 267 500 267 604 q 343 201 267 315 q 557 88 419 88 q 659 97 601 88 q 753 125 717 107 l 753 254 q 758 379 753 332 q 690 376 722 376 l 654 375 l 654 482 l 1024 482 l 1024 390 q 969 381 989 389 q 940 347 950 372 q 931 269 931 321 l 931 47 l 897 47 q 834 40 865 47 q 754 18 803 33 q 633 -12 682 -3 q 522 -22 585 -22 q 269 43 375 -22 q 106 220 163 108 q 50 472 50 332 q 105 724 50 604 q 269 919 160 844 q 532 994 378 994 z "},"Ğ":{"ha":1047,"x_min":50,"x_max":1024,"o":"m 50 0 m 532 994 q 667 976 592 994 q 796 926 743 958 l 797 926 l 792 985 l 899 985 l 899 661 l 808 661 q 721 833 790 774 q 550 894 651 893 q 394 840 458 894 q 299 694 331 785 q 267 500 267 604 q 343 201 267 315 q 557 88 419 88 q 659 97 601 88 q 753 125 717 107 l 753 254 q 758 379 753 332 q 690 376 722 376 l 654 375 l 654 482 l 1024 482 l 1024 390 q 969 381 989 389 q 940 347 950 372 q 931 269 931 321 l 931 47 l 897 47 q 834 40 865 47 q 754 18 803 33 q 633 -12 682 -3 q 522 -22 585 -22 q 269 43 375 -22 q 106 220 163 108 q 50 472 50 332 q 105 724 50 604 q 269 919 160 844 q 532 994 378 994 m 782 1242 q 683 1128 750 1164 q 540 1093 617 1093 q 396 1128 463 1093 q 296 1242 329 1164 l 375 1297 q 445 1241 407 1261 q 539 1221 483 1221 q 633 1241 594 1221 q 703 1297 671 1261 l 782 1242 z "},"Ģ":{"ha":1047,"x_min":50,"x_max":1024,"o":"m 50 0 m 532 994 q 667 976 592 994 q 796 926 743 958 l 797 926 l 792 985 l 899 985 l 899 661 l 808 661 q 721 833 790 774 q 550 894 651 893 q 394 840 458 894 q 299 694 331 785 q 267 500 267 604 q 343 201 267 315 q 557 88 419 88 q 659 97 601 88 q 753 125 717 107 l 753 254 q 758 379 753 332 q 690 376 722 376 l 654 375 l 654 482 l 1024 482 l 1024 390 q 969 381 989 389 q 940 347 950 372 q 931 269 931 321 l 931 47 l 897 47 q 834 40 865 47 q 754 18 803 33 q 633 -12 682 -3 q 522 -22 585 -22 q 269 43 375 -22 q 106 220 163 108 q 50 472 50 332 q 105 724 50 604 q 269 919 160 844 q 532 994 378 994 m 664 -50 q 693 -150 693 -99 q 656 -272 693 -210 q 556 -394 619 -335 l 493 -346 q 538 -249 524 -293 q 551 -162 551 -206 q 539 -75 551 -121 l 664 -50 z "},"H":{"ha":1121,"x_min":69,"x_max":1051,"o":"m 1051 881 q 994 872 1014 879 q 964 839 975 864 q 953 760 953 814 l 953 228 q 947 103 953 150 q 1051 107 992 107 l 1051 0 l 653 0 l 653 92 q 710 101 690 93 q 740 133 729 108 q 751 213 751 158 l 751 438 l 369 433 l 369 228 q 364 103 369 150 q 468 107 408 107 l 468 0 l 69 0 l 69 92 q 126 101 107 93 q 157 133 146 108 q 168 213 168 158 l 168 744 q 174 869 168 822 l 69 865 l 69 972 l 468 972 l 468 881 q 411 872 431 879 q 381 839 392 864 q 369 760 369 814 l 369 543 l 751 543 l 751 744 q 757 869 751 838 l 653 865 l 653 972 l 1051 972 l 1051 881 z "},"I":{"ha":538,"x_min":69,"x_max":468,"o":"m 468 881 q 411 872 431 879 q 381 839 392 864 q 369 760 369 814 l 369 228 q 364 103 369 150 q 468 107 408 107 l 468 0 l 69 0 l 69 92 q 126 101 107 93 q 157 133 146 108 q 168 213 168 158 l 168 744 q 174 869 168 822 l 69 865 l 69 972 l 468 972 l 468 881 z "},"Í":{"ha":538,"x_min":69,"x_max":468,"o":"m 69 0 m 468 881 q 411 872 431 879 q 381 839 392 864 q 369 760 369 814 l 369 228 q 364 103 369 150 q 468 107 408 107 l 468 0 l 69 0 l 69 92 q 126 101 107 93 q 157 133 146 108 q 168 213 168 158 l 168 744 q 174 869 168 822 l 69 865 l 69 972 l 468 972 l 468 881 m 408 1276 q 422 1235 422 1257 q 406 1185 422 1210 q 367 1146 390 1161 l 169 1042 l 119 1110 l 274 1274 q 308 1298 289 1289 q 347 1307 328 1307 q 408 1276 383 1307 z "},"Î":{"ha":538,"x_min":35,"x_max":508,"o":"m 464 1075 l 271 1196 l 72 1078 l 35 1140 l 264 1349 l 290 1349 l 508 1140 l 464 1075 m 468 881 q 411 872 431 879 q 381 839 392 864 q 369 760 369 814 l 369 228 q 364 103 369 150 q 468 107 408 107 l 468 0 l 69 0 l 69 92 q 126 101 107 93 q 157 133 146 108 q 168 213 168 158 l 168 744 q 174 869 168 822 l 69 865 l 69 972 l 468 972 l 468 881 z "},"Ï":{"ha":538,"x_min":64,"x_max":492,"o":"m 157 1318 q 222 1287 196 1318 q 249 1211 249 1256 q 221 1138 249 1168 q 156 1107 193 1107 q 91 1138 118 1107 q 64 1211 64 1168 q 92 1286 64 1254 q 157 1318 119 1318 m 400 1318 q 465 1287 439 1318 q 492 1211 492 1256 q 464 1138 492 1168 q 399 1107 436 1107 q 333 1138 361 1107 q 306 1211 306 1168 q 334 1286 306 1254 q 400 1318 363 1318 m 468 881 q 411 872 431 879 q 381 839 392 864 q 369 760 369 814 l 369 228 q 364 103 369 150 q 468 107 408 107 l 468 0 l 69 0 l 69 92 q 126 101 107 93 q 157 133 146 108 q 168 213 168 158 l 168 744 q 174 869 168 822 l 69 865 l 69 972 l 468 972 l 468 881 z "},"İ":{"ha":538,"x_min":69,"x_max":468,"o":"m 69 0 m 468 881 q 411 872 431 879 q 381 839 392 864 q 369 760 369 814 l 369 228 q 364 103 369 150 q 468 107 408 107 l 468 0 l 69 0 l 69 92 q 126 101 107 93 q 157 133 146 108 q 168 213 168 158 l 168 744 q 174 869 168 822 l 69 865 l 69 972 l 468 972 l 468 881 m 268 1324 q 342 1290 313 1324 q 372 1210 372 1257 q 344 1128 372 1161 q 269 1096 315 1096 q 192 1129 222 1096 q 161 1210 161 1163 q 193 1290 161 1257 q 268 1324 225 1324 z "},"Ì":{"ha":538,"x_min":69,"x_max":468,"o":"m 69 0 m 468 881 q 411 872 431 879 q 381 839 392 864 q 369 760 369 814 l 369 228 q 364 103 369 150 q 468 107 408 107 l 468 0 l 69 0 l 69 92 q 126 101 107 93 q 157 133 146 108 q 168 213 168 158 l 168 744 q 174 869 168 822 l 69 865 l 69 972 l 468 972 l 468 881 m 115 1276 q 176 1307 140 1307 q 215 1298 196 1307 q 250 1274 235 1289 l 404 1110 l 354 1042 l 157 1146 q 117 1185 133 1161 q 101 1235 101 1210 q 115 1276 101 1257 z "},"Ī":{"ha":538,"x_min":69,"x_max":468,"o":"m 69 0 m 468 881 q 411 872 431 879 q 381 839 392 864 q 369 760 369 814 l 369 228 q 364 103 369 150 q 468 107 408 107 l 468 0 l 69 0 l 69 92 q 126 101 107 93 q 157 133 146 108 q 168 213 168 158 l 168 744 q 174 869 168 822 l 69 865 l 69 972 l 468 972 l 468 881 m 69 1149 l 69 1282 l 464 1282 l 464 1154 l 69 1149 z "},"Į":{"ha":538,"x_min":69,"x_max":485,"o":"m 485 -262 q 399 -340 447 -311 q 301 -369 350 -369 q 192 -333 233 -369 q 151 -226 151 -296 q 198 -103 151 -162 q 321 0 244 -44 l 69 0 l 69 92 q 126 101 107 93 q 157 133 146 108 q 168 213 168 158 l 168 744 q 174 869 168 822 l 69 865 l 69 972 l 468 972 l 468 881 q 411 872 431 879 q 381 839 392 864 q 369 760 369 814 l 369 228 q 364 103 369 150 q 468 107 408 107 l 468 0 l 465 0 l 465 -1 q 341 -81 393 -32 q 289 -185 289 -131 q 305 -227 289 -211 q 350 -243 321 -243 q 436 -203 392 -243 l 485 -262 z "},"J":{"ha":626,"x_min":1,"x_max":589,"o":"m 589 881 q 532 872 551 879 q 501 839 513 864 q 490 760 490 814 l 490 353 q 417 67 490 157 q 200 -22 344 -22 q 59 20 117 -22 q 1 126 1 63 q 29 208 1 175 q 106 242 57 242 q 173 215 150 242 q 197 151 196 189 q 185 100 199 129 q 203 83 190 88 q 228 78 217 78 q 289 188 289 78 l 289 744 q 294 869 289 838 l 190 865 l 190 972 l 589 972 l 589 881 z "},"K":{"ha":989,"x_min":69,"x_max":988,"o":"m 924 881 q 812 850 864 878 q 708 739 760 822 l 575 525 l 575 524 q 663 443 628 492 l 806 242 q 988 92 908 96 l 988 0 l 774 0 q 713 49 758 1 q 638 142 668 97 l 500 342 q 458 397 481 369 q 419 438 436 425 l 369 438 l 369 228 q 364 103 369 150 q 468 107 408 107 l 468 0 l 69 0 l 69 92 q 126 101 107 93 q 157 133 146 108 q 168 213 168 158 l 168 744 q 174 869 168 822 l 69 865 l 69 972 l 468 972 l 468 881 q 411 872 431 879 q 381 839 392 864 q 369 760 369 814 l 369 549 l 469 549 l 576 731 q 671 869 643 847 l 671 871 q 618 867 640 868 q 583 865 596 867 l 583 972 l 924 972 l 924 881 z "},"Ķ":{"ha":989,"x_min":69,"x_max":988,"o":"m 69 0 m 924 881 q 812 850 864 878 q 708 739 760 822 l 575 525 l 575 524 q 663 443 628 492 l 806 242 q 988 92 908 96 l 988 0 l 774 0 q 713 49 758 1 q 638 142 668 97 l 500 342 q 458 397 481 369 q 419 438 436 425 l 369 438 l 369 228 q 364 103 369 150 q 468 107 408 107 l 468 0 l 69 0 l 69 92 q 126 101 107 93 q 157 133 146 108 q 168 213 168 158 l 168 744 q 174 869 168 822 l 69 865 l 69 972 l 468 972 l 468 881 q 411 872 431 879 q 381 839 392 864 q 369 760 369 814 l 369 549 l 469 549 l 576 731 q 671 869 643 847 l 671 871 q 618 867 640 868 q 583 865 596 867 l 583 972 l 924 972 l 924 881 m 631 -50 q 660 -150 660 -99 q 623 -272 660 -210 q 522 -394 586 -335 l 460 -346 q 504 -249 490 -293 q 518 -162 518 -206 q 506 -75 518 -121 l 631 -50 z "},"L":{"ha":839,"x_min":69,"x_max":818,"o":"m 468 881 q 411 872 431 879 q 381 839 392 864 q 369 760 369 814 l 369 228 q 364 106 369 153 l 550 106 q 679 165 633 107 q 725 333 725 222 l 818 333 l 810 0 l 69 0 l 69 92 q 126 101 107 93 q 157 133 146 108 q 168 213 168 158 l 168 744 q 174 869 168 822 l 69 865 l 69 972 l 468 972 l 468 881 z "},"Ĺ":{"ha":839,"x_min":69,"x_max":818,"o":"m 69 0 m 468 881 q 411 872 431 879 q 381 839 392 864 q 369 760 369 814 l 369 228 q 364 106 369 153 l 550 106 q 679 165 633 107 q 725 333 725 222 l 818 333 l 810 0 l 69 0 l 69 92 q 126 101 107 93 q 157 133 146 108 q 168 213 168 158 l 168 744 q 174 869 168 822 l 69 865 l 69 972 l 468 972 l 468 881 m 426 1276 q 440 1235 440 1257 q 424 1185 440 1210 q 385 1146 408 1161 l 188 1042 l 138 1110 l 292 1274 q 326 1298 307 1289 q 365 1307 346 1307 q 426 1276 401 1307 z "},"Ľ":{"ha":839,"x_min":69,"x_max":818,"o":"m 733 972 q 753 903 753 933 q 717 778 753 842 q 626 660 682 714 l 572 700 q 626 886 626 799 q 610 996 626 933 l 733 972 m 468 881 q 411 872 431 879 q 381 839 392 864 q 369 760 369 814 l 369 228 q 364 106 369 153 l 550 106 q 679 165 633 107 q 725 333 725 222 l 818 333 l 810 0 l 69 0 l 69 92 q 126 101 107 93 q 157 133 146 108 q 168 213 168 158 l 168 744 q 174 869 168 822 l 69 865 l 69 972 l 468 972 l 468 881 z "},"Ļ":{"ha":839,"x_min":69,"x_max":818,"o":"m 69 0 m 468 881 q 411 872 431 879 q 381 839 392 864 q 369 760 369 814 l 369 228 q 364 106 369 153 l 550 106 q 679 165 633 107 q 725 333 725 222 l 818 333 l 810 0 l 69 0 l 69 92 q 126 101 107 93 q 157 133 146 108 q 168 213 168 158 l 168 744 q 174 869 168 822 l 69 865 l 69 972 l 468 972 l 468 881 m 546 -50 q 575 -150 575 -99 q 538 -272 575 -210 q 438 -394 501 -335 l 375 -346 q 419 -249 406 -293 q 433 -162 433 -206 q 421 -75 433 -121 l 546 -50 z "},"Ł":{"ha":840,"x_min":63,"x_max":818,"o":"m 468 881 q 411 871 431 878 q 381 838 392 864 q 369 760 369 813 l 369 633 l 606 808 l 606 651 l 369 476 l 369 228 q 364 104 369 136 l 550 106 q 680 163 633 106 q 726 332 726 221 l 818 332 l 810 0 l 69 0 l 69 90 q 127 100 107 93 q 158 133 147 107 q 169 211 169 158 l 169 325 l 63 246 l 63 406 l 169 485 l 169 744 q 174 868 169 833 l 69 865 l 69 972 l 468 972 l 468 881 z "},"M":{"ha":1350,"x_min":65,"x_max":1292,"o":"m 1271 881 q 1213 872 1233 879 q 1181 839 1192 864 q 1171 760 1169 814 l 1192 228 q 1186 103 1196 157 q 1292 107 1232 107 l 1292 0 l 906 0 l 906 92 q 963 101 943 93 q 994 133 983 108 q 1004 213 1006 158 l 993 507 l 990 560 q 982 747 983 694 l 981 747 l 696 -14 l 567 -14 l 379 443 q 330 579 358 492 q 282 757 301 667 l 281 757 q 285 526 285 631 l 285 479 l 283 228 q 276 103 283 142 q 382 107 322 107 l 382 0 l 65 0 l 65 92 q 122 101 103 93 q 153 133 142 108 q 164 213 164 158 l 172 744 q 178 869 175 846 l 74 865 l 74 972 l 381 972 l 590 435 q 635 315 611 381 q 668 215 658 250 l 669 215 q 700 301 675 229 q 735 399 719 358 l 950 972 l 1271 972 l 1271 881 z "},"N":{"ha":1074,"x_min":67,"x_max":1025,"o":"m 1025 881 q 968 872 988 879 q 938 839 949 864 q 926 760 926 814 l 926 -14 l 808 -14 l 364 554 q 288 658 329 599 l 286 658 l 289 228 q 283 103 289 150 q 388 107 328 107 l 388 0 l 71 0 l 71 92 q 128 101 108 93 q 158 133 147 108 q 169 213 169 158 l 167 744 q 172 869 167 838 l 67 865 l 67 972 l 285 972 l 710 436 q 807 304 768 360 l 808 304 l 808 744 q 813 869 808 835 l 708 865 l 708 972 l 1025 972 l 1025 881 z "},"Ń":{"ha":1074,"x_min":67,"x_max":1025,"o":"m 67 0 m 1025 881 q 968 872 988 879 q 938 839 949 864 q 926 760 926 814 l 926 -14 l 808 -14 l 364 554 q 288 658 329 599 l 286 658 l 289 228 q 283 103 289 150 q 388 107 328 107 l 388 0 l 71 0 l 71 92 q 128 101 108 93 q 158 133 147 108 q 169 213 169 158 l 167 744 q 172 869 167 838 l 67 865 l 67 972 l 285 972 l 710 436 q 807 304 768 360 l 808 304 l 808 744 q 813 869 808 835 l 708 865 l 708 972 l 1025 972 l 1025 881 m 679 1276 q 693 1235 693 1257 q 677 1185 693 1210 q 638 1146 661 1161 l 440 1042 l 390 1110 l 544 1274 q 579 1298 560 1289 q 618 1307 599 1307 q 679 1276 654 1307 z "},"Ň":{"ha":1074,"x_min":67,"x_max":1025,"o":"m 67 0 m 1025 881 q 968 872 988 879 q 938 839 949 864 q 926 760 926 814 l 926 -14 l 808 -14 l 364 554 q 288 658 329 599 l 286 658 l 289 228 q 283 103 289 150 q 388 107 328 107 l 388 0 l 71 0 l 71 92 q 128 101 108 93 q 158 133 147 108 q 169 213 169 158 l 167 744 q 172 869 167 838 l 67 865 l 67 972 l 285 972 l 710 436 q 807 304 768 360 l 808 304 l 808 744 q 813 869 808 835 l 708 865 l 708 972 l 1025 972 l 1025 881 m 563 1063 l 536 1063 l 265 1271 l 308 1335 l 556 1214 l 810 1338 l 846 1275 l 563 1063 z "},"Ņ":{"ha":1074,"x_min":67,"x_max":1025,"o":"m 67 0 m 1025 881 q 968 872 988 879 q 938 839 949 864 q 926 760 926 814 l 926 -14 l 808 -14 l 364 554 q 288 658 329 599 l 286 658 l 289 228 q 283 103 289 150 q 388 107 328 107 l 388 0 l 71 0 l 71 92 q 128 101 108 93 q 158 133 147 108 q 169 213 169 158 l 167 744 q 172 869 167 838 l 67 865 l 67 972 l 285 972 l 710 436 q 807 304 768 360 l 808 304 l 808 744 q 813 869 808 835 l 708 865 l 708 972 l 1025 972 l 1025 881 m 626 -50 q 656 -150 656 -99 q 619 -272 656 -210 q 518 -394 582 -335 l 456 -346 q 500 -249 486 -293 q 514 -162 514 -206 q 501 -75 514 -121 l 626 -50 z "},"Ñ":{"ha":1074,"x_min":67,"x_max":1025,"o":"m 67 0 m 1025 881 q 968 872 988 879 q 938 839 949 864 q 926 760 926 814 l 926 -14 l 808 -14 l 364 554 q 288 658 329 599 l 286 658 l 289 228 q 283 103 289 150 q 388 107 328 107 l 388 0 l 71 0 l 71 92 q 128 101 108 93 q 158 133 147 108 q 169 213 169 158 l 167 744 q 172 869 167 838 l 67 865 l 67 972 l 285 972 l 710 436 q 807 304 768 360 l 808 304 l 808 744 q 813 869 808 835 l 708 865 l 708 972 l 1025 972 l 1025 881 m 838 1281 q 754 1144 804 1183 q 653 1106 704 1106 q 599 1115 624 1106 q 543 1142 574 1124 q 493 1167 514 1158 q 447 1175 472 1175 q 386 1158 417 1175 q 331 1103 356 1142 l 253 1154 q 335 1265 282 1226 q 442 1303 388 1303 q 499 1293 474 1303 q 557 1265 525 1283 q 606 1242 589 1249 q 646 1235 624 1235 q 706 1260 674 1235 q 758 1325 739 1286 l 838 1281 z "},"O":{"ha":1068,"x_min":49,"x_max":1019,"o":"m 536 994 q 805 919 696 994 q 967 726 914 843 q 1019 486 1019 610 q 964 248 1019 365 q 798 54 908 131 q 532 -22 688 -22 q 257 51 365 -22 q 99 240 149 125 q 49 486 49 356 q 104 726 49 610 q 270 919 160 843 q 536 994 381 994 m 525 893 q 375 835 433 893 q 292 688 317 776 q 267 503 267 599 q 294 308 267 406 q 385 145 322 211 q 546 79 449 79 q 693 136 636 79 q 775 281 750 193 q 800 463 800 368 q 731 776 800 660 q 525 893 661 893 z "},"Ó":{"ha":1068,"x_min":49,"x_max":1019,"o":"m 49 0 m 536 994 q 805 919 696 994 q 967 726 914 843 q 1019 486 1019 610 q 964 248 1019 365 q 798 54 908 131 q 532 -22 688 -22 q 257 51 365 -22 q 99 240 149 125 q 49 486 49 356 q 104 726 49 610 q 270 919 160 843 q 536 994 381 994 m 525 893 q 375 835 433 893 q 292 688 317 776 q 267 503 267 599 q 294 308 267 406 q 385 145 322 211 q 546 79 449 79 q 693 136 636 79 q 775 281 750 193 q 800 463 800 368 q 731 776 800 660 q 525 893 661 893 m 675 1276 q 689 1235 689 1257 q 673 1185 689 1210 q 633 1146 657 1161 l 436 1042 l 386 1110 l 540 1274 q 575 1298 556 1289 q 614 1307 594 1307 q 675 1276 650 1307 z "},"Ô":{"ha":1068,"x_min":49,"x_max":1019,"o":"m 49 0 m 536 994 q 805 919 696 994 q 967 726 914 843 q 1019 486 1019 610 q 964 248 1019 365 q 798 54 908 131 q 532 -22 688 -22 q 257 51 365 -22 q 99 240 149 125 q 49 486 49 356 q 104 726 49 610 q 270 919 160 843 q 536 994 381 994 m 525 893 q 375 835 433 893 q 292 688 317 776 q 267 503 267 599 q 294 308 267 406 q 385 145 322 211 q 546 79 449 79 q 693 136 636 79 q 775 281 750 193 q 800 463 800 368 q 731 776 800 660 q 525 893 661 893 m 788 1075 l 539 1196 l 286 1078 l 249 1140 l 532 1349 l 560 1349 l 831 1140 l 788 1075 z "},"Ö":{"ha":1068,"x_min":49,"x_max":1019,"o":"m 49 0 m 536 994 q 805 919 696 994 q 967 726 914 843 q 1019 486 1019 610 q 964 248 1019 365 q 798 54 908 131 q 532 -22 688 -22 q 257 51 365 -22 q 99 240 149 125 q 49 486 49 356 q 104 726 49 610 q 270 919 160 843 q 536 994 381 994 m 525 893 q 375 835 433 893 q 292 688 317 776 q 267 503 267 599 q 294 308 267 406 q 385 145 322 211 q 546 79 449 79 q 693 136 636 79 q 775 281 750 193 q 800 463 800 368 q 731 776 800 660 q 525 893 661 893 m 422 1318 q 488 1287 461 1318 q 514 1211 514 1256 q 486 1138 514 1168 q 421 1107 458 1107 q 356 1138 383 1107 q 328 1211 328 1168 q 356 1286 328 1254 q 422 1318 385 1318 m 664 1318 q 729 1287 703 1318 q 756 1211 756 1256 q 728 1138 756 1168 q 663 1107 700 1107 q 598 1138 625 1107 q 571 1211 571 1168 q 599 1286 571 1254 q 664 1318 626 1318 z "},"Ò":{"ha":1068,"x_min":49,"x_max":1019,"o":"m 49 0 m 536 994 q 805 919 696 994 q 967 726 914 843 q 1019 486 1019 610 q 964 248 1019 365 q 798 54 908 131 q 532 -22 688 -22 q 257 51 365 -22 q 99 240 149 125 q 49 486 49 356 q 104 726 49 610 q 270 919 160 843 q 536 994 381 994 m 525 893 q 375 835 433 893 q 292 688 317 776 q 267 503 267 599 q 294 308 267 406 q 385 145 322 211 q 546 79 449 79 q 693 136 636 79 q 775 281 750 193 q 800 463 800 368 q 731 776 800 660 q 525 893 661 893 m 382 1276 q 443 1307 407 1307 q 482 1298 463 1307 q 517 1274 501 1289 l 671 1110 l 621 1042 l 424 1146 q 384 1185 400 1161 q 368 1235 368 1210 q 382 1276 368 1257 z "},"Ő":{"ha":1068,"x_min":49,"x_max":1019,"o":"m 49 0 m 536 994 q 805 919 696 994 q 967 726 914 843 q 1019 486 1019 610 q 964 248 1019 365 q 798 54 908 131 q 532 -22 688 -22 q 257 51 365 -22 q 99 240 149 125 q 49 486 49 356 q 104 726 49 610 q 270 919 160 843 q 536 994 381 994 m 525 893 q 375 835 433 893 q 292 688 317 776 q 267 503 267 599 q 294 308 267 406 q 385 145 322 211 q 546 79 449 79 q 693 136 636 79 q 775 281 750 193 q 800 463 800 368 q 731 776 800 660 q 525 893 661 893 m 579 1318 q 600 1272 600 1299 q 588 1227 600 1250 q 556 1186 575 1204 l 393 1038 l 331 1094 l 449 1268 q 493 1313 468 1296 q 543 1331 518 1331 q 579 1318 563 1331 m 854 1264 q 864 1233 864 1250 q 843 1185 864 1208 q 792 1143 822 1161 l 596 1036 l 551 1107 l 708 1249 q 803 1292 758 1292 q 854 1264 839 1292 z "},"Ō":{"ha":1068,"x_min":49,"x_max":1019,"o":"m 49 0 m 536 994 q 805 919 696 994 q 967 726 914 843 q 1019 486 1019 610 q 964 248 1019 365 q 798 54 908 131 q 532 -22 688 -22 q 257 51 365 -22 q 99 240 149 125 q 49 486 49 356 q 104 726 49 610 q 270 919 160 843 q 536 994 381 994 m 525 893 q 375 835 433 893 q 292 688 317 776 q 267 503 267 599 q 294 308 267 406 q 385 145 322 211 q 546 79 449 79 q 693 136 636 79 q 775 281 750 193 q 800 463 800 368 q 731 776 800 660 q 525 893 661 893 m 336 1149 l 336 1282 l 731 1282 l 731 1154 l 336 1149 z "},"Ø":{"ha":1067,"x_min":49,"x_max":1019,"o":"m 853 882 q 978 702 936 808 q 1019 486 1019 596 q 964 248 1019 365 q 798 54 908 131 q 532 -22 688 -22 q 342 10 425 -22 l 256 -137 l 151 -68 l 232 69 q 94 251 140 140 q 49 486 49 363 q 104 726 49 610 q 270 919 160 843 q 536 994 381 994 q 746 953 651 994 l 828 1093 l 938 1024 l 853 882 m 525 893 q 375 835 433 893 q 292 688 317 776 q 267 503 267 599 q 281 362 267 433 q 325 231 296 290 l 679 839 q 525 893 614 893 m 408 124 q 547 79 468 79 q 694 137 638 79 q 775 281 750 194 q 800 463 800 368 q 758 721 800 615 l 408 124 z "},"Õ":{"ha":1068,"x_min":49,"x_max":1019,"o":"m 49 0 m 536 994 q 805 919 696 994 q 967 726 914 843 q 1019 486 1019 610 q 964 248 1019 365 q 798 54 908 131 q 532 -22 688 -22 q 257 51 365 -22 q 99 240 149 125 q 49 486 49 356 q 104 726 49 610 q 270 919 160 843 q 536 994 381 994 m 525 893 q 375 835 433 893 q 292 688 317 776 q 267 503 267 599 q 294 308 267 406 q 385 145 322 211 q 546 79 449 79 q 693 136 636 79 q 775 281 750 193 q 800 463 800 368 q 731 776 800 660 q 525 893 661 893 m 824 1281 q 740 1144 790 1183 q 639 1106 690 1106 q 585 1115 610 1106 q 529 1142 560 1124 q 479 1167 500 1158 q 433 1175 458 1175 q 372 1158 403 1175 q 317 1103 342 1142 l 239 1154 q 321 1265 268 1226 q 428 1303 374 1303 q 485 1293 460 1303 q 543 1265 511 1283 q 592 1242 575 1249 q 632 1235 610 1235 q 692 1260 660 1235 q 744 1325 725 1286 l 824 1281 z "},"Œ":{"ha":1428,"x_min":50,"x_max":1371,"o":"m 550 994 q 729 972 644 994 l 1325 972 l 1333 703 l 1242 703 q 1192 845 1242 806 q 1072 882 1143 885 l 1022 881 q 969 872 989 879 q 940 838 950 864 q 929 760 929 811 l 929 551 l 1093 551 q 1088 672 1092 575 l 1194 672 l 1194 335 l 1103 335 q 1085 417 1103 390 q 1040 451 1068 443 q 967 457 1013 458 l 929 456 l 929 228 q 925 106 929 142 l 1111 106 q 1231 153 1182 106 q 1279 306 1279 201 l 1371 306 l 1363 0 l 729 0 q 525 -22 643 -25 q 276 45 385 -19 q 109 220 168 110 q 50 468 50 331 q 103 723 50 603 q 269 919 157 843 q 550 994 382 994 m 549 894 q 392 840 456 894 q 299 694 329 785 q 268 500 268 604 q 353 199 268 308 q 594 89 439 89 q 729 114 669 89 l 729 849 q 549 894 660 894 z "},"P":{"ha":888,"x_min":69,"x_max":864,"o":"m 464 975 q 758 901 651 976 q 864 671 864 825 q 819 519 864 592 q 686 401 775 447 q 469 351 597 356 l 415 350 l 369 351 l 369 229 q 364 103 369 150 q 482 107 408 107 l 482 0 l 69 0 l 69 92 q 126 101 107 93 q 157 133 146 108 q 168 213 168 158 l 168 744 q 174 869 168 822 l 69 865 l 69 972 l 464 975 m 463 878 q 392 857 414 878 q 369 768 369 836 l 369 456 q 432 451 399 451 q 597 508 544 451 q 649 672 649 564 q 463 878 649 878 z "},"Þ":{"ha":879,"x_min":69,"x_max":857,"o":"m 468 881 q 416 874 435 879 q 385 849 397 868 q 371 792 374 831 l 454 793 q 857 510 857 797 q 813 364 857 431 q 678 256 768 297 q 460 211 589 214 q 369 210 390 208 q 364 103 367 125 q 468 107 408 107 l 468 0 l 69 0 l 69 92 q 126 101 107 93 q 157 133 146 108 q 168 213 168 158 l 168 744 q 174 869 168 822 l 69 865 l 69 972 l 468 972 l 468 881 m 369 694 l 369 313 q 421 310 400 310 q 588 360 535 310 q 642 511 642 410 q 584 661 642 628 q 451 694 526 694 l 369 694 z "},"Q":{"ha":1069,"x_min":50,"x_max":1103,"o":"m 538 994 q 806 919 697 994 q 967 726 914 843 q 1019 486 1019 610 q 984 295 1019 390 q 878 123 949 200 q 707 8 807 46 l 707 7 q 814 -8 772 7 q 907 -71 856 -22 l 969 -131 q 1047 -197 1025 -183 q 1103 -210 1068 -210 l 1103 -303 l 1043 -303 q 938 -298 974 -303 q 874 -278 903 -293 q 804 -228 844 -262 q 717 -142 771 -199 q 615 -50 656 -78 q 519 -22 575 -22 q 253 52 358 -22 q 99 242 147 126 q 50 486 50 357 q 106 726 50 610 q 272 919 161 843 q 538 994 382 994 m 526 893 q 376 835 433 893 q 293 688 318 776 q 268 503 268 599 q 296 308 268 406 q 386 145 324 211 q 546 79 449 79 q 693 136 636 79 q 776 281 750 193 q 801 463 801 368 q 732 776 801 660 q 526 893 663 893 z "},"R":{"ha":953,"x_min":69,"x_max":933,"o":"m 464 975 q 758 908 654 976 q 861 688 861 840 q 799 517 861 592 q 617 408 738 443 l 617 407 q 668 373 642 397 q 713 319 694 349 l 778 222 q 856 121 825 149 q 933 92 888 93 l 933 0 l 704 0 q 657 48 681 17 q 603 131 633 79 l 500 297 q 442 378 465 353 l 369 378 l 369 229 q 364 103 369 150 q 482 107 408 107 l 482 0 l 69 0 l 69 92 q 126 101 107 93 q 157 133 146 108 q 168 213 168 158 l 168 744 q 174 869 168 822 l 69 865 l 69 972 l 464 975 m 463 878 q 392 857 414 878 q 369 768 369 836 l 369 483 q 436 478 411 478 q 601 528 550 478 q 651 688 651 579 q 592 840 651 803 q 463 878 533 878 z "},"Ŕ":{"ha":953,"x_min":69,"x_max":933,"o":"m 69 0 m 464 975 q 758 908 654 976 q 861 688 861 840 q 799 517 861 592 q 617 408 738 443 l 617 407 q 668 373 642 397 q 713 319 694 349 l 778 222 q 856 121 825 149 q 933 92 888 93 l 933 0 l 704 0 q 657 48 681 17 q 603 131 633 79 l 500 297 q 442 378 465 353 l 369 378 l 369 229 q 364 103 369 150 q 482 107 408 107 l 482 0 l 69 0 l 69 92 q 126 101 107 93 q 157 133 146 108 q 168 213 168 158 l 168 744 q 174 869 168 822 l 69 865 l 69 972 l 464 975 m 463 878 q 392 857 414 878 q 369 768 369 836 l 369 483 q 436 478 411 478 q 601 528 550 478 q 651 688 651 579 q 592 840 651 803 q 463 878 533 878 m 618 1276 q 632 1235 632 1257 q 616 1185 632 1210 q 576 1146 600 1161 l 379 1042 l 329 1110 l 483 1274 q 518 1298 499 1289 q 557 1307 538 1307 q 618 1276 593 1307 z "},"Ř":{"ha":953,"x_min":69,"x_max":933,"o":"m 69 0 m 464 975 q 758 908 654 976 q 861 688 861 840 q 799 517 861 592 q 617 408 738 443 l 617 407 q 668 373 642 397 q 713 319 694 349 l 778 222 q 856 121 825 149 q 933 92 888 93 l 933 0 l 704 0 q 657 48 681 17 q 603 131 633 79 l 500 297 q 442 378 465 353 l 369 378 l 369 229 q 364 103 369 150 q 482 107 408 107 l 482 0 l 69 0 l 69 92 q 126 101 107 93 q 157 133 146 108 q 168 213 168 158 l 168 744 q 174 869 168 822 l 69 865 l 69 972 l 464 975 m 463 878 q 392 857 414 878 q 369 768 369 836 l 369 483 q 436 478 411 478 q 601 528 550 478 q 651 688 651 579 q 592 840 651 803 q 463 878 533 878 m 468 1063 l 442 1063 l 171 1271 l 214 1335 l 461 1214 l 715 1338 l 751 1275 l 468 1063 z "},"Ŗ":{"ha":953,"x_min":69,"x_max":933,"o":"m 69 0 m 464 975 q 758 908 654 976 q 861 688 861 840 q 799 517 861 592 q 617 408 738 443 l 617 407 q 668 373 642 397 q 713 319 694 349 l 778 222 q 856 121 825 149 q 933 92 888 93 l 933 0 l 704 0 q 657 48 681 17 q 603 131 633 79 l 500 297 q 442 378 465 353 l 369 378 l 369 229 q 364 103 369 150 q 482 107 408 107 l 482 0 l 69 0 l 69 92 q 126 101 107 93 q 157 133 146 108 q 168 213 168 158 l 168 744 q 174 869 168 822 l 69 865 l 69 972 l 464 975 m 463 878 q 392 857 414 878 q 369 768 369 836 l 369 483 q 436 478 411 478 q 601 528 550 478 q 651 688 651 579 q 592 840 651 803 q 463 878 533 878 m 596 -50 q 625 -150 625 -99 q 588 -272 625 -210 q 488 -394 551 -335 l 425 -346 q 469 -249 456 -293 q 483 -162 483 -206 q 471 -75 483 -121 l 596 -50 z "},"S":{"ha":831,"x_min":60,"x_max":782,"o":"m 385 994 q 510 977 444 994 q 618 928 575 960 l 619 928 l 614 985 l 722 985 l 722 661 l 631 661 q 551 835 613 775 q 393 894 489 894 q 285 860 331 894 q 240 775 240 826 q 292 672 240 714 q 465 581 343 631 q 694 452 606 525 q 782 258 782 379 q 738 113 782 176 q 613 13 693 49 q 426 -22 532 -22 q 305 -4 369 -22 q 186 46 240 14 l 185 46 l 189 -12 l 82 -12 l 82 313 l 174 313 q 261 138 192 199 q 431 78 331 78 q 550 116 503 78 q 597 208 597 154 q 566 285 597 253 q 497 335 535 317 q 375 386 458 353 q 141 525 222 447 q 60 729 60 603 q 92 853 60 793 q 197 954 124 914 q 385 994 269 994 z "},"Ś":{"ha":831,"x_min":60,"x_max":782,"o":"m 60 0 m 385 994 q 510 977 444 994 q 618 928 575 960 l 619 928 l 614 985 l 722 985 l 722 661 l 631 661 q 551 835 613 775 q 393 894 489 894 q 285 860 331 894 q 240 775 240 826 q 292 672 240 714 q 465 581 343 631 q 694 452 606 525 q 782 258 782 379 q 738 113 782 176 q 613 13 693 49 q 426 -22 532 -22 q 305 -4 369 -22 q 186 46 240 14 l 185 46 l 189 -12 l 82 -12 l 82 313 l 174 313 q 261 138 192 199 q 431 78 331 78 q 550 116 503 78 q 597 208 597 154 q 566 285 597 253 q 497 335 535 317 q 375 386 458 353 q 141 525 222 447 q 60 729 60 603 q 92 853 60 793 q 197 954 124 914 q 385 994 269 994 m 557 1276 q 571 1235 571 1257 q 555 1185 571 1210 q 515 1146 539 1161 l 318 1042 l 268 1110 l 422 1274 q 457 1298 438 1289 q 496 1307 476 1307 q 557 1276 532 1307 z "},"Š":{"ha":831,"x_min":60,"x_max":782,"o":"m 60 0 m 385 994 q 510 977 444 994 q 618 928 575 960 l 619 928 l 614 985 l 722 985 l 722 661 l 631 661 q 551 835 613 775 q 393 894 489 894 q 285 860 331 894 q 240 775 240 826 q 292 672 240 714 q 465 581 343 631 q 694 452 606 525 q 782 258 782 379 q 738 113 782 176 q 613 13 693 49 q 426 -22 532 -22 q 305 -4 369 -22 q 186 46 240 14 l 185 46 l 189 -12 l 82 -12 l 82 313 l 174 313 q 261 138 192 199 q 431 78 331 78 q 550 116 503 78 q 597 208 597 154 q 566 285 597 253 q 497 335 535 317 q 375 386 458 353 q 141 525 222 447 q 60 729 60 603 q 92 853 60 793 q 197 954 124 914 q 385 994 269 994 m 421 1063 l 394 1063 l 124 1271 l 167 1335 l 414 1214 l 668 1338 l 704 1275 l 421 1063 z "},"Ş":{"ha":831,"x_min":60,"x_max":782,"o":"m 782 258 q 703 72 782 147 q 489 -18 624 -4 l 461 -96 l 463 -96 q 508 -81 479 -87 q 557 -74 538 -74 q 631 -99 603 -75 q 658 -171 658 -124 q 561 -299 658 -256 q 343 -360 464 -343 l 332 -287 q 448 -256 397 -275 q 499 -200 499 -236 q 488 -174 499 -182 q 460 -165 476 -165 q 431 -171 446 -165 q 404 -185 415 -176 l 353 -162 l 388 -21 q 283 1 336 -15 q 186 46 231 18 l 185 46 l 189 -12 l 82 -12 l 82 313 l 174 313 q 261 138 192 199 q 431 78 331 78 q 550 116 503 78 q 597 208 597 154 q 566 285 597 253 q 497 335 535 317 q 375 386 458 353 q 141 525 222 447 q 60 729 60 603 q 92 853 60 793 q 197 954 124 914 q 385 994 269 994 q 510 977 444 994 q 618 928 575 960 l 619 928 l 614 985 l 722 985 l 722 661 l 631 661 q 551 835 613 775 q 393 894 489 894 q 285 860 331 894 q 240 775 240 826 q 292 672 240 714 q 465 581 343 631 q 694 452 606 525 q 782 258 782 379 z "},"Ș":{"ha":831,"x_min":60,"x_max":782,"o":"m 60 0 m 385 994 q 510 977 444 994 q 618 928 575 960 l 619 928 l 614 985 l 722 985 l 722 661 l 631 661 q 551 835 613 775 q 393 894 489 894 q 285 860 331 894 q 240 775 240 826 q 292 672 240 714 q 465 581 343 631 q 694 452 606 525 q 782 258 782 379 q 738 113 782 176 q 613 13 693 49 q 426 -22 532 -22 q 305 -4 369 -22 q 186 46 240 14 l 185 46 l 189 -12 l 82 -12 l 82 313 l 174 313 q 261 138 192 199 q 431 78 331 78 q 550 116 503 78 q 597 208 597 154 q 566 285 597 253 q 497 335 535 317 q 375 386 458 353 q 141 525 222 447 q 60 729 60 603 q 92 853 60 793 q 197 954 124 914 q 385 994 269 994 m 497 -50 q 526 -150 526 -99 q 490 -272 526 -210 q 389 -394 453 -335 l 326 -346 q 371 -249 357 -293 q 385 -162 385 -206 q 372 -75 385 -121 l 497 -50 z "},"T":{"ha":903,"x_min":22,"x_max":879,"o":"m 788 658 q 742 824 788 768 q 617 879 697 881 l 550 879 l 550 228 q 544 103 550 135 q 656 107 590 107 l 656 0 l 250 0 l 250 92 q 307 101 288 93 q 338 133 326 108 q 349 213 349 158 l 349 878 l 285 878 q 158 822 203 876 q 114 658 114 768 l 22 658 l 29 972 l 871 972 l 879 658 l 788 658 z "},"Ť":{"ha":903,"x_min":22,"x_max":879,"o":"m 22 0 m 788 658 q 742 824 788 768 q 617 879 697 881 l 550 879 l 550 228 q 544 103 550 135 q 656 107 590 107 l 656 0 l 250 0 l 250 92 q 307 101 288 93 q 338 133 326 108 q 349 213 349 158 l 349 878 l 285 878 q 158 822 203 876 q 114 658 114 768 l 22 658 l 29 972 l 871 972 l 879 658 l 788 658 m 475 1063 l 449 1063 l 178 1271 l 221 1335 l 468 1214 l 722 1338 l 758 1275 l 475 1063 z "},"Ț":{"ha":903,"x_min":22,"x_max":879,"o":"m 22 0 m 788 658 q 742 824 788 768 q 617 879 697 881 l 550 879 l 550 228 q 544 103 550 135 q 656 107 590 107 l 656 0 l 250 0 l 250 92 q 307 101 288 93 q 338 133 326 108 q 349 213 349 158 l 349 878 l 285 878 q 158 822 203 876 q 114 658 114 768 l 22 658 l 29 972 l 871 972 l 879 658 l 788 658 m 508 -50 q 538 -150 538 -99 q 501 -272 538 -210 q 400 -394 464 -335 l 338 -346 q 382 -249 368 -293 q 396 -162 396 -206 q 383 -75 396 -121 l 508 -50 z "},"U":{"ha":1056,"x_min":36,"x_max":1022,"o":"m 1022 881 q 965 872 985 879 q 935 839 946 864 q 924 760 924 814 l 924 413 q 819 81 924 185 q 535 -22 714 -22 q 226 94 317 -22 q 135 408 135 210 l 135 744 q 140 869 135 822 l 36 865 l 36 972 l 435 972 l 435 881 q 378 872 399 879 q 347 839 358 864 q 336 760 336 814 l 336 378 q 569 83 336 83 q 740 158 679 83 q 800 381 800 233 l 800 744 q 806 869 800 838 l 700 865 l 700 972 l 1022 972 l 1022 881 z "},"Ú":{"ha":1056,"x_min":36,"x_max":1022,"o":"m 36 0 m 1022 881 q 965 872 985 879 q 935 839 946 864 q 924 760 924 814 l 924 413 q 819 81 924 185 q 535 -22 714 -22 q 226 94 317 -22 q 135 408 135 210 l 135 744 q 140 869 135 822 l 36 865 l 36 972 l 435 972 l 435 881 q 378 872 399 879 q 347 839 358 864 q 336 760 336 814 l 336 378 q 569 83 336 83 q 740 158 679 83 q 800 381 800 233 l 800 744 q 806 869 800 838 l 700 865 l 700 972 l 1022 972 l 1022 881 m 676 1276 q 690 1235 690 1257 q 674 1185 690 1210 q 635 1146 658 1161 l 438 1042 l 388 1110 l 542 1274 q 576 1298 557 1289 q 615 1307 596 1307 q 676 1276 651 1307 z "},"Û":{"ha":1056,"x_min":36,"x_max":1022,"o":"m 36 0 m 1022 881 q 965 872 985 879 q 935 839 946 864 q 924 760 924 814 l 924 413 q 819 81 924 185 q 535 -22 714 -22 q 226 94 317 -22 q 135 408 135 210 l 135 744 q 140 869 135 822 l 36 865 l 36 972 l 435 972 l 435 881 q 378 872 399 879 q 347 839 358 864 q 336 760 336 814 l 336 378 q 569 83 336 83 q 740 158 679 83 q 800 381 800 233 l 800 744 q 806 869 800 838 l 700 865 l 700 972 l 1022 972 l 1022 881 m 814 1075 l 565 1196 l 313 1078 l 275 1140 l 558 1349 l 586 1349 l 857 1140 l 814 1075 z "},"Ü":{"ha":1056,"x_min":36,"x_max":1022,"o":"m 36 0 m 1022 881 q 965 872 985 879 q 935 839 946 864 q 924 760 924 814 l 924 413 q 819 81 924 185 q 535 -22 714 -22 q 226 94 317 -22 q 135 408 135 210 l 135 744 q 140 869 135 822 l 36 865 l 36 972 l 435 972 l 435 881 q 378 872 399 879 q 347 839 358 864 q 336 760 336 814 l 336 378 q 569 83 336 83 q 740 158 679 83 q 800 381 800 233 l 800 744 q 806 869 800 838 l 700 865 l 700 972 l 1022 972 l 1022 881 m 451 1318 q 517 1287 490 1318 q 543 1211 543 1256 q 515 1138 543 1168 q 450 1107 488 1107 q 385 1138 413 1107 q 357 1211 357 1168 q 385 1286 357 1254 q 451 1318 414 1318 m 693 1318 q 758 1287 732 1318 q 785 1211 785 1256 q 757 1138 785 1168 q 692 1107 729 1107 q 627 1138 654 1107 q 600 1211 600 1168 q 628 1286 600 1254 q 693 1318 656 1318 z "},"Ù":{"ha":1056,"x_min":36,"x_max":1022,"o":"m 36 0 m 1022 881 q 965 872 985 879 q 935 839 946 864 q 924 760 924 814 l 924 413 q 819 81 924 185 q 535 -22 714 -22 q 226 94 317 -22 q 135 408 135 210 l 135 744 q 140 869 135 822 l 36 865 l 36 972 l 435 972 l 435 881 q 378 872 399 879 q 347 839 358 864 q 336 760 336 814 l 336 378 q 569 83 336 83 q 740 158 679 83 q 800 381 800 233 l 800 744 q 806 869 800 838 l 700 865 l 700 972 l 1022 972 l 1022 881 m 383 1276 q 444 1307 408 1307 q 483 1298 464 1307 q 518 1274 503 1289 l 672 1110 l 622 1042 l 425 1146 q 385 1185 401 1161 q 369 1235 369 1210 q 383 1276 369 1257 z "},"Ű":{"ha":1056,"x_min":36,"x_max":1022,"o":"m 36 0 m 1022 881 q 965 872 985 879 q 935 839 946 864 q 924 760 924 814 l 924 413 q 819 81 924 185 q 535 -22 714 -22 q 226 94 317 -22 q 135 408 135 210 l 135 744 q 140 869 135 822 l 36 865 l 36 972 l 435 972 l 435 881 q 378 872 399 879 q 347 839 358 864 q 336 760 336 814 l 336 378 q 569 83 336 83 q 740 158 679 83 q 800 381 800 233 l 800 744 q 806 869 800 838 l 700 865 l 700 972 l 1022 972 l 1022 881 m 581 1318 q 601 1272 601 1299 q 589 1227 601 1250 q 557 1186 576 1204 l 394 1038 l 332 1094 l 450 1268 q 494 1313 469 1296 q 544 1331 519 1331 q 581 1318 564 1331 m 856 1264 q 865 1233 865 1250 q 844 1185 865 1208 q 793 1143 824 1161 l 597 1036 l 553 1107 l 710 1249 q 804 1292 760 1292 q 856 1264 840 1292 z "},"Ū":{"ha":1056,"x_min":36,"x_max":1022,"o":"m 36 0 m 1022 881 q 965 872 985 879 q 935 839 946 864 q 924 760 924 814 l 924 413 q 819 81 924 185 q 535 -22 714 -22 q 226 94 317 -22 q 135 408 135 210 l 135 744 q 140 869 135 822 l 36 865 l 36 972 l 435 972 l 435 881 q 378 872 399 879 q 347 839 358 864 q 336 760 336 814 l 336 378 q 569 83 336 83 q 740 158 679 83 q 800 381 800 233 l 800 744 q 806 869 800 838 l 700 865 l 700 972 l 1022 972 l 1022 881 m 338 1149 l 338 1282 l 732 1282 l 732 1154 l 338 1149 z "},"Ų":{"ha":1056,"x_min":36,"x_max":1022,"o":"m 1022 881 q 965 872 985 879 q 935 839 946 864 q 924 760 924 814 l 924 413 q 706 6 924 93 q 581 -74 633 -25 q 529 -178 529 -124 q 545 -220 529 -204 q 590 -236 561 -236 q 676 -196 632 -236 l 725 -256 q 639 -333 688 -304 q 542 -362 590 -362 q 433 -326 474 -362 q 392 -219 392 -289 q 425 -115 392 -165 q 517 -22 458 -65 q 222 99 308 -17 q 135 408 135 214 l 135 744 q 140 869 135 822 l 36 865 l 36 972 l 435 972 l 435 881 q 378 872 399 879 q 347 839 358 864 q 336 760 336 814 l 336 378 q 569 83 336 83 q 740 158 679 83 q 800 381 800 233 l 800 744 q 806 869 800 838 l 700 865 l 700 972 l 1022 972 l 1022 881 z "},"Ů":{"ha":1056,"x_min":36,"x_max":1022,"o":"m 36 0 m 1022 881 q 965 872 985 879 q 935 839 946 864 q 924 760 924 814 l 924 413 q 819 81 924 185 q 535 -22 714 -22 q 226 94 317 -22 q 135 408 135 210 l 135 744 q 140 869 135 822 l 36 865 l 36 972 l 435 972 l 435 881 q 378 872 399 879 q 347 839 358 864 q 336 760 336 814 l 336 378 q 569 83 336 83 q 740 158 679 83 q 800 381 800 233 l 800 744 q 806 869 800 838 l 700 865 l 700 972 l 1022 972 l 1022 881 m 535 1382 q 649 1341 600 1382 q 699 1224 699 1300 q 675 1138 699 1175 q 614 1081 651 1101 q 536 1060 576 1060 q 458 1078 496 1060 q 395 1134 419 1097 q 371 1219 371 1171 q 394 1302 371 1265 q 454 1360 417 1339 q 535 1382 492 1382 m 533 1299 q 500 1281 514 1297 q 486 1232 486 1264 q 501 1167 486 1189 q 543 1144 517 1144 q 576 1163 563 1146 q 589 1211 589 1181 q 574 1277 589 1256 q 533 1299 558 1299 z "},"V":{"ha":983,"x_min":11,"x_max":983,"o":"m 983 881 q 900 844 935 878 q 836 732 865 810 l 558 -8 l 444 -8 l 125 738 q 86 869 86 829 l 11 865 l 11 972 l 421 972 l 421 881 q 329 822 329 883 q 340 774 329 800 l 468 460 q 510 357 485 421 q 547 261 518 335 l 549 261 l 615 453 l 721 743 q 778 869 751 839 l 778 871 l 706 867 l 671 865 l 671 972 l 983 972 l 983 881 z "},"W":{"ha":1411,"x_min":18,"x_max":1413,"o":"m 1413 881 q 1328 844 1364 878 q 1265 732 1292 810 l 1039 -8 l 915 -8 l 751 489 q 707 660 729 554 q 700 694 706 672 l 699 694 q 658 513 685 604 l 500 -8 l 379 -8 l 132 740 q 92 869 92 835 l 18 865 l 18 972 l 428 972 l 428 881 q 360 869 383 882 q 338 822 338 856 q 346 776 338 804 l 429 460 q 446 395 432 449 q 475 263 460 342 l 476 263 l 556 547 l 685 972 l 810 972 l 968 461 q 1018 261 988 397 l 1019 261 l 1072 453 l 1150 743 q 1207 869 1172 831 l 1207 871 l 1135 867 l 1100 865 l 1100 972 l 1413 972 l 1413 881 z "},"X":{"ha":971,"x_min":19,"x_max":965,"o":"m 904 881 q 810 838 857 875 q 708 724 764 800 l 575 542 l 836 208 q 908 103 890 142 q 965 107 954 107 l 965 0 l 550 0 l 550 92 q 628 125 628 92 q 596 186 628 144 l 456 365 l 454 365 l 332 197 q 256 103 282 129 l 256 101 q 354 107 317 107 l 354 0 l 49 0 l 49 92 q 128 136 88 101 q 221 240 169 171 l 382 456 l 158 739 q 89 869 115 794 l 19 865 l 19 972 l 442 972 l 442 881 q 356 842 356 881 q 382 786 356 819 l 504 629 l 506 629 l 611 775 q 693 869 657 838 l 693 871 l 624 867 l 589 865 l 589 972 l 904 972 l 904 881 z "},"Y":{"ha":926,"x_min":4,"x_max":921,"o":"m 921 881 q 838 841 872 874 q 763 732 803 808 l 582 385 l 582 228 q 576 103 582 150 q 688 107 622 107 l 688 0 l 282 0 l 282 92 q 339 101 319 93 q 369 133 358 108 q 381 213 381 158 l 381 333 l 125 738 q 88 810 104 772 q 72 869 72 847 l 4 865 l 4 972 l 414 972 l 414 881 q 342 869 369 883 q 315 826 315 856 q 332 774 315 801 l 438 600 q 469 546 442 593 q 508 465 496 499 l 510 465 q 519 487 514 475 q 532 514 525 499 q 575 601 567 583 l 647 743 q 721 869 690 835 l 721 871 l 649 867 l 614 865 l 614 972 l 921 972 l 921 881 z "},"Ý":{"ha":926,"x_min":4,"x_max":921,"o":"m 4 0 m 921 881 q 838 841 872 874 q 763 732 803 808 l 582 385 l 582 228 q 576 103 582 150 q 688 107 622 107 l 688 0 l 282 0 l 282 92 q 339 101 319 93 q 369 133 358 108 q 381 213 381 158 l 381 333 l 125 738 q 88 810 104 772 q 72 869 72 847 l 4 865 l 4 972 l 414 972 l 414 881 q 342 869 369 883 q 315 826 315 856 q 332 774 315 801 l 438 600 q 469 546 442 593 q 508 465 496 499 l 510 465 q 519 487 514 475 q 532 514 525 499 q 575 601 567 583 l 647 743 q 721 869 690 835 l 721 871 l 649 867 l 614 865 l 614 972 l 921 972 l 921 881 m 621 1276 q 635 1235 635 1257 q 619 1185 635 1210 q 579 1146 603 1161 l 382 1042 l 332 1110 l 486 1274 q 521 1298 501 1289 q 560 1307 540 1307 q 621 1276 596 1307 z "},"Ÿ":{"ha":926,"x_min":4,"x_max":921,"o":"m 4 0 m 921 881 q 838 841 872 874 q 763 732 803 808 l 582 385 l 582 228 q 576 103 582 150 q 688 107 622 107 l 688 0 l 282 0 l 282 92 q 339 101 319 93 q 369 133 358 108 q 381 213 381 158 l 381 333 l 125 738 q 88 810 104 772 q 72 869 72 847 l 4 865 l 4 972 l 414 972 l 414 881 q 342 869 369 883 q 315 826 315 856 q 332 774 315 801 l 438 600 q 469 546 442 593 q 508 465 496 499 l 510 465 q 519 487 514 475 q 532 514 525 499 q 575 601 567 583 l 647 743 q 721 869 690 835 l 721 871 l 649 867 l 614 865 l 614 972 l 921 972 l 921 881 m 360 1318 q 425 1287 399 1318 q 451 1211 451 1256 q 424 1138 451 1168 q 358 1107 396 1107 q 293 1138 321 1107 q 265 1211 265 1168 q 294 1286 265 1254 q 360 1318 322 1318 m 601 1318 q 667 1287 640 1318 q 693 1211 693 1256 q 665 1138 693 1168 q 600 1107 638 1107 q 535 1138 563 1107 q 508 1211 508 1168 q 536 1286 508 1254 q 601 1318 564 1318 z "},"Z":{"ha":839,"x_min":56,"x_max":779,"o":"m 378 263 q 258 99 304 153 l 258 97 l 513 92 q 641 140 594 90 q 688 297 688 189 l 779 297 l 771 0 l 56 0 l 56 104 l 471 738 q 568 874 532 831 l 568 875 l 331 882 q 201 835 249 885 q 154 676 154 785 l 63 676 l 71 972 l 778 972 l 778 868 l 378 263 z "},"Ź":{"ha":839,"x_min":56,"x_max":779,"o":"m 56 0 m 378 263 q 258 99 304 153 l 258 97 l 513 92 q 641 140 594 90 q 688 297 688 189 l 779 297 l 771 0 l 56 0 l 56 104 l 471 738 q 568 874 532 831 l 568 875 l 331 882 q 201 835 249 885 q 154 676 154 785 l 63 676 l 71 972 l 778 972 l 778 868 l 378 263 m 578 1276 q 592 1235 592 1257 q 576 1185 592 1210 q 536 1146 560 1161 l 339 1042 l 289 1110 l 443 1274 q 478 1298 458 1289 q 517 1307 497 1307 q 578 1276 553 1307 z "},"Ž":{"ha":839,"x_min":56,"x_max":779,"o":"m 56 0 m 378 263 q 258 99 304 153 l 258 97 l 513 92 q 641 140 594 90 q 688 297 688 189 l 779 297 l 771 0 l 56 0 l 56 104 l 471 738 q 568 874 532 831 l 568 875 l 331 882 q 201 835 249 885 q 154 676 154 785 l 63 676 l 71 972 l 778 972 l 778 868 l 378 263 m 468 1063 l 442 1063 l 171 1271 l 214 1335 l 461 1214 l 715 1338 l 751 1275 l 468 1063 z "},"Ż":{"ha":839,"x_min":56,"x_max":779,"o":"m 56 0 m 378 263 q 258 99 304 153 l 258 97 l 513 92 q 641 140 594 90 q 688 297 688 189 l 779 297 l 771 0 l 56 0 l 56 104 l 471 738 q 568 874 532 831 l 568 875 l 331 882 q 201 835 249 885 q 154 676 154 785 l 63 676 l 71 972 l 778 972 l 778 868 l 378 263 m 438 1324 q 512 1290 482 1324 q 542 1210 542 1257 q 513 1128 542 1161 q 439 1096 485 1096 q 361 1129 392 1096 q 331 1210 331 1163 q 363 1290 331 1257 q 438 1324 394 1324 z "},"a":{"ha":703,"x_min":42,"x_max":681,"o":"m 353 651 q 600 410 600 651 l 599 203 q 593 92 599 143 q 681 96 638 96 l 681 0 l 428 0 q 422 58 425 17 l 421 58 q 224 -21 340 -21 q 90 26 139 -21 q 42 147 42 74 q 151 316 42 258 q 414 381 260 374 l 414 446 q 321 561 414 561 q 269 551 294 561 q 228 525 244 542 q 243 478 243 507 q 221 423 243 447 q 157 399 199 399 q 94 423 117 399 q 71 485 71 447 q 108 572 71 533 q 210 631 146 610 q 353 651 275 651 m 413 290 q 282 252 333 283 q 231 171 231 221 q 253 121 231 138 q 307 104 275 104 q 413 149 368 104 l 413 290 z "},"á":{"ha":703,"x_min":42,"x_max":681,"o":"m 42 0 m 353 651 q 600 410 600 651 l 599 203 q 593 92 599 143 q 681 96 638 96 l 681 0 l 428 0 q 422 58 425 17 l 421 58 q 224 -21 340 -21 q 90 26 139 -21 q 42 147 42 74 q 151 316 42 258 q 414 381 260 374 l 414 446 q 321 561 414 561 q 269 551 294 561 q 228 525 244 542 q 243 478 243 507 q 221 423 243 447 q 157 399 199 399 q 94 423 117 399 q 71 485 71 447 q 108 572 71 533 q 210 631 146 610 q 353 651 275 651 m 413 290 q 282 252 333 283 q 231 171 231 221 q 253 121 231 138 q 307 104 275 104 q 413 149 368 104 l 413 290 m 447 1007 q 472 950 472 983 q 462 907 472 929 q 435 869 451 885 l 267 722 l 203 779 l 317 974 q 354 1010 332 997 q 400 1024 376 1024 q 447 1007 425 1024 z "},"ă":{"ha":703,"x_min":42,"x_max":681,"o":"m 42 0 m 353 651 q 600 410 600 651 l 599 203 q 593 92 599 143 q 681 96 638 96 l 681 0 l 428 0 q 422 58 425 17 l 421 58 q 224 -21 340 -21 q 90 26 139 -21 q 42 147 42 74 q 151 316 42 258 q 414 381 260 374 l 414 446 q 321 561 414 561 q 269 551 294 561 q 228 525 244 542 q 243 478 243 507 q 221 423 243 447 q 157 399 199 399 q 94 423 117 399 q 71 485 71 447 q 108 572 71 533 q 210 631 146 610 q 353 651 275 651 m 413 290 q 282 252 333 283 q 231 171 231 221 q 253 121 231 138 q 307 104 275 104 q 413 149 368 104 l 413 290 m 557 958 q 335 771 489 771 q 208 815 268 771 q 118 951 149 858 l 208 997 q 265 925 235 951 q 340 899 296 899 q 413 926 383 899 q 467 999 443 953 l 557 958 z "},"â":{"ha":703,"x_min":42,"x_max":681,"o":"m 42 0 m 353 651 q 600 410 600 651 l 599 203 q 593 92 599 143 q 681 96 638 96 l 681 0 l 428 0 q 422 58 425 17 l 421 58 q 224 -21 340 -21 q 90 26 139 -21 q 42 147 42 74 q 151 316 42 258 q 414 381 260 374 l 414 446 q 321 561 414 561 q 269 551 294 561 q 228 525 244 542 q 243 478 243 507 q 221 423 243 447 q 157 399 199 399 q 94 423 117 399 q 71 485 71 447 q 108 572 71 533 q 210 631 146 610 q 353 651 275 651 m 413 290 q 282 252 333 283 q 231 171 231 221 q 253 121 231 138 q 307 104 275 104 q 413 149 368 104 l 413 290 m 514 718 l 338 864 l 336 864 l 158 728 l 100 794 l 338 1025 l 351 1025 l 574 789 l 514 718 z "},"ä":{"ha":703,"x_min":42,"x_max":681,"o":"m 42 0 m 353 651 q 600 410 600 651 l 599 203 q 593 92 599 143 q 681 96 638 96 l 681 0 l 428 0 q 422 58 425 17 l 421 58 q 224 -21 340 -21 q 90 26 139 -21 q 42 147 42 74 q 151 316 42 258 q 414 381 260 374 l 414 446 q 321 561 414 561 q 269 551 294 561 q 228 525 244 542 q 243 478 243 507 q 221 423 243 447 q 157 399 199 399 q 94 423 117 399 q 71 485 71 447 q 108 572 71 533 q 210 631 146 610 q 353 651 275 651 m 413 290 q 282 252 333 283 q 231 171 231 221 q 253 121 231 138 q 307 104 275 104 q 413 149 368 104 l 413 290 m 218 981 q 283 949 257 981 q 310 875 310 918 q 282 801 310 832 q 217 771 254 771 q 152 801 179 771 q 125 875 125 832 q 153 949 125 918 q 218 981 181 981 m 460 981 q 525 949 499 981 q 551 875 551 918 q 524 801 551 832 q 458 771 496 771 q 394 801 421 771 q 367 875 367 832 q 394 949 367 918 q 460 981 422 981 z "},"à":{"ha":703,"x_min":42,"x_max":681,"o":"m 42 0 m 353 651 q 600 410 600 651 l 599 203 q 593 92 599 143 q 681 96 638 96 l 681 0 l 428 0 q 422 58 425 17 l 421 58 q 224 -21 340 -21 q 90 26 139 -21 q 42 147 42 74 q 151 316 42 258 q 414 381 260 374 l 414 446 q 321 561 414 561 q 269 551 294 561 q 228 525 244 542 q 243 478 243 507 q 221 423 243 447 q 157 399 199 399 q 94 423 117 399 q 71 485 71 447 q 108 572 71 533 q 210 631 146 610 q 353 651 275 651 m 413 290 q 282 252 333 283 q 231 171 231 221 q 253 121 231 138 q 307 104 275 104 q 413 149 368 104 l 413 290 m 229 1007 q 276 1024 250 1024 q 322 1010 300 1024 q 358 974 344 996 l 472 779 l 408 722 l 240 869 q 213 907 224 886 q 203 949 203 928 q 229 1007 203 982 z "},"ā":{"ha":703,"x_min":42,"x_max":681,"o":"m 42 0 m 353 651 q 600 410 600 651 l 599 203 q 593 92 599 143 q 681 96 638 96 l 681 0 l 428 0 q 422 58 425 17 l 421 58 q 224 -21 340 -21 q 90 26 139 -21 q 42 147 42 74 q 151 316 42 258 q 414 381 260 374 l 414 446 q 321 561 414 561 q 269 551 294 561 q 228 525 244 542 q 243 478 243 507 q 221 423 243 447 q 157 399 199 399 q 94 423 117 399 q 71 485 71 447 q 108 572 71 533 q 210 631 146 610 q 353 651 275 651 m 413 290 q 282 252 333 283 q 231 171 231 221 q 253 121 231 138 q 307 104 275 104 q 413 149 368 104 l 413 290 m 140 808 l 140 942 l 535 942 l 535 814 l 140 808 z "},"ą":{"ha":703,"x_min":42,"x_max":681,"o":"m 618 0 q 502 -78 550 -31 q 454 -176 454 -126 q 470 -220 454 -204 q 515 -236 486 -236 q 601 -196 557 -236 l 650 -256 q 564 -333 613 -304 q 467 -362 515 -362 q 358 -326 399 -362 q 317 -219 317 -289 q 360 -101 317 -158 q 475 0 403 -44 l 428 0 q 422 58 425 17 l 421 58 q 224 -21 340 -21 q 90 26 139 -21 q 42 147 42 74 q 151 316 42 258 q 414 381 260 374 l 414 446 q 321 561 414 561 q 269 551 294 561 q 228 525 244 542 q 243 478 243 507 q 221 423 243 447 q 157 399 199 399 q 94 423 117 399 q 71 485 71 447 q 108 572 71 533 q 210 631 146 610 q 353 651 275 651 q 600 410 600 651 l 599 203 q 593 92 599 143 q 681 96 638 96 l 681 0 l 618 0 m 413 290 q 282 252 333 283 q 231 171 231 221 q 253 121 231 138 q 307 104 275 104 q 413 149 368 104 l 413 290 z "},"å":{"ha":703,"x_min":42,"x_max":681,"o":"m 42 0 m 353 651 q 600 410 600 651 l 599 203 q 593 92 599 143 q 681 96 638 96 l 681 0 l 428 0 q 422 58 425 17 l 421 58 q 224 -21 340 -21 q 90 26 139 -21 q 42 147 42 74 q 151 316 42 258 q 414 381 260 374 l 414 446 q 321 561 414 561 q 269 551 294 561 q 228 525 244 542 q 243 478 243 507 q 221 423 243 447 q 157 399 199 399 q 94 423 117 399 q 71 485 71 447 q 108 572 71 533 q 210 631 146 610 q 353 651 275 651 m 413 290 q 282 252 333 283 q 231 171 231 221 q 253 121 231 138 q 307 104 275 104 q 413 149 368 104 l 413 290 m 338 1042 q 452 1001 403 1042 q 501 883 501 960 q 478 798 501 835 q 417 740 454 761 q 339 719 379 719 q 260 738 299 719 q 198 794 222 757 q 174 879 174 831 q 197 962 174 925 q 257 1020 219 999 q 338 1042 294 1042 m 336 958 q 303 940 317 957 q 289 892 289 924 q 304 826 289 849 q 346 804 319 804 q 378 823 365 806 q 392 871 392 840 q 376 937 392 915 q 336 958 361 958 z "},"ã":{"ha":703,"x_min":42,"x_max":681,"o":"m 42 0 m 353 651 q 600 410 600 651 l 599 203 q 593 92 599 143 q 681 96 638 96 l 681 0 l 428 0 q 422 58 425 17 l 421 58 q 224 -21 340 -21 q 90 26 139 -21 q 42 147 42 74 q 151 316 42 258 q 414 381 260 374 l 414 446 q 321 561 414 561 q 269 551 294 561 q 228 525 244 542 q 243 478 243 507 q 221 423 243 447 q 157 399 199 399 q 94 423 117 399 q 71 485 71 447 q 108 572 71 533 q 210 631 146 610 q 353 651 275 651 m 413 290 q 282 252 333 283 q 231 171 231 221 q 253 121 231 138 q 307 104 275 104 q 413 149 368 104 l 413 290 m 586 943 q 513 822 558 863 q 421 781 467 781 q 373 788 394 781 q 324 811 351 796 q 285 829 300 824 q 253 835 271 835 q 209 822 232 835 q 167 778 186 808 l 89 824 q 158 926 111 886 q 251 967 204 967 q 303 959 282 967 q 347 938 324 951 q 384 919 368 925 q 421 914 400 914 q 467 932 444 914 q 507 983 489 950 l 586 943 z "},"æ":{"ha":1069,"x_min":40,"x_max":1042,"o":"m 763 717 q 886 681 829 715 q 979 570 943 647 q 1014 374 1015 493 l 621 365 q 658 170 621 239 q 789 101 694 101 q 886 126 836 101 q 981 206 936 151 l 1042 147 q 899 14 975 50 q 738 -22 822 -22 q 514 94 601 -22 q 385 3 456 28 q 232 -22 314 -22 q 92 30 144 -22 q 40 163 40 82 q 155 348 40 285 q 429 418 269 411 l 429 493 q 407 584 429 550 q 339 618 385 618 q 233 581 269 618 q 251 525 251 563 q 228 466 251 493 q 160 439 204 439 q 95 466 119 439 q 71 533 71 493 q 108 626 71 585 q 210 692 144 668 q 354 717 275 717 q 542 600 510 717 l 543 600 q 632 690 582 664 q 763 717 682 717 m 739 618 q 629 463 642 618 l 831 463 q 803 581 829 543 q 739 618 776 618 m 429 319 q 292 278 347 311 q 238 190 238 244 q 263 133 238 153 q 321 114 288 114 q 383 128 353 114 q 435 167 413 142 q 429 319 429 238 z "},"b":{"ha":768,"x_min":-6,"x_max":724,"o":"m 272 583 q 453 651 354 651 q 594 612 533 651 q 690 500 656 572 q 724 332 724 428 q 684 150 724 231 q 571 24 644 69 q 399 -21 497 -21 q 299 -3 351 -21 q 204 56 246 14 l 203 56 l 164 0 l 83 0 l 83 714 q 88 824 83 786 l -6 819 l -6 915 q 131 927 78 915 q 200 953 183 939 l 272 953 l 272 583 m 385 538 q 320 523 350 538 q 272 483 290 508 l 272 189 q 303 100 272 128 q 375 72 333 72 q 491 140 456 72 q 526 313 526 208 q 491 472 526 407 q 385 538 456 538 z "},"c":{"ha":696,"x_min":43,"x_max":678,"o":"m 392 651 q 531 627 472 651 q 619 563 589 603 q 649 479 649 524 q 624 411 649 439 q 556 383 599 383 q 490 408 511 383 q 468 465 468 433 q 472 493 468 478 q 483 521 476 508 q 445 553 471 544 q 393 563 419 563 q 281 504 324 563 q 239 339 239 446 q 281 165 239 233 q 415 92 324 96 q 525 117 471 90 q 617 189 579 143 l 678 132 q 535 13 611 46 q 372 -21 458 -21 q 206 18 281 -21 q 87 130 131 57 q 43 301 43 203 q 88 477 43 397 q 212 604 132 557 q 392 651 292 651 z "},"ć":{"ha":696,"x_min":43,"x_max":678,"o":"m 43 0 m 392 651 q 531 627 472 651 q 619 563 589 603 q 649 479 649 524 q 624 411 649 439 q 556 383 599 383 q 490 408 511 383 q 468 465 468 433 q 472 493 468 478 q 483 521 476 508 q 445 553 471 544 q 393 563 419 563 q 281 504 324 563 q 239 339 239 446 q 281 165 239 233 q 415 92 324 96 q 525 117 471 90 q 617 189 579 143 l 678 132 q 535 13 611 46 q 372 -21 458 -21 q 206 18 281 -21 q 87 130 131 57 q 43 301 43 203 q 88 477 43 397 q 212 604 132 557 q 392 651 292 651 m 513 1007 q 538 950 538 983 q 527 907 538 929 q 500 869 517 885 l 332 722 l 268 779 l 382 974 q 419 1010 397 997 q 465 1024 442 1024 q 513 1007 490 1024 z "},"č":{"ha":696,"x_min":43,"x_max":678,"o":"m 43 0 m 392 651 q 531 627 472 651 q 619 563 589 603 q 649 479 649 524 q 624 411 649 439 q 556 383 599 383 q 490 408 511 383 q 468 465 468 433 q 472 493 468 478 q 483 521 476 508 q 445 553 471 544 q 393 563 419 563 q 281 504 324 563 q 239 339 239 446 q 281 165 239 233 q 415 92 324 96 q 525 117 471 90 q 617 189 579 143 l 678 132 q 535 13 611 46 q 372 -21 458 -21 q 206 18 281 -21 q 87 130 131 57 q 43 301 43 203 q 88 477 43 397 q 212 604 132 557 q 392 651 292 651 m 408 711 l 393 711 l 168 946 l 228 1017 l 407 871 l 408 871 l 576 1017 l 635 950 l 408 711 z "},"ç":{"ha":696,"x_min":43,"x_max":678,"o":"m 543 -74 q 617 -99 589 -75 q 644 -171 644 -124 q 547 -299 644 -256 q 329 -360 450 -343 l 318 -287 q 434 -256 383 -275 q 485 -200 485 -236 q 474 -174 485 -182 q 446 -165 463 -165 q 417 -171 432 -165 q 390 -185 401 -176 l 339 -162 l 372 -21 q 206 18 281 -21 q 87 130 131 57 q 43 301 43 203 q 88 477 43 397 q 212 604 132 557 q 392 651 292 651 q 531 627 472 651 q 619 563 589 603 q 649 479 649 524 q 624 411 649 439 q 556 383 599 383 q 490 408 511 383 q 468 465 468 433 q 472 493 468 478 q 483 521 476 508 q 445 553 471 544 q 393 563 419 563 q 281 504 324 563 q 239 339 239 446 q 281 165 239 233 q 415 92 324 96 q 525 117 471 90 q 617 189 579 143 l 678 132 q 479 -7 593 24 l 447 -96 l 449 -96 q 494 -81 465 -87 q 543 -74 524 -74 z "},"d":{"ha":800,"x_min":44,"x_max":765,"o":"m 683 203 q 678 92 683 143 q 765 96 722 96 l 765 0 l 511 0 l 504 58 l 503 58 q 314 -21 424 -21 q 174 19 235 -21 q 78 131 113 58 q 44 299 44 203 q 86 481 44 400 q 203 606 128 561 q 376 651 278 651 q 494 629 428 651 l 494 713 q 500 824 494 772 q 406 819 457 819 l 406 915 q 542 927 489 915 q 611 953 594 939 l 683 953 l 683 203 m 400 558 q 277 489 314 557 q 240 318 240 421 q 276 161 240 228 q 383 94 313 94 q 447 111 417 94 q 494 156 476 128 l 494 535 q 454 551 481 544 q 400 558 428 558 z "},"ð":{"ha":753,"x_min":46,"x_max":689,"o":"m 404 956 q 612 715 535 867 q 689 375 689 563 q 652 174 689 264 q 542 31 615 83 q 364 -22 469 -22 q 199 18 271 -22 q 87 137 128 58 q 46 324 46 215 q 82 499 46 415 q 190 636 118 583 q 363 689 261 689 q 485 649 438 689 l 486 649 q 424 762 472 701 q 328 854 375 822 l 247 756 l 164 831 l 232 910 q 104 954 179 939 l 124 1056 q 311 1004 226 1044 l 382 1097 l 463 1025 l 404 956 m 375 579 q 275 510 313 579 q 238 343 238 440 q 276 163 238 229 q 374 96 315 96 q 471 158 432 96 q 510 332 510 219 q 476 503 510 428 q 375 579 443 579 z "},"ď":{"ha":961,"x_min":44,"x_max":975,"o":"m 956 1067 q 975 997 975 1028 q 940 872 975 936 q 849 754 904 808 l 794 794 q 849 981 849 893 q 832 1090 849 1028 l 956 1067 m 683 203 q 678 92 683 143 q 765 96 722 96 l 765 0 l 511 0 l 504 58 l 503 58 q 314 -21 424 -21 q 174 19 235 -21 q 78 131 113 58 q 44 299 44 203 q 86 481 44 400 q 203 606 128 561 q 376 651 278 651 q 494 629 428 651 l 494 713 q 500 824 494 772 q 406 819 457 819 l 406 915 q 542 927 489 915 q 611 953 594 939 l 683 953 l 683 203 m 400 558 q 277 489 314 557 q 240 318 240 421 q 276 161 240 228 q 383 94 313 94 q 447 111 417 94 q 494 156 476 128 l 494 535 q 454 551 481 544 q 400 558 428 558 z "},"đ":{"ha":828,"x_min":44,"x_max":814,"o":"m 708 224 q 703 101 708 157 q 793 106 749 106 l 793 0 l 529 0 l 522 64 l 521 64 q 325 -22 439 -22 q 179 19 243 -22 q 80 131 115 60 q 44 289 44 203 q 88 474 44 392 q 209 602 131 556 q 389 649 288 649 q 513 624 443 649 l 513 729 l 285 726 l 285 835 l 514 835 q 518 906 514 872 q 419 901 472 901 l 419 1007 q 561 1019 507 1007 q 633 1049 615 1032 l 708 1049 l 708 835 l 814 835 l 814 732 l 708 731 l 708 224 m 513 521 q 469 538 497 531 q 414 546 442 546 q 291 478 333 546 q 249 310 249 411 q 285 159 249 214 q 397 104 321 104 q 463 122 432 104 q 513 171 493 140 l 513 521 z "},"e":{"ha":722,"x_min":43,"x_max":685,"o":"m 378 651 q 593 579 507 651 q 678 340 679 507 l 239 332 q 284 156 239 221 q 428 92 329 92 q 528 115 474 92 q 625 188 582 139 l 685 133 q 374 -21 571 -21 q 201 20 275 -21 q 85 137 126 61 q 43 314 43 213 q 85 481 43 403 q 203 605 126 558 q 378 651 279 651 m 383 563 q 292 525 326 563 q 247 421 258 488 l 493 421 q 383 563 489 563 z "},"é":{"ha":722,"x_min":43,"x_max":685,"o":"m 43 0 m 378 651 q 593 579 507 651 q 678 340 679 507 l 239 332 q 284 156 239 221 q 428 92 329 92 q 528 115 474 92 q 625 188 582 139 l 685 133 q 374 -21 571 -21 q 201 20 275 -21 q 85 137 126 61 q 43 314 43 213 q 85 481 43 403 q 203 605 126 558 q 378 651 279 651 m 383 563 q 292 525 326 563 q 247 421 258 488 l 493 421 q 383 563 489 563 m 490 1007 q 515 950 515 983 q 505 907 515 929 q 478 869 494 885 l 310 722 l 246 779 l 360 974 q 397 1010 375 997 q 443 1024 419 1024 q 490 1007 468 1024 z "},"ě":{"ha":722,"x_min":43,"x_max":685,"o":"m 43 0 m 378 651 q 593 579 507 651 q 678 340 679 507 l 239 332 q 284 156 239 221 q 428 92 329 92 q 528 115 474 92 q 625 188 582 139 l 685 133 q 374 -21 571 -21 q 201 20 275 -21 q 85 137 126 61 q 43 314 43 213 q 85 481 43 403 q 203 605 126 558 q 378 651 279 651 m 383 563 q 292 525 326 563 q 247 421 258 488 l 493 421 q 383 563 489 563 m 386 711 l 371 711 l 146 946 l 206 1017 l 385 871 l 386 871 l 554 1017 l 613 950 l 386 711 z "},"ê":{"ha":722,"x_min":43,"x_max":685,"o":"m 43 0 m 378 651 q 593 579 507 651 q 678 340 679 507 l 239 332 q 284 156 239 221 q 428 92 329 92 q 528 115 474 92 q 625 188 582 139 l 685 133 q 374 -21 571 -21 q 201 20 275 -21 q 85 137 126 61 q 43 314 43 213 q 85 481 43 403 q 203 605 126 558 q 378 651 279 651 m 383 563 q 292 525 326 563 q 247 421 258 488 l 493 421 q 383 563 489 563 m 557 718 l 381 864 l 379 864 l 201 728 l 143 794 l 381 1025 l 394 1025 l 617 789 l 557 718 z "},"ë":{"ha":722,"x_min":43,"x_max":685,"o":"m 43 0 m 378 651 q 593 579 507 651 q 678 340 679 507 l 239 332 q 284 156 239 221 q 428 92 329 92 q 528 115 474 92 q 625 188 582 139 l 685 133 q 374 -21 571 -21 q 201 20 275 -21 q 85 137 126 61 q 43 314 43 213 q 85 481 43 403 q 203 605 126 558 q 378 651 279 651 m 383 563 q 292 525 326 563 q 247 421 258 488 l 493 421 q 383 563 489 563 m 261 981 q 326 949 300 981 q 353 875 353 918 q 325 801 353 832 q 260 771 297 771 q 195 801 222 771 q 168 875 168 832 q 196 949 168 918 q 261 981 224 981 m 503 981 q 568 949 542 981 q 594 875 594 918 q 567 801 594 832 q 501 771 539 771 q 437 801 464 771 q 410 875 410 832 q 438 949 410 918 q 503 981 465 981 z "},"ė":{"ha":722,"x_min":43,"x_max":685,"o":"m 43 0 m 378 651 q 593 579 507 651 q 678 340 679 507 l 239 332 q 284 156 239 221 q 428 92 329 92 q 528 115 474 92 q 625 188 582 139 l 685 133 q 374 -21 571 -21 q 201 20 275 -21 q 85 137 126 61 q 43 314 43 213 q 85 481 43 403 q 203 605 126 558 q 378 651 279 651 m 383 563 q 292 525 326 563 q 247 421 258 488 l 493 421 q 383 563 489 563 m 382 983 q 456 950 426 983 q 486 869 486 917 q 458 788 486 821 q 383 756 429 756 q 306 789 336 756 q 275 869 275 822 q 307 950 275 917 q 382 983 339 983 z "},"è":{"ha":722,"x_min":43,"x_max":685,"o":"m 43 0 m 378 651 q 593 579 507 651 q 678 340 679 507 l 239 332 q 284 156 239 221 q 428 92 329 92 q 528 115 474 92 q 625 188 582 139 l 685 133 q 374 -21 571 -21 q 201 20 275 -21 q 85 137 126 61 q 43 314 43 213 q 85 481 43 403 q 203 605 126 558 q 378 651 279 651 m 383 563 q 292 525 326 563 q 247 421 258 488 l 493 421 q 383 563 489 563 m 272 1007 q 319 1024 293 1024 q 365 1010 343 1024 q 401 974 388 996 l 515 779 l 451 722 l 283 869 q 256 907 267 886 q 246 949 246 928 q 272 1007 246 982 z "},"ē":{"ha":722,"x_min":43,"x_max":685,"o":"m 43 0 m 378 651 q 593 579 507 651 q 678 340 679 507 l 239 332 q 284 156 239 221 q 428 92 329 92 q 528 115 474 92 q 625 188 582 139 l 685 133 q 374 -21 571 -21 q 201 20 275 -21 q 85 137 126 61 q 43 314 43 213 q 85 481 43 403 q 203 605 126 558 q 378 651 279 651 m 383 563 q 292 525 326 563 q 247 421 258 488 l 493 421 q 383 563 489 563 m 183 808 l 183 942 l 578 942 l 578 814 l 183 808 z "},"ę":{"ha":722,"x_min":43,"x_max":685,"o":"m 526 6 q 402 -74 454 -25 q 350 -178 350 -124 q 366 -220 350 -204 q 411 -236 382 -236 q 497 -196 453 -236 l 546 -256 q 460 -333 508 -304 q 363 -362 411 -362 q 253 -326 294 -362 q 213 -219 213 -289 q 247 -114 213 -165 q 342 -19 282 -62 q 124 81 206 -8 q 43 314 43 171 q 85 481 43 403 q 203 605 126 558 q 378 651 279 651 q 593 579 507 651 q 678 340 679 507 l 239 332 q 284 156 239 221 q 428 92 329 92 q 528 115 474 92 q 625 188 582 139 l 685 133 q 526 7 621 49 l 526 6 m 383 563 q 292 525 326 563 q 247 421 258 488 l 493 421 q 383 563 489 563 z "},"f":{"ha":492,"x_min":42,"x_max":571,"o":"m 401 953 q 529 920 488 953 q 571 842 571 888 q 549 783 571 807 q 488 757 526 758 q 428 777 450 757 q 406 831 406 797 q 408 854 406 838 q 378 865 399 865 q 325 786 325 864 l 325 632 l 475 632 l 475 535 l 326 531 l 328 206 q 322 92 328 143 q 415 96 367 96 l 415 0 l 58 0 l 58 82 q 124 109 110 82 q 139 194 139 136 l 139 528 l 42 526 l 42 632 l 139 632 l 139 668 q 401 953 139 953 z "},"g":{"ha":746,"x_min":39,"x_max":786,"o":"m 693 765 q 762 744 738 765 q 786 685 786 722 q 767 631 786 656 q 706 607 747 607 q 663 622 685 607 q 639 657 642 636 q 603 624 621 651 q 583 575 586 597 q 642 502 622 544 q 663 411 663 460 q 620 283 663 340 q 508 194 578 226 q 358 161 438 161 l 321 163 q 279 165 293 165 q 229 155 249 165 q 210 128 210 144 q 246 95 210 104 q 381 81 282 86 q 635 27 549 71 q 722 -119 722 -17 q 667 -238 722 -187 q 524 -315 611 -289 q 344 -342 436 -342 q 111 -295 183 -342 q 39 -176 39 -249 q 69 -94 39 -133 q 167 -32 99 -56 q 90 11 114 -18 q 67 79 67 40 q 99 157 67 118 q 197 215 131 196 q 102 287 138 238 q 67 403 67 336 q 109 531 67 474 q 220 619 151 588 q 364 651 289 651 q 449 642 404 651 q 524 613 493 632 q 592 722 549 678 q 693 765 635 765 m 363 567 q 281 523 311 567 q 250 418 250 479 q 281 296 250 346 q 364 246 311 246 q 445 289 415 246 q 475 389 475 332 q 446 514 475 461 q 363 567 417 567 m 247 -61 q 215 -100 226 -76 q 204 -149 204 -124 q 253 -226 204 -197 q 383 -256 301 -256 q 486 -240 443 -256 q 552 -202 529 -225 q 575 -154 575 -179 q 528 -95 575 -115 q 383 -71 481 -75 l 342 -68 q 247 -61 272 -65 z "},"ğ":{"ha":746,"x_min":39,"x_max":786,"o":"m 39 0 m 693 765 q 762 744 738 765 q 786 685 786 722 q 767 631 786 656 q 706 607 747 607 q 663 622 685 607 q 639 657 642 636 q 603 624 621 651 q 583 575 586 597 q 642 502 622 544 q 663 411 663 460 q 620 283 663 340 q 508 194 578 226 q 358 161 438 161 l 321 163 q 279 165 293 165 q 229 155 249 165 q 210 128 210 144 q 246 95 210 104 q 381 81 282 86 q 635 27 549 71 q 722 -119 722 -17 q 667 -238 722 -187 q 524 -315 611 -289 q 344 -342 436 -342 q 111 -295 183 -342 q 39 -176 39 -249 q 69 -94 39 -133 q 167 -32 99 -56 q 90 11 114 -18 q 67 79 67 40 q 99 157 67 118 q 197 215 131 196 q 102 287 138 238 q 67 403 67 336 q 109 531 67 474 q 220 619 151 588 q 364 651 289 651 q 449 642 404 651 q 524 613 493 632 q 592 722 549 678 q 693 765 635 765 m 363 567 q 281 523 311 567 q 250 418 250 479 q 281 296 250 346 q 364 246 311 246 q 445 289 415 246 q 475 389 475 332 q 446 514 475 461 q 363 567 417 567 m 247 -61 q 215 -100 226 -76 q 204 -149 204 -124 q 253 -226 204 -197 q 383 -256 301 -256 q 486 -240 443 -256 q 552 -202 529 -225 q 575 -154 575 -179 q 528 -95 575 -115 q 383 -71 481 -75 l 342 -68 q 247 -61 272 -65 m 574 958 q 351 771 506 771 q 225 815 285 771 q 135 951 165 858 l 225 997 q 282 925 251 951 q 357 899 313 899 q 430 926 400 899 q 483 999 460 953 l 574 958 z "},"ģ":{"ha":774,"x_min":39,"x_max":786,"o":"m 39 0 m 693 765 q 762 744 738 765 q 786 685 786 722 q 767 631 786 656 q 706 607 747 607 q 663 622 685 607 q 639 657 642 636 q 603 624 621 651 q 583 575 586 597 q 642 502 622 544 q 663 411 663 460 q 620 283 663 340 q 508 194 578 226 q 358 161 438 161 l 321 163 q 279 165 293 165 q 229 155 249 165 q 210 128 210 144 q 246 95 210 104 q 381 81 282 86 q 635 27 549 71 q 722 -119 722 -17 q 667 -238 722 -187 q 524 -315 611 -289 q 344 -342 436 -342 q 111 -295 183 -342 q 39 -176 39 -249 q 69 -94 39 -133 q 167 -32 99 -56 q 90 11 114 -18 q 67 79 67 40 q 99 157 67 118 q 197 215 131 196 q 102 287 138 238 q 67 403 67 336 q 109 531 67 474 q 220 619 151 588 q 364 651 289 651 q 449 642 404 651 q 524 613 493 632 q 592 722 549 678 q 693 765 635 765 m 363 567 q 281 523 311 567 q 250 418 250 479 q 281 296 250 346 q 364 246 311 246 q 445 289 415 246 q 475 389 475 332 q 446 514 475 461 q 363 567 417 567 m 247 -61 q 215 -100 226 -76 q 204 -149 204 -124 q 253 -226 204 -197 q 383 -256 301 -256 q 486 -240 443 -256 q 552 -202 529 -225 q 575 -154 575 -179 q 528 -95 575 -115 q 383 -71 481 -75 l 342 -68 q 247 -61 272 -65 m 293 803 q 264 903 264 851 q 301 1025 264 963 q 401 1147 338 1088 l 464 1099 q 419 1002 433 1046 q 406 915 406 958 q 418 828 406 874 l 293 803 z "},"h":{"ha":832,"x_min":25,"x_max":806,"o":"m 303 581 q 400 631 343 610 q 499 651 457 651 q 671 585 619 651 q 724 372 722 519 l 724 203 q 719 92 724 150 q 806 96 761 96 l 806 0 l 454 0 l 454 82 q 520 109 506 82 q 535 194 535 136 l 533 374 q 507 496 533 457 q 425 535 481 535 q 359 522 393 535 q 303 489 325 508 l 303 203 q 297 92 303 143 q 385 96 342 96 l 385 0 l 35 0 l 35 82 q 88 95 71 82 q 108 131 104 108 q 113 194 113 154 l 113 714 q 118 824 113 774 l 25 819 l 25 915 q 161 927 108 915 q 231 953 214 939 l 303 953 l 303 581 z "},"i":{"ha":440,"x_min":47,"x_max":407,"o":"m 243 964 q 315 933 286 964 q 344 858 344 903 q 317 786 344 815 q 244 757 289 757 q 169 786 199 757 q 140 858 140 815 q 171 933 140 901 q 243 964 201 964 m 325 203 q 319 92 325 143 q 407 96 361 96 l 407 0 l 57 0 l 57 82 q 121 108 107 82 q 135 194 135 135 l 135 404 q 140 514 135 464 l 47 510 l 47 606 q 183 617 131 606 q 253 644 236 629 l 325 644 l 325 203 z "},"ı":{"ha":454,"x_min":47,"x_max":421,"o":"m 336 224 q 331 101 336 157 q 421 106 375 106 l 421 0 l 57 0 l 57 90 q 124 119 110 90 q 139 214 139 149 l 139 444 q 144 565 139 510 l 47 561 l 47 667 q 189 679 135 667 q 261 708 243 692 l 336 708 l 336 224 z "},"í":{"ha":454,"x_min":47,"x_max":421,"o":"m 47 0 m 336 224 q 331 101 336 157 q 421 106 375 106 l 421 0 l 57 0 l 57 90 q 124 119 110 90 q 139 214 139 149 l 139 444 q 144 565 139 510 l 47 561 l 47 667 q 189 679 135 667 q 261 708 243 692 l 336 708 l 336 224 m 393 1069 q 418 1013 418 1046 q 408 969 418 992 q 381 932 397 947 l 213 785 l 149 842 l 263 1036 q 300 1073 278 1060 q 346 1086 322 1086 q 393 1069 371 1086 z "},"î":{"ha":454,"x_min":13,"x_max":446,"o":"m 386 781 l 229 926 l 228 926 l 71 790 l 13 857 l 229 1088 l 243 1088 l 446 851 l 386 781 m 336 224 q 331 101 336 157 q 421 106 375 106 l 421 0 l 57 0 l 57 90 q 124 119 110 90 q 139 214 139 149 l 139 444 q 144 565 139 510 l 47 561 l 47 667 q 189 679 135 667 q 261 708 243 692 l 336 708 l 336 224 z "},"ï":{"ha":454,"x_min":29,"x_max":432,"o":"m 117 1043 q 180 1013 156 1043 q 204 938 204 982 q 179 863 204 893 q 117 833 154 833 q 54 863 79 833 q 29 938 29 893 q 55 1012 29 981 q 117 1043 81 1043 m 346 1043 q 408 1013 385 1043 q 432 938 432 982 q 407 863 432 893 q 344 833 382 833 q 282 863 307 833 q 257 938 257 893 q 283 1012 257 981 q 346 1043 308 1043 m 336 224 q 331 101 336 157 q 421 106 375 106 l 421 0 l 57 0 l 57 90 q 124 119 110 90 q 139 214 139 149 l 139 444 q 144 565 139 510 l 47 561 l 47 667 q 189 679 135 667 q 261 708 243 692 l 336 708 l 336 224 z "},"ì":{"ha":454,"x_min":19,"x_max":421,"o":"m 19 0 m 336 224 q 331 101 336 157 q 421 106 375 106 l 421 0 l 57 0 l 57 90 q 124 119 110 90 q 139 214 139 149 l 139 444 q 144 565 139 510 l 47 561 l 47 667 q 189 679 135 667 q 261 708 243 692 l 336 708 l 336 224 m 46 1069 q 93 1086 67 1086 q 139 1072 117 1086 q 175 1036 161 1058 l 289 842 l 225 785 l 57 932 q 30 969 40 949 q 19 1011 19 990 q 46 1069 19 1044 z "},"ī":{"ha":454,"x_min":21,"x_max":421,"o":"m 21 0 m 336 224 q 331 101 336 157 q 421 106 375 106 l 421 0 l 57 0 l 57 90 q 124 119 110 90 q 139 214 139 149 l 139 444 q 144 565 139 510 l 47 561 l 47 667 q 189 679 135 667 q 261 708 243 692 l 336 708 l 336 224 m 21 871 l 21 1004 l 415 1004 l 415 876 l 21 871 z "},"į":{"ha":454,"x_min":47,"x_max":439,"o":"m 244 757 q 169 786 199 757 q 140 858 140 815 q 171 933 140 901 q 243 964 201 964 q 315 933 286 964 q 344 858 344 903 q 317 786 344 815 q 244 757 289 757 m 439 -261 q 353 -339 401 -310 q 256 -368 304 -368 q 147 -331 188 -368 q 106 -225 106 -294 q 151 -103 106 -162 q 272 0 197 -44 l 57 0 l 57 82 q 121 108 107 82 q 135 194 135 135 l 135 404 q 140 514 135 464 l 47 510 l 47 606 q 183 617 131 606 q 253 644 236 629 l 325 644 l 325 203 q 319 92 325 143 q 407 96 361 96 l 407 60 l 419 64 l 419 0 q 295 -80 347 -31 q 243 -183 243 -129 q 259 -226 243 -210 q 304 -242 275 -242 q 390 -201 346 -242 l 439 -261 z "},"j":{"ha":392,"x_min":-122,"x_max":318,"o":"m 217 964 q 289 933 260 964 q 318 858 318 903 q 290 786 318 815 q 218 757 263 757 q 143 786 172 757 q 114 858 114 815 q 144 933 114 901 q 217 964 175 964 m 306 3 q 228 -253 306 -165 q 24 -342 150 -342 q -85 -311 -47 -342 q -122 -239 -122 -281 q -105 -185 -122 -208 q -57 -156 -87 -161 q -35 -153 -43 -153 q 22 -174 0 -153 q 43 -226 43 -194 q 40 -249 43 -232 q 51 -253 44 -251 q 64 -254 58 -254 q 108 -226 96 -254 q 119 -160 119 -197 l 115 404 q 121 514 115 464 l 28 510 l 28 606 q 165 617 113 606 q 233 644 217 629 l 306 644 l 306 3 z "},"k":{"ha":797,"x_min":26,"x_max":772,"o":"m 369 378 l 465 482 q 518 535 504 524 l 518 536 l 447 535 l 447 632 l 747 632 l 747 550 q 639 517 683 543 q 558 451 594 490 l 472 361 l 472 360 q 513 333 493 350 q 560 282 532 315 l 649 171 q 709 106 682 131 q 772 82 736 82 l 772 0 l 618 0 q 547 24 578 0 q 469 110 517 49 q 374 239 433 156 l 336 289 l 306 288 l 306 203 q 300 92 306 143 q 386 96 342 96 l 386 0 l 35 0 l 35 82 q 101 109 86 82 q 115 194 115 136 l 115 714 q 121 824 115 774 l 26 819 l 26 915 q 163 927 110 915 q 232 953 215 939 l 306 953 l 306 378 l 369 378 z "},"ķ":{"ha":797,"x_min":26,"x_max":772,"o":"m 26 0 m 369 378 l 465 482 q 518 535 504 524 l 518 536 l 447 535 l 447 632 l 747 632 l 747 550 q 639 517 683 543 q 558 451 594 490 l 472 361 l 472 360 q 513 333 493 350 q 560 282 532 315 l 649 171 q 709 106 682 131 q 772 82 736 82 l 772 0 l 618 0 q 547 24 578 0 q 469 110 517 49 q 374 239 433 156 l 336 289 l 306 288 l 306 203 q 300 92 306 143 q 386 96 342 96 l 386 0 l 35 0 l 35 82 q 101 109 86 82 q 115 194 115 136 l 115 714 q 121 824 115 774 l 26 819 l 26 915 q 163 927 110 915 q 232 953 215 939 l 306 953 l 306 378 l 369 378 m 515 -50 q 544 -150 544 -99 q 508 -272 544 -210 q 407 -394 471 -335 l 344 -346 q 389 -249 375 -293 q 403 -162 403 -206 q 390 -75 403 -121 l 515 -50 z "},"l":{"ha":419,"x_min":25,"x_max":385,"o":"m 303 203 q 299 92 303 150 q 385 96 343 96 l 385 0 l 35 0 l 35 82 q 100 108 86 82 q 114 194 114 135 l 114 714 q 119 824 114 774 l 25 819 l 25 915 q 162 927 110 915 q 231 953 214 939 l 303 953 l 303 203 z "},"ĺ":{"ha":419,"x_min":25,"x_max":385,"o":"m 25 0 m 303 203 q 299 92 303 150 q 385 96 343 96 l 385 0 l 35 0 l 35 82 q 100 108 86 82 q 114 194 114 135 l 114 714 q 119 824 114 774 l 25 819 l 25 915 q 162 927 110 915 q 231 953 214 939 l 303 953 l 303 203 m 319 1258 q 344 1201 344 1235 q 334 1158 344 1181 q 307 1121 324 1136 l 139 974 l 75 1031 l 189 1225 q 226 1262 204 1249 q 272 1275 249 1275 q 319 1258 297 1275 z "},"ľ":{"ha":550,"x_min":25,"x_max":561,"o":"m 542 1053 q 561 983 561 1014 q 526 858 561 922 q 435 740 490 794 l 381 781 q 435 967 435 879 q 418 1076 435 1014 l 542 1053 m 303 203 q 299 92 303 150 q 385 96 343 96 l 385 0 l 35 0 l 35 82 q 100 108 86 82 q 114 194 114 135 l 114 714 q 119 824 114 774 l 25 819 l 25 915 q 162 927 110 915 q 231 953 214 939 l 303 953 l 303 203 z "},"ļ":{"ha":419,"x_min":25,"x_max":385,"o":"m 25 0 m 303 203 q 299 92 303 150 q 385 96 343 96 l 385 0 l 35 0 l 35 82 q 100 108 86 82 q 114 194 114 135 l 114 714 q 119 824 114 774 l 25 819 l 25 915 q 162 927 110 915 q 231 953 214 939 l 303 953 l 303 203 m 324 -50 q 353 -150 353 -99 q 316 -272 353 -210 q 215 -394 279 -335 l 153 -346 q 197 -249 183 -293 q 211 -162 211 -206 q 199 -75 211 -121 l 324 -50 z "},"ł":{"ha":446,"x_min":24,"x_max":411,"o":"m 411 682 l 411 529 l 322 465 l 322 224 q 318 101 322 164 q 407 106 363 106 l 407 0 l 43 0 l 43 90 q 111 119 96 90 q 126 214 126 149 l 126 325 l 24 251 l 24 408 l 126 481 l 126 785 q 132 906 126 851 l 33 901 l 33 1007 q 176 1019 121 1007 q 247 1049 231 1032 l 322 1049 l 322 619 l 411 682 z "},"m":{"ha":1233,"x_min":47,"x_max":1207,"o":"m 906 651 q 1071 591 1017 651 q 1125 389 1125 531 l 1125 203 q 1119 92 1125 143 q 1207 96 1161 96 l 1207 0 l 868 0 l 868 82 q 922 109 910 82 q 935 194 935 136 l 935 388 q 908 499 933 465 q 833 535 882 532 q 714 493 771 535 q 726 372 726 442 l 726 203 q 721 92 726 143 q 808 96 763 96 l 808 0 l 463 0 l 463 82 q 523 109 510 82 q 536 194 536 136 l 535 392 q 510 503 535 471 q 439 535 486 535 q 325 489 379 535 l 325 203 q 319 92 325 143 q 400 96 361 96 l 400 0 l 57 0 l 57 82 q 121 108 107 82 q 135 194 135 135 l 135 407 q 140 514 135 464 l 47 510 l 47 606 q 183 617 131 606 q 253 644 236 629 l 318 644 q 324 581 318 642 l 326 581 q 420 631 368 611 q 522 651 472 651 q 688 568 640 651 q 794 628 736 606 q 906 651 853 651 z "},"n":{"ha":853,"x_min":47,"x_max":826,"o":"m 518 651 q 692 585 640 651 q 744 372 744 519 l 744 203 q 739 92 744 143 q 826 96 783 96 l 826 0 l 476 0 l 476 82 q 542 108 528 82 q 556 194 556 135 l 554 374 q 529 496 554 457 q 446 535 504 535 q 381 522 415 535 q 325 489 347 508 l 325 203 q 319 92 325 143 q 407 96 361 96 l 407 0 l 56 0 l 56 82 q 120 109 106 82 q 135 194 135 136 l 135 407 q 140 514 135 464 l 47 510 l 47 606 q 183 617 131 606 q 253 644 235 629 l 318 644 q 324 581 318 642 l 326 581 q 422 631 365 610 q 518 651 478 651 z "},"ń":{"ha":853,"x_min":47,"x_max":826,"o":"m 47 0 m 518 651 q 692 585 640 651 q 744 372 744 519 l 744 203 q 739 92 744 143 q 826 96 783 96 l 826 0 l 476 0 l 476 82 q 542 108 528 82 q 556 194 556 135 l 554 374 q 529 496 554 457 q 446 535 504 535 q 381 522 415 535 q 325 489 347 508 l 325 203 q 319 92 325 143 q 407 96 361 96 l 407 0 l 56 0 l 56 82 q 120 109 106 82 q 135 194 135 136 l 135 407 q 140 514 135 464 l 47 510 l 47 606 q 183 617 131 606 q 253 644 235 629 l 318 644 q 324 581 318 642 l 326 581 q 422 631 365 610 q 518 651 478 651 m 571 1007 q 596 950 596 983 q 585 907 596 929 q 558 869 575 885 l 390 722 l 326 779 l 440 974 q 478 1010 456 997 q 524 1024 500 1024 q 571 1007 549 1024 z "},"ň":{"ha":853,"x_min":47,"x_max":826,"o":"m 47 0 m 518 651 q 692 585 640 651 q 744 372 744 519 l 744 203 q 739 92 744 143 q 826 96 783 96 l 826 0 l 476 0 l 476 82 q 542 108 528 82 q 556 194 556 135 l 554 374 q 529 496 554 457 q 446 535 504 535 q 381 522 415 535 q 325 489 347 508 l 325 203 q 319 92 325 143 q 407 96 361 96 l 407 0 l 56 0 l 56 82 q 120 109 106 82 q 135 194 135 136 l 135 407 q 140 514 135 464 l 47 510 l 47 606 q 183 617 131 606 q 253 644 235 629 l 318 644 q 324 581 318 642 l 326 581 q 422 631 365 610 q 518 651 478 651 m 467 711 l 451 711 l 226 946 l 286 1017 l 465 871 l 467 871 l 635 1017 l 693 950 l 467 711 z "},"ņ":{"ha":853,"x_min":47,"x_max":826,"o":"m 47 0 m 518 651 q 692 585 640 651 q 744 372 744 519 l 744 203 q 739 92 744 143 q 826 96 783 96 l 826 0 l 476 0 l 476 82 q 542 108 528 82 q 556 194 556 135 l 554 374 q 529 496 554 457 q 446 535 504 535 q 381 522 415 535 q 325 489 347 508 l 325 203 q 319 92 325 143 q 407 96 361 96 l 407 0 l 56 0 l 56 82 q 120 109 106 82 q 135 194 135 136 l 135 407 q 140 514 135 464 l 47 510 l 47 606 q 183 617 131 606 q 253 644 235 629 l 318 644 q 324 581 318 642 l 326 581 q 422 631 365 610 q 518 651 478 651 m 542 -50 q 571 -150 571 -99 q 534 -272 571 -210 q 433 -394 497 -335 l 371 -346 q 415 -249 401 -293 q 429 -162 429 -206 q 417 -75 429 -121 l 542 -50 z "},"ñ":{"ha":853,"x_min":47,"x_max":826,"o":"m 47 0 m 518 651 q 692 585 640 651 q 744 372 744 519 l 744 203 q 739 92 744 143 q 826 96 783 96 l 826 0 l 476 0 l 476 82 q 542 108 528 82 q 556 194 556 135 l 554 374 q 529 496 554 457 q 446 535 504 535 q 381 522 415 535 q 325 489 347 508 l 325 203 q 319 92 325 143 q 407 96 361 96 l 407 0 l 56 0 l 56 82 q 120 109 106 82 q 135 194 135 136 l 135 407 q 140 514 135 464 l 47 510 l 47 606 q 183 617 131 606 q 253 644 235 629 l 318 644 q 324 581 318 642 l 326 581 q 422 631 365 610 q 518 651 478 651 m 710 943 q 636 822 682 863 q 544 781 590 781 q 497 788 518 781 q 447 811 475 796 q 409 829 424 824 q 376 835 394 835 q 333 822 356 835 q 290 778 310 808 l 213 824 q 281 926 235 886 q 375 967 328 967 q 426 959 406 967 q 471 938 447 951 q 508 919 492 925 q 544 914 524 914 q 590 932 568 914 q 631 983 613 950 l 710 943 z "},"o":{"ha":761,"x_min":43,"x_max":718,"o":"m 381 651 q 553 612 476 651 q 674 499 631 572 q 718 326 718 425 q 676 144 718 222 q 558 22 633 65 q 385 -21 482 -21 q 210 19 288 -21 q 88 131 132 58 q 43 301 43 204 q 89 483 43 404 q 212 607 135 563 q 381 651 289 651 m 381 563 q 274 497 307 563 q 240 336 240 432 q 276 148 240 226 q 388 69 313 69 q 519 296 519 69 q 486 483 519 404 q 381 563 453 563 z "},"ó":{"ha":761,"x_min":43,"x_max":718,"o":"m 43 0 m 381 651 q 553 612 476 651 q 674 499 631 572 q 718 326 718 425 q 676 144 718 222 q 558 22 633 65 q 385 -21 482 -21 q 210 19 288 -21 q 88 131 132 58 q 43 301 43 204 q 89 483 43 404 q 212 607 135 563 q 381 651 289 651 m 381 563 q 274 497 307 563 q 240 336 240 432 q 276 148 240 226 q 388 69 313 69 q 519 296 519 69 q 486 483 519 404 q 381 563 453 563 m 490 1007 q 515 950 515 983 q 505 907 515 929 q 478 869 494 885 l 310 722 l 246 779 l 360 974 q 397 1010 375 997 q 443 1024 419 1024 q 490 1007 468 1024 z "},"ô":{"ha":761,"x_min":43,"x_max":718,"o":"m 43 0 m 381 651 q 553 612 476 651 q 674 499 631 572 q 718 326 718 425 q 676 144 718 222 q 558 22 633 65 q 385 -21 482 -21 q 210 19 288 -21 q 88 131 132 58 q 43 301 43 204 q 89 483 43 404 q 212 607 135 563 q 381 651 289 651 m 381 563 q 274 497 307 563 q 240 336 240 432 q 276 148 240 226 q 388 69 313 69 q 519 296 519 69 q 486 483 519 404 q 381 563 453 563 m 557 718 l 381 864 l 379 864 l 201 728 l 143 794 l 381 1025 l 394 1025 l 617 789 l 557 718 z "},"ö":{"ha":761,"x_min":43,"x_max":718,"o":"m 43 0 m 381 651 q 553 612 476 651 q 674 499 631 572 q 718 326 718 425 q 676 144 718 222 q 558 22 633 65 q 385 -21 482 -21 q 210 19 288 -21 q 88 131 132 58 q 43 301 43 204 q 89 483 43 404 q 212 607 135 563 q 381 651 289 651 m 381 563 q 274 497 307 563 q 240 336 240 432 q 276 148 240 226 q 388 69 313 69 q 519 296 519 69 q 486 483 519 404 q 381 563 453 563 m 261 981 q 326 949 300 981 q 353 875 353 918 q 325 801 353 832 q 260 771 297 771 q 195 801 222 771 q 168 875 168 832 q 196 949 168 918 q 261 981 224 981 m 503 981 q 568 949 542 981 q 594 875 594 918 q 567 801 594 832 q 501 771 539 771 q 437 801 464 771 q 410 875 410 832 q 438 949 410 918 q 503 981 465 981 z "},"ò":{"ha":761,"x_min":43,"x_max":718,"o":"m 43 0 m 381 651 q 553 612 476 651 q 674 499 631 572 q 718 326 718 425 q 676 144 718 222 q 558 22 633 65 q 385 -21 482 -21 q 210 19 288 -21 q 88 131 132 58 q 43 301 43 204 q 89 483 43 404 q 212 607 135 563 q 381 651 289 651 m 381 563 q 274 497 307 563 q 240 336 240 432 q 276 148 240 226 q 388 69 313 69 q 519 296 519 69 q 486 483 519 404 q 381 563 453 563 m 272 1007 q 319 1024 293 1024 q 365 1010 343 1024 q 401 974 388 996 l 515 779 l 451 722 l 283 869 q 256 907 267 886 q 246 949 246 928 q 272 1007 246 982 z "},"ő":{"ha":761,"x_min":43,"x_max":718,"o":"m 43 0 m 381 651 q 553 612 476 651 q 674 499 631 572 q 718 326 718 425 q 676 144 718 222 q 558 22 633 65 q 385 -21 482 -21 q 210 19 288 -21 q 88 131 132 58 q 43 301 43 204 q 89 483 43 404 q 212 607 135 563 q 381 651 289 651 m 381 563 q 274 497 307 563 q 240 336 240 432 q 276 148 240 226 q 388 69 313 69 q 519 296 519 69 q 486 483 519 404 q 381 563 453 563 m 381 1039 q 410 985 410 1021 q 401 944 410 965 q 379 906 393 924 l 240 732 l 169 779 l 260 969 q 301 1025 276 1003 q 351 1047 326 1047 q 381 1039 365 1047 m 649 1006 q 664 967 664 989 q 646 919 664 943 q 603 876 628 894 l 424 744 l 369 810 l 507 969 q 556 1010 529 996 q 606 1025 582 1025 q 649 1006 632 1025 z "},"ō":{"ha":761,"x_min":43,"x_max":718,"o":"m 43 0 m 381 651 q 553 612 476 651 q 674 499 631 572 q 718 326 718 425 q 676 144 718 222 q 558 22 633 65 q 385 -21 482 -21 q 210 19 288 -21 q 88 131 132 58 q 43 301 43 204 q 89 483 43 404 q 212 607 135 563 q 381 651 289 651 m 381 563 q 274 497 307 563 q 240 336 240 432 q 276 148 240 226 q 388 69 313 69 q 519 296 519 69 q 486 483 519 404 q 381 563 453 563 m 183 808 l 183 942 l 578 942 l 578 814 l 183 808 z "},"ø":{"ha":786,"x_min":43,"x_max":743,"o":"m 639 625 q 715 510 688 578 q 743 360 743 442 q 699 158 743 244 q 577 25 656 72 q 397 -22 499 -22 q 242 8 314 -22 l 161 -115 l 76 -50 l 150 67 q 71 181 99 114 q 43 332 43 249 q 90 532 43 444 q 217 668 138 619 q 393 717 297 717 q 547 686 474 717 l 618 797 l 711 738 l 639 625 m 390 619 q 281 546 315 618 q 247 369 247 474 q 260 238 247 292 l 261 238 l 476 576 q 390 619 444 619 m 313 118 q 399 76 350 76 q 507 147 476 76 q 538 325 538 218 q 528 453 538 394 l 526 453 l 313 118 z "},"õ":{"ha":761,"x_min":43,"x_max":718,"o":"m 43 0 m 381 651 q 553 612 476 651 q 674 499 631 572 q 718 326 718 425 q 676 144 718 222 q 558 22 633 65 q 385 -21 482 -21 q 210 19 288 -21 q 88 131 132 58 q 43 301 43 204 q 89 483 43 404 q 212 607 135 563 q 381 651 289 651 m 381 563 q 274 497 307 563 q 240 336 240 432 q 276 148 240 226 q 388 69 313 69 q 519 296 519 69 q 486 483 519 404 q 381 563 453 563 m 629 943 q 556 822 601 863 q 464 781 510 781 q 416 788 438 781 q 367 811 394 796 q 328 829 343 824 q 296 835 314 835 q 252 822 275 835 q 210 778 229 808 l 132 824 q 201 926 154 886 q 294 967 247 967 q 346 959 325 967 q 390 938 367 951 q 427 919 411 925 q 464 914 443 914 q 510 932 488 914 q 550 983 532 950 l 629 943 z "},"œ":{"ha":1233,"x_min":43,"x_max":1196,"o":"m 879 717 q 1098 636 1010 717 q 1185 374 1186 556 l 726 365 q 775 177 726 253 q 929 101 824 101 q 1033 126 978 101 q 1133 206 1089 151 l 1196 147 q 872 -22 1078 -22 q 735 6 800 -22 q 632 86 671 35 l 631 86 q 527 6 588 33 q 397 -22 467 -22 q 215 21 296 -22 q 89 144 135 64 q 43 332 43 225 q 90 532 43 444 q 217 668 138 619 q 393 717 297 717 q 537 690 482 717 q 638 604 592 663 l 640 604 q 744 688 690 660 q 879 717 797 717 m 393 619 q 282 547 317 619 q 247 369 247 475 q 285 163 247 249 q 400 76 322 76 q 538 322 538 76 q 504 528 538 436 q 393 619 471 619 m 878 619 q 783 578 818 619 q 738 463 749 536 l 993 463 q 878 619 988 619 z "},"p":{"ha":807,"x_min":33,"x_max":763,"o":"m 493 651 q 633 612 572 651 q 728 500 694 572 q 763 332 763 428 q 721 151 763 231 q 604 25 679 71 q 431 -21 529 -21 q 373 -15 399 -21 q 313 3 347 -8 l 313 -118 q 308 -229 313 -174 l 393 -226 l 393 -322 l 43 -322 l 43 -240 q 109 -213 94 -240 q 124 -128 124 -186 l 124 407 q 129 514 124 464 l 33 510 l 33 606 q 170 617 118 606 q 240 644 222 629 l 306 644 q 313 583 308 622 l 314 583 q 493 651 397 651 m 425 538 q 360 523 390 538 q 313 482 331 508 l 313 97 q 351 82 326 89 q 403 75 376 75 q 565 313 565 75 q 531 472 565 407 q 425 538 496 538 z "},"þ":{"ha":796,"x_min":-6,"x_max":751,"o":"m 286 642 q 471 717 371 717 q 617 674 554 717 q 716 551 681 631 q 751 365 751 471 q 708 166 751 254 q 587 28 665 78 q 407 -22 508 -22 q 283 3 353 -22 l 283 -131 q 278 -253 283 -197 q 368 -249 324 -249 l 368 -354 l 4 -354 l 4 -264 q 72 -235 57 -264 q 88 -140 88 -206 l 88 785 q 92 906 88 865 l -6 901 l -6 1007 q 136 1019 82 1007 q 208 1049 190 1032 l 283 1049 l 283 642 l 286 642 m 400 592 q 334 575 365 592 q 283 531 303 558 l 283 107 q 324 90 297 97 q 378 82 351 82 q 547 344 547 82 q 510 519 547 447 q 400 592 474 592 z "},"q":{"ha":768,"x_min":44,"x_max":767,"o":"m 379 651 q 518 632 443 651 q 567 624 557 624 q 592 630 578 624 q 614 644 606 636 l 686 644 l 686 -118 q 681 -229 686 -179 l 767 -226 l 767 -322 l 417 -322 l 417 -240 q 481 -213 467 -240 q 496 -128 496 -186 l 497 50 l 496 50 q 315 -21 417 -21 q 174 19 235 -21 q 78 131 113 58 q 44 299 44 203 q 86 481 44 400 q 204 606 128 561 q 379 651 281 651 m 393 560 q 278 493 314 558 q 242 331 242 428 q 276 163 242 233 q 385 93 311 93 q 449 110 418 93 q 496 153 479 126 l 496 449 q 466 536 496 513 q 393 560 436 560 z "},"r":{"ha":643,"x_min":47,"x_max":635,"o":"m 519 651 q 602 625 569 651 q 635 547 635 599 q 612 485 635 513 q 544 458 589 458 q 484 475 510 458 q 454 532 458 492 q 378 490 418 532 q 325 410 338 449 l 325 203 q 319 92 325 143 q 407 96 361 96 l 407 0 l 56 0 l 56 82 q 120 109 106 82 q 135 194 135 136 l 135 407 q 140 514 135 464 l 47 510 l 47 606 q 183 617 131 606 q 253 644 235 629 l 318 644 q 324 535 324 608 l 326 535 q 519 651 418 651 z "},"ŕ":{"ha":643,"x_min":47,"x_max":635,"o":"m 47 0 m 519 651 q 602 625 569 651 q 635 547 635 599 q 612 485 635 513 q 544 458 589 458 q 484 475 510 458 q 454 532 458 492 q 378 490 418 532 q 325 410 338 449 l 325 203 q 319 92 325 143 q 407 96 361 96 l 407 0 l 56 0 l 56 82 q 120 109 106 82 q 135 194 135 136 l 135 407 q 140 514 135 464 l 47 510 l 47 606 q 183 617 131 606 q 253 644 235 629 l 318 644 q 324 535 324 608 l 326 535 q 519 651 418 651 m 496 1007 q 521 950 521 983 q 510 907 521 929 q 483 869 500 885 l 315 722 l 251 779 l 365 974 q 403 1010 381 997 q 449 1024 425 1024 q 496 1007 474 1024 z "},"ř":{"ha":643,"x_min":47,"x_max":635,"o":"m 47 0 m 519 651 q 602 625 569 651 q 635 547 635 599 q 612 485 635 513 q 544 458 589 458 q 484 475 510 458 q 454 532 458 492 q 378 490 418 532 q 325 410 338 449 l 325 203 q 319 92 325 143 q 407 96 361 96 l 407 0 l 56 0 l 56 82 q 120 109 106 82 q 135 194 135 136 l 135 407 q 140 514 135 464 l 47 510 l 47 606 q 183 617 131 606 q 253 644 235 629 l 318 644 q 324 535 324 608 l 326 535 q 519 651 418 651 m 392 711 l 376 711 l 151 946 l 211 1017 l 390 871 l 392 871 l 560 1017 l 618 950 l 392 711 z "},"ŗ":{"ha":643,"x_min":47,"x_max":635,"o":"m 47 0 m 519 651 q 602 625 569 651 q 635 547 635 599 q 612 485 635 513 q 544 458 589 458 q 484 475 510 458 q 454 532 458 492 q 378 490 418 532 q 325 410 338 449 l 325 203 q 319 92 325 143 q 407 96 361 96 l 407 0 l 56 0 l 56 82 q 120 109 106 82 q 135 194 135 136 l 135 407 q 140 514 135 464 l 47 510 l 47 606 q 183 617 131 606 q 253 644 235 629 l 318 644 q 324 535 324 608 l 326 535 q 519 651 418 651 m 385 -50 q 414 -150 414 -99 q 377 -272 414 -210 q 276 -394 340 -335 l 214 -346 q 258 -249 244 -293 q 272 -162 272 -206 q 260 -75 272 -121 l 385 -50 z "},"s":{"ha":651,"x_min":54,"x_max":607,"o":"m 306 651 q 390 640 344 651 q 465 608 435 629 l 467 608 l 465 646 l 567 646 l 567 422 l 481 422 q 419 524 468 486 q 297 563 369 563 q 234 547 260 563 q 208 496 208 531 q 240 442 208 460 q 344 404 271 425 l 372 396 q 547 308 486 358 q 607 174 607 257 q 535 30 607 81 q 364 -21 464 -21 q 251 -7 306 -21 q 165 29 197 7 l 164 29 l 168 -8 l 67 -8 l 61 208 l 149 208 q 213 110 156 150 q 356 71 271 71 q 421 87 393 71 q 449 133 449 103 q 431 172 449 157 q 389 198 414 188 q 293 233 364 208 q 166 285 210 264 q 88 346 122 306 q 54 449 54 386 q 81 547 54 500 q 165 622 108 593 q 306 651 222 651 z "},"ś":{"ha":651,"x_min":54,"x_max":607,"o":"m 54 0 m 306 651 q 390 640 344 651 q 465 608 435 629 l 467 608 l 465 646 l 567 646 l 567 422 l 481 422 q 419 524 468 486 q 297 563 369 563 q 234 547 260 563 q 208 496 208 531 q 240 442 208 460 q 344 404 271 425 l 372 396 q 547 308 486 358 q 607 174 607 257 q 535 30 607 81 q 364 -21 464 -21 q 251 -7 306 -21 q 165 29 197 7 l 164 29 l 168 -8 l 67 -8 l 61 208 l 149 208 q 213 110 156 150 q 356 71 271 71 q 421 87 393 71 q 449 133 449 103 q 431 172 449 157 q 389 198 414 188 q 293 233 364 208 q 166 285 210 264 q 88 346 122 306 q 54 449 54 386 q 81 547 54 500 q 165 622 108 593 q 306 651 222 651 m 425 1007 q 450 950 450 983 q 440 907 450 929 q 413 869 429 885 l 244 722 l 181 779 l 294 974 q 332 1010 310 997 q 378 1024 354 1024 q 425 1007 403 1024 z "},"š":{"ha":651,"x_min":54,"x_max":607,"o":"m 54 0 m 306 651 q 390 640 344 651 q 465 608 435 629 l 467 608 l 465 646 l 567 646 l 567 422 l 481 422 q 419 524 468 486 q 297 563 369 563 q 234 547 260 563 q 208 496 208 531 q 240 442 208 460 q 344 404 271 425 l 372 396 q 547 308 486 358 q 607 174 607 257 q 535 30 607 81 q 364 -21 464 -21 q 251 -7 306 -21 q 165 29 197 7 l 164 29 l 168 -8 l 67 -8 l 61 208 l 149 208 q 213 110 156 150 q 356 71 271 71 q 421 87 393 71 q 449 133 449 103 q 431 172 449 157 q 389 198 414 188 q 293 233 364 208 q 166 285 210 264 q 88 346 122 306 q 54 449 54 386 q 81 547 54 500 q 165 622 108 593 q 306 651 222 651 m 321 711 l 306 711 l 81 946 l 140 1017 l 319 871 l 321 871 l 489 1017 l 547 950 l 321 711 z "},"ş":{"ha":651,"x_min":54,"x_max":607,"o":"m 458 -74 q 532 -99 504 -75 q 560 -171 560 -124 q 463 -299 560 -256 q 244 -360 365 -343 l 233 -287 q 349 -256 299 -275 q 400 -200 400 -236 q 389 -174 400 -182 q 361 -165 378 -165 q 332 -171 347 -165 q 306 -185 317 -176 l 254 -162 l 290 -15 q 165 29 210 -3 l 164 29 l 168 -8 l 67 -8 l 61 208 l 149 208 q 213 110 156 150 q 356 71 271 71 q 421 87 393 71 q 449 133 449 103 q 431 172 449 157 q 389 198 414 188 q 293 233 364 208 q 166 285 210 264 q 88 346 122 306 q 54 449 54 386 q 81 547 54 500 q 165 622 108 593 q 306 651 222 651 q 390 640 344 651 q 465 608 435 629 l 467 608 l 465 646 l 567 646 l 567 422 l 481 422 q 419 524 468 486 q 297 563 369 563 q 234 547 260 563 q 208 496 208 531 q 240 442 208 460 q 344 404 271 425 l 372 396 q 547 308 486 358 q 607 174 607 257 q 544 38 607 88 q 390 -19 482 -12 l 363 -96 l 364 -96 q 410 -81 381 -87 q 458 -74 439 -74 z "},"ș":{"ha":651,"x_min":54,"x_max":607,"o":"m 54 0 m 306 651 q 390 640 344 651 q 465 608 435 629 l 467 608 l 465 646 l 567 646 l 567 422 l 481 422 q 419 524 468 486 q 297 563 369 563 q 234 547 260 563 q 208 496 208 531 q 240 442 208 460 q 344 404 271 425 l 372 396 q 547 308 486 358 q 607 174 607 257 q 535 30 607 81 q 364 -21 464 -21 q 251 -7 306 -21 q 165 29 197 7 l 164 29 l 168 -8 l 67 -8 l 61 208 l 149 208 q 213 110 156 150 q 356 71 271 71 q 421 87 393 71 q 449 133 449 103 q 431 172 449 157 q 389 198 414 188 q 293 233 364 208 q 166 285 210 264 q 88 346 122 306 q 54 449 54 386 q 81 547 54 500 q 165 622 108 593 q 306 651 222 651 m 399 -50 q 428 -150 428 -99 q 391 -272 428 -210 q 290 -394 354 -335 l 228 -346 q 272 -249 258 -293 q 286 -162 286 -206 q 274 -75 286 -121 l 399 -50 z "},"ß":{"ha":1071,"x_min":42,"x_max":1051,"o":"m 521 1049 q 759 978 647 1049 q 871 692 871 908 q 867 617 871 657 q 813 619 831 619 q 671 546 672 619 q 701 488 671 507 q 814 439 731 468 q 990 342 928 400 q 1051 192 1051 283 q 981 33 1051 89 q 806 -22 910 -22 q 628 32 701 -22 l 626 32 l 631 -10 l 525 -10 l 519 229 l 608 229 q 664 120 615 163 q 797 78 713 78 q 858 97 831 78 q 886 146 886 115 q 853 206 886 183 q 732 263 821 229 q 613 317 657 292 q 539 385 568 342 q 510 500 510 429 q 553 635 510 576 q 686 711 597 693 q 517 944 685 944 q 390 884 440 944 q 339 676 339 824 l 339 226 q 333 101 339 157 q 431 106 378 106 l 431 0 l 58 0 l 58 90 q 126 119 111 90 q 142 214 142 149 l 142 582 l 42 579 l 42 694 l 144 694 q 259 968 160 888 q 521 1049 358 1049 z "},"t":{"ha":553,"x_min":24,"x_max":569,"o":"m 474 632 l 474 535 l 304 531 l 303 219 q 383 97 303 97 q 506 174 447 97 l 569 117 q 444 4 507 29 q 321 -21 381 -21 q 113 222 113 -21 l 115 526 l 24 526 l 24 632 q 138 682 86 632 q 207 789 189 732 l 306 789 l 304 632 l 474 632 z "},"ť":{"ha":553,"x_min":24,"x_max":569,"o":"m 550 1081 q 569 1011 569 1042 q 534 886 569 950 q 443 768 499 822 l 389 808 q 443 994 443 907 q 426 1104 443 1042 l 550 1081 m 474 632 l 474 535 l 304 531 l 303 219 q 383 97 303 97 q 506 174 447 97 l 569 117 q 444 4 507 29 q 321 -21 381 -21 q 113 222 113 -21 l 115 526 l 24 526 l 24 632 q 138 682 86 632 q 207 789 189 732 l 306 789 l 304 632 l 474 632 z "},"u":{"ha":828,"x_min":21,"x_max":794,"o":"m 714 203 q 708 92 714 143 q 794 96 750 96 l 794 0 l 540 0 l 533 65 l 532 65 q 436 1 482 24 q 332 -21 390 -21 q 161 45 213 -21 q 110 258 110 111 l 110 404 q 114 514 110 458 l 21 510 l 21 606 q 158 617 106 606 q 226 644 210 629 l 300 644 l 300 257 q 323 135 300 174 q 396 96 346 96 q 464 113 428 96 q 524 157 500 131 l 524 404 q 529 514 524 464 l 435 510 l 435 606 q 570 617 518 606 q 640 644 622 629 l 714 644 l 714 203 z "},"ú":{"ha":828,"x_min":21,"x_max":794,"o":"m 21 0 m 714 203 q 708 92 714 143 q 794 96 750 96 l 794 0 l 540 0 l 533 65 l 532 65 q 436 1 482 24 q 332 -21 390 -21 q 161 45 213 -21 q 110 258 110 111 l 110 404 q 114 514 110 458 l 21 510 l 21 606 q 158 617 106 606 q 226 644 210 629 l 300 644 l 300 257 q 323 135 300 174 q 396 96 346 96 q 464 113 428 96 q 524 157 500 131 l 524 404 q 529 514 524 464 l 435 510 l 435 606 q 570 617 518 606 q 640 644 622 629 l 714 644 l 714 203 m 519 1007 q 544 950 544 983 q 534 907 544 929 q 507 869 524 885 l 339 722 l 275 779 l 389 974 q 426 1010 404 997 q 472 1024 449 1024 q 519 1007 497 1024 z "},"û":{"ha":828,"x_min":21,"x_max":794,"o":"m 21 0 m 714 203 q 708 92 714 143 q 794 96 750 96 l 794 0 l 540 0 l 533 65 l 532 65 q 436 1 482 24 q 332 -21 390 -21 q 161 45 213 -21 q 110 258 110 111 l 110 404 q 114 514 110 458 l 21 510 l 21 606 q 158 617 106 606 q 226 644 210 629 l 300 644 l 300 257 q 323 135 300 174 q 396 96 346 96 q 464 113 428 96 q 524 157 500 131 l 524 404 q 529 514 524 464 l 435 510 l 435 606 q 570 617 518 606 q 640 644 622 629 l 714 644 l 714 203 m 586 718 l 410 864 l 408 864 l 231 728 l 172 794 l 410 1025 l 424 1025 l 646 789 l 586 718 z "},"ü":{"ha":828,"x_min":21,"x_max":794,"o":"m 21 0 m 714 203 q 708 92 714 143 q 794 96 750 96 l 794 0 l 540 0 l 533 65 l 532 65 q 436 1 482 24 q 332 -21 390 -21 q 161 45 213 -21 q 110 258 110 111 l 110 404 q 114 514 110 458 l 21 510 l 21 606 q 158 617 106 606 q 226 644 210 629 l 300 644 l 300 257 q 323 135 300 174 q 396 96 346 96 q 464 113 428 96 q 524 157 500 131 l 524 404 q 529 514 524 464 l 435 510 l 435 606 q 570 617 518 606 q 640 644 622 629 l 714 644 l 714 203 m 290 981 q 356 949 329 981 q 382 875 382 918 q 354 801 382 832 q 289 771 326 771 q 224 801 251 771 q 197 875 197 832 q 225 949 197 918 q 290 981 253 981 m 532 981 q 597 949 571 981 q 624 875 624 918 q 596 801 624 832 q 531 771 568 771 q 466 801 493 771 q 439 875 439 832 q 467 949 439 918 q 532 981 494 981 z "},"ù":{"ha":828,"x_min":21,"x_max":794,"o":"m 21 0 m 714 203 q 708 92 714 143 q 794 96 750 96 l 794 0 l 540 0 l 533 65 l 532 65 q 436 1 482 24 q 332 -21 390 -21 q 161 45 213 -21 q 110 258 110 111 l 110 404 q 114 514 110 458 l 21 510 l 21 606 q 158 617 106 606 q 226 644 210 629 l 300 644 l 300 257 q 323 135 300 174 q 396 96 346 96 q 464 113 428 96 q 524 157 500 131 l 524 404 q 529 514 524 464 l 435 510 l 435 606 q 570 617 518 606 q 640 644 622 629 l 714 644 l 714 203 m 301 1007 q 349 1024 322 1024 q 394 1010 372 1024 q 431 974 417 996 l 544 779 l 481 722 l 313 869 q 285 907 296 886 q 275 949 275 928 q 301 1007 275 982 z "},"ű":{"ha":828,"x_min":21,"x_max":794,"o":"m 21 0 m 714 203 q 708 92 714 143 q 794 96 750 96 l 794 0 l 540 0 l 533 65 l 532 65 q 436 1 482 24 q 332 -21 390 -21 q 161 45 213 -21 q 110 258 110 111 l 110 404 q 114 514 110 458 l 21 510 l 21 606 q 158 617 106 606 q 226 644 210 629 l 300 644 l 300 257 q 323 135 300 174 q 396 96 346 96 q 464 113 428 96 q 524 157 500 131 l 524 404 q 529 514 524 464 l 435 510 l 435 606 q 570 617 518 606 q 640 644 622 629 l 714 644 l 714 203 m 410 1039 q 439 985 439 1021 q 431 944 439 965 q 408 906 422 924 l 269 732 l 199 779 l 289 969 q 331 1025 306 1003 q 381 1047 356 1047 q 410 1039 394 1047 m 678 1006 q 693 967 693 989 q 675 919 693 943 q 632 876 657 894 l 453 744 l 399 810 l 536 969 q 585 1010 558 996 q 635 1025 611 1025 q 678 1006 661 1025 z "},"ū":{"ha":828,"x_min":21,"x_max":794,"o":"m 21 0 m 714 203 q 708 92 714 143 q 794 96 750 96 l 794 0 l 540 0 l 533 65 l 532 65 q 436 1 482 24 q 332 -21 390 -21 q 161 45 213 -21 q 110 258 110 111 l 110 404 q 114 514 110 458 l 21 510 l 21 606 q 158 617 106 606 q 226 644 210 629 l 300 644 l 300 257 q 323 135 300 174 q 396 96 346 96 q 464 113 428 96 q 524 157 500 131 l 524 404 q 529 514 524 464 l 435 510 l 435 606 q 570 617 518 606 q 640 644 622 629 l 714 644 l 714 203 m 213 808 l 213 942 l 607 942 l 607 814 l 213 808 z "},"ų":{"ha":828,"x_min":21,"x_max":813,"o":"m 813 -262 q 726 -340 775 -311 q 629 -369 678 -369 q 520 -333 561 -369 q 479 -226 479 -296 q 526 -103 479 -162 q 649 0 572 -44 l 540 0 l 533 65 l 532 65 q 436 1 482 24 q 332 -21 390 -21 q 161 45 213 -21 q 110 258 110 111 l 110 404 q 114 514 110 458 l 21 510 l 21 606 q 158 617 106 606 q 226 644 210 629 l 300 644 l 300 257 q 323 135 300 174 q 396 96 346 96 q 464 113 428 96 q 524 157 500 131 l 524 404 q 529 514 524 464 l 435 510 l 435 606 q 570 617 518 606 q 640 644 622 629 l 714 644 l 714 203 q 708 92 714 143 q 794 96 750 96 l 794 0 l 793 0 l 793 -1 q 669 -81 721 -32 q 617 -185 617 -131 q 633 -227 617 -211 q 678 -243 649 -243 q 764 -203 719 -243 l 813 -262 z "},"ů":{"ha":828,"x_min":21,"x_max":794,"o":"m 21 0 m 714 203 q 708 92 714 143 q 794 96 750 96 l 794 0 l 540 0 l 533 65 l 532 65 q 436 1 482 24 q 332 -21 390 -21 q 161 45 213 -21 q 110 258 110 111 l 110 404 q 114 514 110 458 l 21 510 l 21 606 q 158 617 106 606 q 226 644 210 629 l 300 644 l 300 257 q 323 135 300 174 q 396 96 346 96 q 464 113 428 96 q 524 157 500 131 l 524 404 q 529 514 524 464 l 435 510 l 435 606 q 570 617 518 606 q 640 644 622 629 l 714 644 l 714 203 m 410 1042 q 524 1001 475 1042 q 574 883 574 960 q 550 798 574 835 q 489 740 526 761 q 411 719 451 719 q 333 738 371 719 q 270 794 294 757 q 246 879 246 831 q 269 962 246 925 q 329 1020 292 999 q 410 1042 367 1042 m 408 958 q 375 940 389 957 q 361 892 361 924 q 376 826 361 849 q 418 804 392 804 q 451 823 438 806 q 464 871 464 840 q 449 937 464 915 q 408 958 433 958 z "},"v":{"ha":719,"x_min":8,"x_max":715,"o":"m 715 550 q 644 500 674 543 q 592 399 615 457 l 419 -4 l 304 -4 l 92 435 q 69 485 75 468 q 61 516 64 503 q 57 538 58 529 l 8 535 l 8 632 l 321 632 l 321 550 q 276 508 276 549 q 289 451 276 483 l 401 190 l 403 190 l 500 451 q 544 539 521 504 l 544 540 l 461 535 l 461 632 l 715 632 l 715 550 z "},"w":{"ha":1085,"x_min":11,"x_max":1081,"o":"m 1081 550 q 1007 508 1035 550 q 960 414 979 465 l 808 -4 l 667 -4 l 574 265 q 526 421 561 301 l 525 421 q 497 309 517 375 q 464 204 478 243 l 390 -4 l 258 -4 l 96 435 q 74 496 82 474 q 63 538 67 518 l 11 535 l 11 632 l 332 632 l 332 550 q 281 499 281 549 q 288 451 281 479 l 333 299 q 361 178 350 243 l 363 178 q 374 226 365 189 q 397 314 382 264 l 494 632 l 640 632 l 747 283 q 779 169 765 224 l 781 169 q 813 279 786 206 l 864 439 q 878 481 867 449 q 903 539 889 514 l 903 540 l 826 535 l 826 632 l 1081 632 l 1081 550 z "},"x":{"ha":735,"x_min":29,"x_max":711,"o":"m 671 550 q 536 450 597 521 l 447 346 l 601 175 q 667 93 646 128 l 711 96 l 711 0 l 396 0 l 396 81 q 442 104 442 82 q 419 143 442 118 l 339 222 l 338 222 l 276 151 q 215 92 236 106 l 215 90 l 276 96 l 276 0 l 56 0 l 56 81 q 103 109 81 90 q 157 163 125 128 l 274 289 l 142 435 q 106 477 136 442 q 65 538 76 513 l 29 535 l 29 632 l 325 632 l 325 550 q 293 531 293 550 q 321 481 293 513 l 383 413 l 385 413 l 435 471 q 454 493 449 485 q 500 539 483 525 l 500 540 l 435 535 l 435 632 l 671 632 l 671 550 z "},"y":{"ha":738,"x_min":7,"x_max":732,"o":"m 732 550 q 665 505 693 542 q 614 407 636 468 l 447 -44 q 374 -218 407 -156 q 299 -311 340 -281 q 199 -342 258 -342 q 112 -313 147 -342 q 76 -239 76 -285 q 97 -183 76 -207 q 147 -153 117 -158 q 164 -151 153 -151 q 213 -171 193 -151 q 232 -222 232 -190 q 231 -239 232 -233 l 231 -240 q 288 -179 256 -240 q 344 -33 319 -118 l 133 368 q 86 467 99 431 q 68 538 74 503 l 7 535 l 7 632 l 340 632 l 340 550 q 283 500 283 544 q 297 451 283 479 l 428 169 l 429 169 l 460 260 q 514 421 507 401 q 542 492 529 463 q 569 539 554 521 l 569 540 l 494 535 l 494 632 l 732 632 l 732 550 z "},"ý":{"ha":738,"x_min":7,"x_max":732,"o":"m 7 0 m 732 550 q 665 505 693 542 q 614 407 636 468 l 447 -44 q 374 -218 407 -156 q 299 -311 340 -281 q 199 -342 258 -342 q 112 -313 147 -342 q 76 -239 76 -285 q 97 -183 76 -207 q 147 -153 117 -158 q 164 -151 153 -151 q 213 -171 193 -151 q 232 -222 232 -190 q 231 -239 232 -233 l 231 -240 q 288 -179 256 -240 q 344 -33 319 -118 l 133 368 q 86 467 99 431 q 68 538 74 503 l 7 535 l 7 632 l 340 632 l 340 550 q 283 500 283 544 q 297 451 283 479 l 428 169 l 429 169 l 460 260 q 514 421 507 401 q 542 492 529 463 q 569 539 554 521 l 569 540 l 494 535 l 494 632 l 732 632 l 732 550 m 504 1007 q 529 950 529 983 q 519 907 529 929 q 492 869 508 885 l 324 722 l 260 779 l 374 974 q 411 1010 389 997 q 457 1024 433 1024 q 504 1007 482 1024 z "},"ÿ":{"ha":738,"x_min":7,"x_max":732,"o":"m 7 0 m 732 550 q 665 505 693 542 q 614 407 636 468 l 447 -44 q 374 -218 407 -156 q 299 -311 340 -281 q 199 -342 258 -342 q 112 -313 147 -342 q 76 -239 76 -285 q 97 -183 76 -207 q 147 -153 117 -158 q 164 -151 153 -151 q 213 -171 193 -151 q 232 -222 232 -190 q 231 -239 232 -233 l 231 -240 q 288 -179 256 -240 q 344 -33 319 -118 l 133 368 q 86 467 99 431 q 68 538 74 503 l 7 535 l 7 632 l 340 632 l 340 550 q 283 500 283 544 q 297 451 283 479 l 428 169 l 429 169 l 460 260 q 514 421 507 401 q 542 492 529 463 q 569 539 554 521 l 569 540 l 494 535 l 494 632 l 732 632 l 732 550 m 275 981 q 340 949 314 981 q 367 875 367 918 q 339 801 367 832 q 274 771 311 771 q 209 801 236 771 q 182 875 182 832 q 210 949 182 918 q 275 981 238 981 m 517 981 q 582 949 556 981 q 608 875 608 918 q 581 801 608 832 q 515 771 553 771 q 451 801 478 771 q 424 875 424 832 q 451 949 424 918 q 517 981 479 981 z "},"z":{"ha":692,"x_min":49,"x_max":646,"o":"m 324 169 q 249 92 293 131 l 249 90 l 436 88 q 522 128 494 86 q 563 247 550 171 l 646 247 l 625 0 l 49 0 l 49 90 l 357 474 q 425 549 386 510 l 244 547 q 144 388 167 546 l 61 388 l 79 632 l 621 632 l 621 551 l 324 169 z "},"ź":{"ha":692,"x_min":49,"x_max":646,"o":"m 49 0 m 324 169 q 249 92 293 131 l 249 90 l 436 88 q 522 128 494 86 q 563 247 550 171 l 646 247 l 625 0 l 49 0 l 49 90 l 357 474 q 425 549 386 510 l 244 547 q 144 388 167 546 l 61 388 l 79 632 l 621 632 l 621 551 l 324 169 m 469 1007 q 494 950 494 983 q 484 907 494 929 q 457 869 474 885 l 289 722 l 225 779 l 339 974 q 376 1010 354 997 q 422 1024 399 1024 q 469 1007 447 1024 z "},"ž":{"ha":692,"x_min":49,"x_max":646,"o":"m 49 0 m 324 169 q 249 92 293 131 l 249 90 l 436 88 q 522 128 494 86 q 563 247 550 171 l 646 247 l 625 0 l 49 0 l 49 90 l 357 474 q 425 549 386 510 l 244 547 q 144 388 167 546 l 61 388 l 79 632 l 621 632 l 621 551 l 324 169 m 365 711 l 350 711 l 125 946 l 185 1017 l 364 871 l 365 871 l 533 1017 l 592 950 l 365 711 z "},"ż":{"ha":692,"x_min":49,"x_max":646,"o":"m 49 0 m 324 169 q 249 92 293 131 l 249 90 l 436 88 q 522 128 494 86 q 563 247 550 171 l 646 247 l 625 0 l 49 0 l 49 90 l 357 474 q 425 549 386 510 l 244 547 q 144 388 167 546 l 61 388 l 79 632 l 621 632 l 621 551 l 324 169 m 361 983 q 435 950 406 983 q 465 869 465 917 q 437 788 465 821 q 363 756 408 756 q 285 789 315 756 q 254 869 254 822 q 286 950 254 917 q 361 983 318 983 z "},"ﬁ":{"ha":1019,"x_min":31,"x_max":1001,"o":"m 133 531 l 31 585 l 43 644 l 133 644 q 336 960 139 886 q 597 999 439 999 q 701 988 647 999 q 801 958 756 976 q 881 915 850 939 q 911 868 911 890 q 883 816 911 850 q 820 756 856 782 q 767 729 785 729 q 709 757 742 729 q 658 813 676 785 l 632 918 q 367 644 382 900 l 911 653 l 911 94 l 1001 42 l 992 0 l 579 0 l 588 50 l 678 101 l 678 508 q 617 563 657 542 l 367 532 l 367 94 l 497 60 l 488 0 l 33 0 l 44 50 l 133 101 l 133 531 z "},"ﬂ":{"ha":1007,"x_min":31,"x_max":983,"o":"m 974 0 l 561 0 l 571 50 l 661 101 l 661 806 l 632 918 q 438 838 504 911 q 367 644 371 765 l 581 644 l 572 592 l 367 532 l 367 94 l 494 43 l 485 0 l 33 0 l 44 50 l 133 101 l 133 531 l 31 585 l 43 644 l 133 644 q 258 920 133 842 q 597 999 383 999 q 654 995 622 999 q 703 986 686 992 l 893 999 l 894 94 l 983 40 l 974 0 z "},"ª":{"ha":776,"x_min":86,"x_max":710,"o":"m 261 407 q 166 431 204 407 q 109 490 128 454 q 90 564 90 526 q 112 656 90 621 q 178 713 133 692 q 364 735 236 735 q 403 732 381 735 q 431 726 425 729 q 423 834 431 794 q 393 890 415 874 q 336 907 375 907 q 317 904 328 907 l 303 817 q 263 782 286 799 q 228 765 240 765 q 183 789 213 765 q 130 842 154 813 q 106 885 106 871 q 136 913 106 897 q 201 938 167 928 q 305 957 257 951 q 422 963 353 963 q 571 921 525 963 q 617 808 617 879 l 617 529 q 650 499 631 510 q 706 482 669 488 l 694 442 q 617 417 663 428 q 526 406 572 406 q 491 460 508 439 q 453 493 474 482 q 378 434 429 461 q 261 407 328 407 m 310 518 q 322 515 313 515 q 380 519 347 515 q 431 528 413 524 l 431 672 q 335 657 369 667 q 290 638 300 647 q 282 603 282 628 q 290 553 282 579 q 310 518 299 528 m 710 332 l 688 224 q 374 211 544 215 q 86 207 203 207 l 108 332 l 710 332 z "},"º":{"ha":715,"x_min":86,"x_max":635,"o":"m 88 671 q 122 813 88 746 q 219 922 157 881 q 360 963 281 963 q 553 895 478 963 q 629 699 629 828 q 594 555 629 622 q 497 447 558 488 q 364 407 436 407 q 165 474 242 407 q 88 671 88 540 m 399 511 q 442 524 429 511 q 463 574 456 538 q 469 642 469 611 q 426 800 469 740 q 317 860 383 860 q 276 849 285 860 q 256 799 264 835 q 247 728 247 764 q 285 576 247 640 q 399 511 322 511 m 635 332 l 613 224 q 86 207 308 207 l 108 332 l 635 332 z "},"π":{"ha":1054,"x_min":47,"x_max":999,"o":"m 790 144 q 803 99 790 114 q 848 80 817 85 q 944 75 879 75 l 939 22 q 799 -10 858 0 q 686 -21 740 -21 q 585 22 613 -21 q 557 124 557 65 q 565 285 558 176 q 579 500 572 394 l 421 500 l 397 10 l 146 -12 l 207 500 l 47 500 l 86 644 l 999 644 l 963 500 l 790 500 l 790 144 z "},"क":{"ha":1126,"x_min":-28,"x_max":1154,"o":"m 890 604 q 1034 538 979 604 q 1089 349 1089 472 q 1044 181 1089 260 q 908 54 999 101 l 821 189 q 947 283 901 221 q 992 403 992 346 q 972 459 992 440 q 919 478 953 478 q 794 438 865 478 q 664 333 722 397 l 664 -75 l 483 -22 l 483 156 q 324 99 400 99 q 192 137 251 99 q 100 241 133 175 q 67 389 67 307 q 131 564 67 497 q 306 631 196 631 q 399 615 357 631 q 483 571 440 599 q 493 697 483 636 l 4 697 l -28 806 l 1124 806 l 1154 697 l 710 697 q 664 576 664 697 l 664 500 q 781 578 722 551 q 890 604 839 604 m 313 226 q 483 297 401 226 l 483 469 q 347 499 413 499 q 223 457 267 499 q 179 349 179 415 q 214 262 179 297 q 313 226 249 226 z "},"ख":{"ha":1113,"x_min":-28,"x_max":1140,"o":"m 1018 697 q 972 576 972 697 l 972 -75 l 792 -22 l 792 79 q 492 21 640 21 q 252 73 357 21 q 90 203 147 125 q 33 356 33 281 q 65 442 33 415 q 140 469 97 469 q 180 463 163 469 q 219 443 197 457 q 244 543 244 483 q 211 697 244 608 l 4 697 l -28 806 l 1110 806 l 1140 697 l 1018 697 m 792 582 q 801 697 793 632 l 321 697 q 346 538 346 608 q 304 372 346 442 q 176 271 263 301 q 307 159 229 194 q 479 124 385 124 q 792 206 628 124 l 792 246 q 650 221 717 221 q 516 249 575 221 q 423 328 457 278 q 389 446 389 379 q 447 593 389 535 q 604 651 506 651 q 703 633 654 651 q 792 582 751 614 m 792 472 q 639 526 711 526 q 566 497 597 526 q 535 413 535 467 q 561 349 535 372 q 633 325 588 325 q 792 369 706 325 l 792 472 z "},"ग":{"ha":807,"x_min":-28,"x_max":835,"o":"m 708 697 q 663 576 663 697 l 663 -75 l 482 -22 l 482 561 q 492 697 482 632 l 288 697 q 357 413 357 564 q 333 251 357 325 q 269 135 310 178 q 178 92 228 92 q 101 113 138 92 q 44 169 65 135 q 22 242 22 204 q 60 303 22 282 q 165 321 99 325 q 196 463 196 378 q 180 583 196 522 q 132 697 164 644 l 4 697 l -28 806 l 804 806 l 835 697 l 708 697 z "},"घ":{"ha":890,"x_min":-28,"x_max":918,"o":"m 819 697 q 774 576 774 697 l 774 -75 l 593 -22 l 593 113 q 406 68 510 68 q 272 100 339 68 q 161 191 204 132 q 118 326 118 250 q 157 435 118 388 q 53 610 53 511 q 78 697 53 660 l 4 697 l -28 806 l 888 806 l 918 697 l 819 697 m 593 561 q 603 697 593 632 l 428 697 q 285 660 333 697 q 236 567 236 624 q 251 504 236 538 q 419 543 319 536 l 456 425 q 246 263 246 403 q 275 189 246 214 q 351 164 304 164 q 484 205 415 164 q 593 314 553 246 l 593 561 z "},"ङ":{"ha":865,"x_min":-28,"x_max":893,"o":"m 497 414 q 607 356 565 414 q 649 215 649 297 q 594 42 649 111 q 421 -28 540 -28 q 199 28 300 -28 q 42 175 97 83 l 108 217 q 234 134 160 161 q 393 107 308 107 q 479 123 439 107 q 543 165 519 139 q 567 217 567 190 q 515 269 567 269 q 453 256 490 269 q 317 232 385 232 q 211 265 260 232 q 134 352 163 299 q 106 463 106 406 q 150 572 106 532 q 271 610 194 611 l 432 607 q 443 697 433 650 l 4 697 l -28 806 l 863 806 l 893 697 l 639 697 q 611 582 611 676 l 611 515 l 329 501 q 254 481 276 499 q 232 426 232 463 q 247 387 232 401 q 289 372 263 372 q 328 377 307 372 q 369 389 349 382 q 497 414 439 414 m 831 535 q 868 464 868 497 q 836 400 868 432 q 772 368 801 368 q 701 406 739 368 q 664 476 664 443 q 696 540 664 506 q 760 571 726 571 q 831 535 794 571 z "},"च":{"ha":879,"x_min":-28,"x_max":907,"o":"m 799 697 q 753 576 753 697 l 753 -75 l 572 -22 l 572 103 q 406 68 494 68 q 272 100 339 68 q 161 191 204 132 q 118 326 118 250 q 200 476 118 417 l 94 472 l 64 579 l 490 579 l 519 471 q 319 396 389 451 q 249 265 249 340 q 274 190 249 217 q 351 164 300 164 q 472 194 413 164 q 572 279 531 225 l 572 561 q 582 697 572 632 l 4 697 l -28 806 l 876 806 l 907 697 l 799 697 z "},"छ":{"ha":1042,"x_min":-28,"x_max":1069,"o":"m 878 579 q 1000 487 954 550 q 1046 339 1046 424 q 965 137 1046 228 q 758 -6 885 46 q 497 -58 631 -58 q 306 -19 385 -58 q 186 81 226 19 q 146 207 146 142 q 165 292 146 253 q 47 468 47 354 q 113 597 47 546 q 297 649 179 649 q 467 619 388 649 l 481 493 q 409 519 451 510 q 324 529 367 529 q 221 508 261 529 q 181 440 181 486 q 231 364 181 392 q 367 399 285 399 q 471 386 415 399 l 490 260 q 415 274 450 274 q 317 237 354 274 q 281 151 281 200 q 324 62 281 99 q 450 25 368 25 q 646 69 542 25 q 818 185 750 114 q 645 285 714 222 q 576 436 576 349 q 610 531 576 492 q 697 586 643 569 q 711 697 699 639 l 4 697 l -28 806 l 1039 806 l 1069 697 l 924 697 q 878 579 878 697 m 728 425 q 763 332 728 378 q 871 258 799 286 q 897 361 897 308 q 867 472 897 432 q 794 511 838 511 q 746 485 764 511 q 728 425 728 460 z "},"ज":{"ha":978,"x_min":-28,"x_max":1006,"o":"m 917 697 q 871 576 871 697 l 871 -75 l 690 -22 l 690 372 l 718 375 l 718 453 l 690 453 l 690 561 q 700 697 690 632 l 4 697 l -28 806 l 975 806 l 1006 697 l 917 697 m 690 372 l 539 357 q 611 210 611 299 q 586 110 611 157 q 512 35 561 64 q 393 6 463 6 q 186 78 289 6 q 10 289 83 151 l 83 335 q 213 203 147 246 q 357 160 278 160 q 437 185 410 160 q 464 251 464 211 q 417 329 464 306 q 264 372 369 353 l 232 453 l 690 453 l 690 372 z "},"झ":{"ha":1086,"x_min":-28,"x_max":1114,"o":"m 979 697 q 933 576 933 697 l 933 -75 l 753 -22 l 753 332 l 619 325 q 664 164 664 254 q 606 -6 664 65 q 417 -76 547 -76 q 196 -6 293 -76 l 190 -8 q 350 -207 242 -115 l 221 -282 q 82 81 82 -71 q 107 153 82 128 q 172 179 132 179 q 238 153 211 179 q 264 85 264 128 l 263 74 q 378 58 317 58 q 512 87 463 58 q 561 189 561 115 q 546 250 561 232 q 497 268 531 268 q 455 263 472 268 q 411 249 438 258 q 359 231 382 238 q 303 225 336 225 q 208 252 253 225 q 135 327 163 279 q 107 435 107 375 q 164 563 107 521 q 313 603 221 606 l 432 599 q 444 697 433 653 l 4 697 l -28 806 l 1083 806 l 1114 697 l 979 697 m 753 561 q 763 697 753 632 l 657 697 q 611 576 611 697 l 611 489 l 315 492 q 239 464 268 493 q 210 399 210 435 q 225 357 210 374 q 269 340 240 340 q 305 347 288 340 q 351 369 322 354 q 418 400 389 389 q 483 411 447 411 l 753 411 l 753 561 z "},"ञ":{"ha":1007,"x_min":-28,"x_max":1035,"o":"m 954 697 q 908 576 908 697 l 908 -75 l 728 -22 l 728 354 l 628 346 q 558 155 622 221 q 396 89 494 89 q 185 163 292 89 q 10 372 78 238 l 83 418 q 219 287 140 332 q 374 242 299 242 q 494 278 447 242 q 542 376 542 314 q 508 453 542 428 q 422 479 475 479 q 347 465 386 479 q 274 426 307 451 l 186 542 q 285 595 231 576 q 396 614 340 614 q 535 574 475 614 q 617 453 594 533 l 728 453 l 728 561 q 738 697 728 632 l 4 697 l -28 806 l 1004 806 l 1035 697 l 954 697 z "},"ट":{"ha":765,"x_min":-28,"x_max":793,"o":"m 356 96 q 597 240 478 96 l 715 128 q 589 21 669 61 q 418 -19 508 -19 q 235 25 324 -19 q 92 149 147 69 q 36 329 36 229 q 124 506 36 449 q 385 563 211 563 q 442 561 422 563 l 442 575 q 453 697 442 642 l 4 697 l -28 806 l 763 806 l 793 697 l 642 697 q 622 590 622 668 l 622 463 l 400 449 q 248 401 299 442 q 197 274 197 360 q 239 144 197 193 q 356 96 281 96 z "},"ठ":{"ha":807,"x_min":-28,"x_max":835,"o":"m 622 508 q 785 240 785 424 q 742 101 785 160 q 625 12 699 43 q 461 -19 551 -19 q 258 23 354 -19 q 102 146 161 65 q 43 333 43 226 q 134 520 43 454 q 397 586 225 586 q 442 585 426 586 q 453 697 442 644 l 4 697 l -28 806 l 804 806 l 835 697 l 642 697 q 622 590 622 668 l 622 508 m 385 72 q 519 103 463 72 q 605 185 575 135 q 635 293 635 236 q 601 403 635 353 q 501 482 567 454 l 414 475 q 255 407 311 467 q 199 264 199 347 q 248 128 199 185 q 385 72 297 72 z "},"ड":{"ha":744,"x_min":-28,"x_max":772,"o":"m 490 419 q 588 361 550 413 q 639 238 626 310 q 644 178 644 210 q 581 18 644 79 q 396 -43 518 -43 q 178 25 271 -43 q 22 203 85 93 l 85 242 q 218 136 150 165 q 360 107 286 107 q 494 140 447 107 q 540 217 540 174 q 494 283 540 283 q 445 276 474 283 q 407 268 417 269 q 297 249 335 249 q 205 276 251 249 q 125 350 158 304 q 86 444 92 396 q 85 471 85 454 q 135 579 85 543 q 278 613 186 615 l 411 610 q 421 697 414 661 l 4 697 l -28 806 l 742 806 l 772 697 l 610 697 q 590 590 590 668 l 590 511 l 308 501 q 235 482 258 499 q 211 431 211 465 q 225 390 211 406 q 263 375 239 375 q 303 381 281 375 q 347 394 326 388 q 407 414 381 407 q 464 421 433 421 q 490 419 481 421 z "},"ढ":{"ha":779,"x_min":-28,"x_max":807,"o":"m 482 389 q 606 358 547 389 q 699 276 664 328 q 733 163 733 224 q 662 28 733 81 q 464 -24 590 -24 q 244 22 347 -24 q 78 149 142 67 q 15 340 15 232 q 98 515 15 454 q 318 576 181 576 l 442 576 q 453 697 442 642 l 4 697 l -28 806 l 776 806 l 807 697 l 642 697 q 622 590 622 668 l 622 478 l 358 468 q 179 292 179 461 q 238 139 179 199 q 399 76 297 79 q 322 153 347 111 q 296 239 296 196 q 347 346 296 303 q 482 389 397 389 m 496 86 q 580 130 551 100 q 608 204 608 160 q 583 275 608 250 q 522 300 557 300 q 456 276 479 300 q 433 214 433 251 q 450 147 433 182 q 496 86 467 113 z "},"ण":{"ha":990,"x_min":-42,"x_max":1018,"o":"m 924 697 q 878 576 878 697 l 878 -75 l 697 -22 l 697 561 q 707 697 697 632 l 592 697 l 592 397 q 538 219 592 283 q 389 154 483 154 q 233 199 303 154 q 119 346 163 244 q 76 608 76 447 l 76 697 l -10 697 l -42 806 l 988 806 l 1018 697 l 924 697 m 254 697 l 254 383 q 269 302 254 326 q 318 278 285 278 q 414 424 414 278 l 414 697 l 254 697 z "},"त":{"ha":782,"x_min":-28,"x_max":810,"o":"m 704 697 q 658 576 658 697 l 658 -75 l 478 -22 l 478 468 l 400 468 q 274 426 318 468 q 231 317 231 385 q 266 182 231 254 q 368 43 301 110 l 303 -18 q 57 372 57 183 q 125 528 57 475 q 301 576 193 582 l 478 567 q 488 697 478 635 l 4 697 l -28 806 l 779 806 l 810 697 l 704 697 z "},"थ":{"ha":918,"x_min":76,"x_max":946,"o":"m 875 697 q 829 576 829 697 l 829 -75 l 649 -22 l 649 147 q 486 115 568 115 q 288 172 379 115 q 140 346 197 229 l 135 413 q 247 457 196 431 q 119 555 163 497 q 76 679 76 613 q 124 785 76 743 q 256 828 171 828 q 381 796 326 828 q 465 710 435 764 q 494 592 494 657 q 424 424 494 489 q 256 344 353 360 q 449 268 340 268 q 553 288 501 268 q 649 340 606 307 l 649 561 q 658 697 649 632 l 532 697 l 500 806 l 915 806 l 946 697 l 875 697 m 210 657 q 232 578 210 621 q 300 494 254 536 q 356 626 356 546 q 333 712 356 682 q 279 742 311 742 q 230 717 250 742 q 210 657 210 693 z "},"द":{"ha":807,"x_min":-28,"x_max":835,"o":"m 714 157 q 691 94 714 117 q 635 57 668 72 l 788 -124 l 676 -212 q 586 -56 656 -172 q 536 28 557 -10 q 411 7 474 7 q 233 47 325 7 q 81 160 142 88 q 21 328 21 233 q 62 449 21 393 q 182 540 103 506 q 369 574 261 574 q 469 568 424 574 l 469 575 q 481 697 469 642 l 4 697 l -28 806 l 804 806 l 835 697 l 669 697 q 650 590 650 668 l 650 453 l 428 449 q 273 397 326 447 q 219 267 219 347 q 267 161 219 201 q 406 121 315 121 q 499 144 451 121 q 535 232 501 201 q 617 263 568 263 q 688 232 661 263 q 714 157 714 201 z "},"ध":{"ha":990,"x_min":76,"x_max":1018,"o":"m 919 697 q 874 576 874 697 l 874 -75 l 693 -22 l 693 121 q 575 60 639 81 q 444 39 511 39 q 293 71 363 39 q 182 164 224 103 q 140 311 140 225 q 188 436 140 381 q 105 538 133 481 q 76 656 76 594 q 135 787 76 736 q 286 838 193 838 q 392 814 346 838 q 464 753 439 790 q 489 678 489 717 q 439 590 489 621 l 347 653 q 372 713 372 686 q 357 747 372 733 q 318 760 342 760 q 241 727 268 760 q 214 644 214 694 q 229 568 214 607 q 272 500 244 529 q 401 525 332 525 q 438 524 425 525 l 463 410 q 363 387 406 411 q 299 323 321 363 q 278 242 278 283 q 311 151 278 188 q 408 115 344 115 q 589 194 510 115 q 693 419 668 272 l 693 561 q 703 697 693 632 l 563 697 l 531 806 l 988 806 l 1018 697 l 919 697 z "},"न":{"ha":794,"x_min":-28,"x_max":822,"o":"m 688 697 q 642 576 642 697 l 642 -75 l 461 -22 l 461 360 l 336 353 l 336 268 q 260 183 336 183 q 164 215 210 183 q 90 293 118 247 q 61 379 61 339 q 144 453 61 453 l 461 453 l 461 561 q 471 697 461 632 l 4 697 l -28 806 l 792 806 l 822 697 l 688 697 z "},"ऩ":{"ha":794,"x_min":-28,"x_max":822,"o":"m 0 0 m 688 697 q 642 576 642 697 l 642 -75 l 461 -22 l 461 360 l 336 353 l 336 268 q 260 183 336 183 q 164 215 210 183 q 90 293 118 247 q 61 379 61 339 q 144 453 61 453 l 461 453 l 461 561 q 471 697 461 632 l 4 697 l -28 806 l 792 806 l 822 697 l 688 697 m 242 47 q 274 -28 274 14 q 247 -93 274 -67 q 182 -121 219 -121 q 107 -87 140 -121 q 74 -12 74 -54 q 101 53 74 25 q 167 79 128 79 q 242 47 207 79 z "},"प":{"ha":794,"x_min":-28,"x_max":822,"o":"m 715 697 q 669 576 669 697 l 669 -75 l 489 -22 l 489 179 q 392 161 440 161 q 244 209 311 161 q 138 348 178 257 q 97 561 97 439 q 107 697 97 632 l 4 697 l -28 806 l 792 806 l 822 697 l 715 697 m 489 561 q 499 697 489 632 l 324 697 q 278 576 278 697 l 278 410 q 305 306 278 340 q 378 271 332 271 q 489 313 429 271 l 489 561 z "},"फ":{"ha":1124,"x_min":-28,"x_max":1151,"o":"m 906 604 q 1049 538 994 604 q 1104 349 1104 472 q 1059 181 1104 260 q 924 54 1014 101 l 836 189 q 962 283 917 221 q 1007 403 1007 346 q 988 459 1007 440 q 935 478 968 478 q 809 438 881 478 q 679 333 738 397 l 679 -75 l 499 -22 l 499 190 q 374 161 436 161 q 226 209 293 161 q 119 348 160 257 q 79 561 79 439 q 89 697 79 632 l 4 697 l -28 806 l 1121 806 l 1151 697 l 725 697 q 679 576 679 697 l 679 500 q 796 578 738 551 q 906 604 854 604 m 360 271 q 428 288 392 271 q 499 333 464 304 l 499 561 q 508 697 499 632 l 306 697 q 260 576 260 697 l 260 410 q 287 306 260 340 q 360 271 314 271 z "},"ब":{"ha":863,"x_min":-28,"x_max":890,"o":"m 768 697 q 722 576 722 697 l 722 -75 l 542 -22 l 542 103 q 344 49 443 49 q 201 88 267 49 q 95 196 135 128 q 56 346 56 264 q 88 479 56 421 q 179 571 121 538 q 310 604 238 604 q 430 584 369 604 q 542 529 490 564 l 542 561 q 551 697 542 632 l 4 697 l -28 806 l 860 806 l 890 697 l 768 697 m 483 238 q 542 267 514 250 l 542 401 q 438 439 492 425 q 339 453 385 453 l 329 453 l 483 238 m 319 201 q 417 214 367 201 l 257 438 q 200 392 221 422 q 179 318 179 361 q 218 230 179 258 q 319 201 257 201 z "},"भ":{"ha":972,"x_min":101,"x_max":1000,"o":"m 931 697 q 885 576 885 697 l 885 -75 l 704 -22 l 704 365 l 503 353 l 501 331 l 501 268 q 425 183 501 183 q 329 215 375 183 q 255 293 283 247 q 226 379 226 339 q 310 453 226 453 l 335 453 l 336 501 q 222 540 276 511 q 135 613 168 569 q 101 706 101 656 q 139 795 101 764 q 238 826 176 826 q 422 737 351 826 q 501 453 492 647 l 704 453 l 704 561 q 714 697 704 632 l 575 697 l 543 806 l 969 806 l 1000 697 l 931 697 m 226 690 q 255 622 226 650 q 336 582 283 594 q 315 709 332 674 q 269 744 299 744 q 238 731 249 744 q 226 690 226 717 z "},"म":{"ha":790,"x_min":-28,"x_max":818,"o":"m 735 697 q 689 576 689 697 l 689 -75 l 508 -22 l 508 344 l 285 329 l 285 268 q 208 183 285 183 q 113 215 158 183 q 38 293 67 247 q 10 379 10 339 q 93 453 10 453 l 108 453 l 108 572 q 122 697 108 638 l 4 697 l -28 806 l 788 806 l 818 697 l 735 697 m 508 561 q 518 697 508 632 l 289 697 l 289 453 l 508 453 l 508 561 z "},"य":{"ha":790,"x_min":-28,"x_max":818,"o":"m 735 697 q 689 576 689 697 l 689 -75 l 508 -22 l 508 136 q 381 115 449 115 q 177 173 272 115 q 28 344 82 231 l 22 413 q 172 487 122 439 q 221 597 221 535 q 193 697 221 644 l 4 697 l -28 806 l 788 806 l 818 697 l 735 697 m 508 561 q 518 697 508 632 l 296 697 q 344 544 344 614 q 288 413 344 465 q 146 342 232 360 q 229 287 182 306 q 328 268 276 268 q 508 322 425 268 l 508 561 z "},"र":{"ha":601,"x_min":-28,"x_max":629,"o":"m 217 253 q 321 138 251 181 q 474 94 390 94 q 561 107 518 94 l 519 -60 q 268 12 376 -62 q 102 190 160 86 q 44 369 44 294 q 69 448 44 421 q 140 475 94 475 q 199 461 169 475 q 251 424 228 447 q 285 544 285 479 q 246 697 285 614 l 4 697 l -28 806 l 599 806 l 629 697 l 385 697 q 418 529 418 608 q 392 393 418 454 q 319 295 365 332 q 217 253 272 258 z "},"ऱ":{"ha":601,"x_min":-28,"x_max":629,"o":"m 0 0 m 217 253 q 321 138 251 181 q 474 94 390 94 q 561 107 518 94 l 519 -60 q 268 12 376 -62 q 102 190 160 86 q 44 369 44 294 q 69 448 44 421 q 140 475 94 475 q 199 461 169 475 q 251 424 228 447 q 285 544 285 479 q 246 697 285 614 l 4 697 l -28 806 l 599 806 l 629 697 l 385 697 q 418 529 418 608 q 392 393 418 454 q 319 295 365 332 q 217 253 272 258 m 149 40 q 181 -35 181 7 q 154 -100 181 -74 q 89 -128 126 -128 q 14 -94 47 -128 q -19 -19 -19 -61 q 8 46 -19 18 q 74 72 35 72 q 149 40 114 72 z "},"ल":{"ha":989,"x_min":-28,"x_max":1017,"o":"m 910 697 q 864 576 864 697 l 864 -75 l 683 -22 l 683 458 q 626 472 651 472 q 526 422 568 472 q 468 275 485 372 l 325 294 q 364 449 331 381 q 286 465 325 465 q 210 431 239 465 q 181 325 181 396 q 240 161 181 233 q 429 31 300 89 l 386 -37 q 21 388 21 103 q 42 488 21 439 q 110 569 64 536 q 229 601 157 601 q 417 525 333 601 q 572 594 483 594 q 683 564 628 594 q 693 697 683 632 l 4 697 l -28 806 l 986 806 l 1017 697 l 910 697 z "},"ळ":{"ha":1042,"x_min":-28,"x_max":1069,"o":"m 865 550 q 970 446 932 515 q 1008 282 1008 376 q 974 149 1008 204 q 887 65 940 93 q 776 38 833 38 q 643 70 711 38 q 521 158 575 103 q 417 63 465 90 q 310 35 368 35 q 171 78 235 35 q 69 191 107 121 q 31 338 31 261 q 92 508 31 453 q 250 563 154 563 q 510 431 385 563 q 685 571 586 543 q 699 697 686 646 l 4 697 l -28 806 l 1039 806 l 1069 697 l 911 697 q 865 576 865 697 l 865 550 m 724 167 q 831 213 790 167 q 872 350 872 260 q 848 422 872 394 q 790 449 824 449 q 734 433 760 449 q 678 381 708 418 q 603 274 649 344 l 569 224 q 724 167 647 167 m 250 160 q 325 176 293 160 q 390 235 357 193 q 468 360 424 278 q 288 422 368 422 q 188 383 224 422 q 153 272 153 344 q 181 191 153 222 q 250 160 208 160 z "},"ऴ":{"ha":1139,"x_min":-28,"x_max":1069,"o":"m 0 0 m 865 550 q 970 446 932 515 q 1008 282 1008 376 q 974 149 1008 204 q 887 65 940 93 q 776 38 833 38 q 643 70 711 38 q 521 158 575 103 q 417 63 465 90 q 310 35 368 35 q 171 78 235 35 q 69 191 107 121 q 31 338 31 261 q 92 508 31 453 q 250 563 154 563 q 510 431 385 563 q 685 571 586 543 q 699 697 686 646 l 4 697 l -28 806 l 1039 806 l 1069 697 l 911 697 q 865 576 865 697 l 865 550 m 724 167 q 831 213 790 167 q 872 350 872 260 q 848 422 872 394 q 790 449 824 449 q 734 433 760 449 q 678 381 708 418 q 603 274 649 344 l 569 224 q 724 167 647 167 m 250 160 q 325 176 293 160 q 390 235 357 193 q 468 360 424 278 q 288 422 368 422 q 188 383 224 422 q 153 272 153 344 q 181 191 153 222 q 250 160 208 160 m 632 -68 q 664 -143 664 -101 q 638 -208 664 -182 q 572 -236 610 -236 q 497 -203 531 -236 q 464 -128 464 -169 q 492 -62 464 -90 q 557 -36 518 -36 q 632 -68 597 -36 z "},"व":{"ha":863,"x_min":-28,"x_max":890,"o":"m 768 697 q 722 576 722 697 l 722 -75 l 542 -22 l 542 103 q 344 49 443 49 q 201 88 267 49 q 95 196 135 128 q 56 346 56 264 q 88 479 56 421 q 179 571 121 538 q 310 604 238 604 q 430 584 369 604 q 542 529 490 564 l 542 561 q 551 697 542 632 l 4 697 l -28 806 l 860 806 l 890 697 l 768 697 m 319 201 q 431 219 372 201 q 542 267 489 236 l 542 401 q 438 439 492 425 q 339 453 385 453 q 225 418 271 453 q 179 318 179 383 q 218 230 179 258 q 319 201 257 201 z "},"श":{"ha":988,"x_min":50,"x_max":1015,"o":"m 563 571 q 523 408 563 486 q 422 272 483 329 q 294 192 360 215 q 557 3 422 76 l 440 -111 q 328 14 394 -56 q 272 74 318 24 q 181 182 226 124 q 87 228 124 193 q 50 313 50 264 q 77 387 50 361 q 151 413 104 413 q 227 382 203 413 q 251 308 251 351 q 249 281 251 300 q 303 304 275 281 q 354 368 331 328 q 144 647 144 486 q 192 762 144 718 q 326 806 239 806 q 440 781 386 806 q 528 704 494 757 q 563 571 563 651 m 907 697 q 861 576 861 697 l 861 -75 l 681 -22 l 681 561 q 690 697 681 632 l 600 697 l 568 806 l 985 806 l 1015 697 l 907 697 m 289 631 q 315 524 289 574 q 389 440 340 475 q 413 579 413 514 q 393 681 413 643 q 342 718 374 718 q 303 692 317 718 q 289 631 289 667 z "},"ष":{"ha":794,"x_min":-28,"x_max":822,"o":"m 715 697 q 669 576 669 697 l 669 -75 l 489 -22 l 489 179 q 392 161 440 161 q 244 209 311 161 q 138 348 178 257 q 97 561 97 439 q 107 697 97 632 l 4 697 l -28 806 l 792 806 l 822 697 l 715 697 m 489 561 q 499 697 489 632 l 324 697 q 308 693 314 697 l 489 453 l 489 561 m 378 271 q 489 313 429 271 l 489 354 l 281 625 q 278 576 278 597 l 278 410 q 305 306 278 340 q 378 271 332 271 z "},"स":{"ha":929,"x_min":-28,"x_max":957,"o":"m 874 697 q 828 576 828 697 l 828 -75 l 647 -22 l 647 225 q 531 211 582 211 q 290 290 386 211 q 193 253 247 260 q 319 152 246 192 q 496 79 392 113 l 426 -87 q 219 50 314 -28 q 69 210 125 128 q 13 363 13 292 q 40 445 13 415 q 117 475 68 475 q 175 461 146 475 q 228 424 204 447 q 261 544 261 479 q 222 697 261 614 l 4 697 l -28 806 l 926 806 l 957 697 l 874 697 m 647 561 q 657 697 647 632 l 375 697 q 406 540 406 615 q 356 361 406 440 q 490 333 413 333 q 647 360 568 333 l 647 561 z "},"ह":{"ha":765,"x_min":-28,"x_max":793,"o":"m 406 383 q 549 351 486 383 q 644 267 611 318 q 678 164 678 217 q 551 -1 678 51 l 460 93 q 535 140 510 113 q 560 196 560 167 q 526 254 560 231 q 436 278 493 278 q 308 241 360 278 q 257 129 257 204 q 340 -30 257 32 q 583 -114 422 -92 l 554 -214 q 299 -147 408 -197 q 130 -23 189 -97 q 71 142 71 51 q 165 319 71 256 q 99 401 121 365 q 78 471 78 438 q 116 554 78 524 q 229 585 154 585 l 429 585 q 443 697 431 639 l 4 697 l -28 806 l 763 806 l 793 697 l 656 697 q 610 576 610 697 l 610 456 l 276 456 q 219 421 219 456 q 246 358 219 397 q 406 383 321 383 z "},"क़":{"ha":1126,"x_min":-28,"x_max":1154,"o":"m 0 0 m 890 604 q 1034 538 979 604 q 1089 349 1089 472 q 1044 181 1089 260 q 908 54 999 101 l 821 189 q 947 283 901 221 q 992 403 992 346 q 972 459 992 440 q 919 478 953 478 q 794 438 865 478 q 664 333 722 397 l 664 -75 l 483 -22 l 483 156 q 324 99 400 99 q 192 137 251 99 q 100 241 133 175 q 67 389 67 307 q 131 564 67 497 q 306 631 196 631 q 399 615 357 631 q 483 571 440 599 q 493 697 483 636 l 4 697 l -28 806 l 1124 806 l 1154 697 l 710 697 q 664 576 664 697 l 664 500 q 781 578 722 551 q 890 604 839 604 m 313 226 q 483 297 401 226 l 483 469 q 347 499 413 499 q 223 457 267 499 q 179 349 179 415 q 214 262 179 297 q 313 226 249 226 m 201 40 q 233 -35 233 7 q 207 -100 233 -74 q 142 -128 179 -128 q 67 -94 100 -128 q 33 -19 33 -61 q 61 46 33 18 q 126 72 88 72 q 201 40 167 72 z "},"ख़":{"ha":1113,"x_min":-28,"x_max":1140,"o":"m 0 0 m 1018 697 q 972 576 972 697 l 972 -75 l 792 -22 l 792 79 q 492 21 640 21 q 252 73 357 21 q 90 203 147 125 q 33 356 33 281 q 65 442 33 415 q 140 469 97 469 q 180 463 163 469 q 219 443 197 457 q 244 543 244 483 q 211 697 244 608 l 4 697 l -28 806 l 1110 806 l 1140 697 l 1018 697 m 792 582 q 801 697 793 632 l 321 697 q 346 538 346 608 q 304 372 346 442 q 176 271 263 301 q 307 159 229 194 q 479 124 385 124 q 792 206 628 124 l 792 246 q 650 221 717 221 q 516 249 575 221 q 423 328 457 278 q 389 446 389 379 q 447 593 389 535 q 604 651 506 651 q 703 633 654 651 q 792 582 751 614 m 792 472 q 639 526 711 526 q 566 497 597 526 q 535 413 535 467 q 561 349 535 372 q 633 325 588 325 q 792 369 706 325 l 792 472 m 186 42 q 218 -33 218 8 q 192 -99 218 -72 q 126 -126 164 -126 q 51 -93 85 -126 q 18 -18 18 -60 q 46 47 18 19 q 111 74 72 74 q 186 42 151 74 z "},"ग़":{"ha":807,"x_min":-28,"x_max":835,"o":"m 708 697 q 663 576 663 697 l 663 -75 l 482 -22 l 482 561 q 492 697 482 632 l 288 697 q 358 411 358 561 q 317 206 358 294 q 213 97 276 118 q 265 68 243 90 q 297 -7 297 35 q 271 -72 297 -46 q 206 -100 243 -100 q 131 -67 164 -100 q 97 8 97 -33 q 125 74 97 46 q 156 93 138 86 q 61 147 100 103 q 22 242 22 190 q 60 303 22 282 q 165 321 99 325 q 196 463 196 378 q 180 583 196 522 q 132 697 164 644 l 4 697 l -28 806 l 804 806 l 835 697 l 708 697 z "},"ज़":{"ha":978,"x_min":-28,"x_max":1006,"o":"m 0 0 m 917 697 q 871 576 871 697 l 871 -75 l 690 -22 l 690 372 l 718 375 l 718 453 l 690 453 l 690 561 q 700 697 690 632 l 4 697 l -28 806 l 975 806 l 1006 697 l 917 697 m 690 372 l 539 357 q 611 210 611 299 q 586 110 611 157 q 512 35 561 64 q 393 6 463 6 q 186 78 289 6 q 10 289 83 151 l 83 335 q 213 203 147 246 q 357 160 278 160 q 437 185 410 160 q 464 251 464 211 q 417 329 464 306 q 264 372 369 353 l 232 453 l 690 453 l 690 372 m 613 -7 q 644 -82 644 -40 q 618 -147 644 -121 q 553 -175 590 -175 q 478 -142 511 -175 q 444 -67 444 -108 q 472 -1 444 -29 q 538 25 499 25 q 613 -7 578 25 z "},"ड़":{"ha":765,"x_min":-28,"x_max":772,"o":"m 0 0 m 490 419 q 588 361 550 413 q 639 238 626 310 q 644 178 644 210 q 581 18 644 79 q 396 -43 518 -43 q 178 25 271 -43 q 22 203 85 93 l 85 242 q 218 136 150 165 q 360 107 286 107 q 494 140 447 107 q 540 217 540 174 q 494 283 540 283 q 445 276 474 283 q 407 268 417 269 q 297 249 335 249 q 205 276 251 249 q 125 350 158 304 q 86 444 92 396 q 85 471 85 454 q 135 579 85 543 q 278 613 186 615 l 411 610 q 421 697 414 661 l 4 697 l -28 806 l 742 806 l 772 697 l 610 697 q 590 590 590 668 l 590 511 l 308 501 q 235 482 258 499 q 211 431 211 465 q 225 390 211 406 q 263 375 239 375 q 303 381 281 375 q 347 394 326 388 q 407 414 381 407 q 464 421 433 421 q 490 419 481 421 m 511 -175 q 543 -250 543 -208 q 517 -315 543 -289 q 451 -343 489 -343 q 376 -310 410 -343 q 343 -235 343 -276 q 371 -169 343 -197 q 436 -143 397 -143 q 511 -175 476 -143 z "},"ढ़":{"ha":779,"x_min":-28,"x_max":807,"o":"m 0 0 m 482 389 q 606 358 547 389 q 699 276 664 328 q 733 163 733 224 q 662 28 733 81 q 464 -24 590 -24 q 244 22 347 -24 q 78 149 142 67 q 15 340 15 232 q 98 515 15 454 q 318 576 181 576 l 442 576 q 453 697 442 642 l 4 697 l -28 806 l 776 806 l 807 697 l 642 697 q 622 590 622 668 l 622 478 l 358 468 q 179 292 179 461 q 238 139 179 199 q 399 76 297 79 q 322 153 347 111 q 296 239 296 196 q 347 346 296 303 q 482 389 397 389 m 496 86 q 580 130 551 100 q 608 204 608 160 q 583 275 608 250 q 522 300 557 300 q 456 276 479 300 q 433 214 433 251 q 450 147 433 182 q 496 86 467 113 m 536 -108 q 568 -183 568 -142 q 542 -249 568 -222 q 476 -276 514 -276 q 401 -243 435 -276 q 368 -168 368 -210 q 396 -103 368 -131 q 461 -76 422 -76 q 536 -108 501 -76 z "},"फ़":{"ha":1124,"x_min":-28,"x_max":1151,"o":"m 0 0 m 906 604 q 1049 538 994 604 q 1104 349 1104 472 q 1059 181 1104 260 q 924 54 1014 101 l 836 189 q 962 283 917 221 q 1007 403 1007 346 q 988 459 1007 440 q 935 478 968 478 q 809 438 881 478 q 679 333 738 397 l 679 -75 l 499 -22 l 499 190 q 374 161 436 161 q 226 209 293 161 q 119 348 160 257 q 79 561 79 439 q 89 697 79 632 l 4 697 l -28 806 l 1121 806 l 1151 697 l 725 697 q 679 576 679 697 l 679 500 q 796 578 738 551 q 906 604 854 604 m 360 271 q 428 288 392 271 q 499 333 464 304 l 499 561 q 508 697 499 632 l 306 697 q 260 576 260 697 l 260 410 q 287 306 260 340 q 360 271 314 271 m 165 193 q 197 118 197 160 q 171 53 197 79 q 106 25 143 25 q 31 58 64 25 q -3 133 -3 92 q 25 199 -3 171 q 90 225 51 225 q 165 193 131 225 z "},"य़":{"ha":790,"x_min":-42,"x_max":818,"o":"m 0 0 m 735 697 q 689 576 689 697 l 689 -75 l 508 -22 l 508 136 q 381 115 449 115 q 177 173 272 115 q 28 344 82 231 l 22 413 q 172 487 122 439 q 221 597 221 535 q 193 697 221 644 l 4 697 l -28 806 l 788 806 l 818 697 l 735 697 m 508 561 q 518 697 508 632 l 296 697 q 344 544 344 614 q 288 413 344 465 q 146 342 232 360 q 229 287 182 306 q 328 268 276 268 q 508 322 425 268 l 508 561 m 126 68 q 158 -7 158 35 q 132 -72 158 -46 q 67 -100 104 -100 q -8 -67 25 -100 q -42 8 -42 -33 q -14 74 -42 46 q 51 100 13 100 q 126 68 92 100 z "},"ॹ":{"ha":978,"x_min":-28,"x_max":1006,"o":"m 0 0 m 917 697 q 871 576 871 697 l 871 -75 l 690 -22 l 690 372 l 718 375 l 718 453 l 690 453 l 690 561 q 700 697 690 632 l 4 697 l -28 806 l 975 806 l 1006 697 l 917 697 m 690 372 l 539 357 q 611 210 611 299 q 586 110 611 157 q 512 35 561 64 q 393 6 463 6 q 186 78 289 6 q 10 289 83 151 l 83 335 q 213 203 147 246 q 357 160 278 160 q 437 185 410 160 q 464 251 464 211 q 417 329 464 306 q 264 372 369 353 l 232 453 l 690 453 l 690 372 m 641 -33 q 670 -100 670 -63 q 646 -158 670 -134 q 588 -183 622 -183 q 522 -153 551 -183 q 492 -86 492 -123 q 517 -28 492 -53 q 575 -5 540 -5 q 641 -33 611 -5 m 318 -33 q 346 -100 346 -63 q 323 -158 346 -134 q 265 -183 298 -183 q 198 -153 228 -183 q 169 -86 169 -123 q 193 -28 169 -53 q 251 -5 217 -5 q 318 -33 287 -5 m 479 -183 q 507 -250 507 -213 q 484 -308 507 -284 q 426 -333 459 -333 q 359 -303 389 -333 q 330 -236 330 -273 q 354 -178 330 -203 q 412 -155 378 -155 q 479 -183 448 -155 z "},"ॺ":{"ha":790,"x_min":-28,"x_max":818,"o":"m 735 697 q 689 576 689 697 l 689 -75 l 508 -22 l 508 136 q 381 115 449 115 q 177 173 272 115 q 28 344 82 231 l 22 413 q 172 487 122 439 q 221 597 221 535 q 193 697 221 644 l 4 697 l -28 806 l 788 806 l 818 697 l 735 697 m 508 561 q 518 697 508 632 l 375 697 l 508 493 l 508 561 m 146 342 q 229 287 182 306 q 328 268 276 268 q 508 322 425 268 l 508 351 l 335 611 q 344 546 344 578 q 288 413 344 467 q 146 342 232 360 z "},"ॻ":{"ha":807,"x_min":-28,"x_max":835,"o":"m 708 697 q 663 576 663 697 l 663 -103 l 57 -103 l 18 0 l 482 -10 l 482 561 q 492 697 482 632 l 288 697 q 357 413 357 564 q 333 251 357 325 q 269 135 310 178 q 178 92 228 92 q 101 113 138 92 q 44 169 65 135 q 22 242 22 204 q 60 303 22 282 q 165 321 99 325 q 196 463 196 378 q 180 583 196 522 q 132 697 164 644 l 4 697 l -28 806 l 804 806 l 835 697 l 708 697 z "},"ॼ":{"ha":978,"x_min":-28,"x_max":1006,"o":"m 917 697 q 871 576 871 697 l 871 -103 l 57 -103 l 18 0 l 690 -11 l 690 372 l 718 375 l 718 453 l 690 453 l 690 561 q 700 697 690 632 l 4 697 l -28 806 l 975 806 l 1006 697 l 917 697 m 690 372 l 539 357 q 611 210 611 299 q 586 110 611 157 q 512 35 561 64 q 393 6 463 6 q 186 78 289 6 q 10 289 83 151 l 83 335 q 213 203 147 246 q 357 160 278 160 q 437 185 410 160 q 464 251 464 211 q 417 329 464 306 q 264 372 369 353 l 232 453 l 690 453 l 690 372 z "},"ॾ":{"ha":765,"x_min":-28,"x_max":793,"o":"m 435 635 q 444 697 436 664 l 4 697 l -28 806 l 763 806 l 793 697 l 611 697 l 611 543 l 329 529 q 254 508 276 526 q 232 454 232 490 q 247 415 232 429 q 289 400 263 400 q 337 406 313 400 q 367 414 361 413 q 433 428 406 424 q 497 433 460 433 q 606 378 564 433 q 649 243 649 324 q 596 91 649 144 q 421 38 543 38 q 199 93 300 38 q 42 240 97 149 l 108 282 q 234 199 160 226 q 393 172 308 172 q 517 194 468 172 q 567 254 567 215 q 553 285 567 274 q 515 297 539 297 q 453 283 490 297 q 317 260 385 260 q 211 293 260 260 q 134 380 163 326 q 106 490 106 433 q 150 599 106 560 q 271 638 194 639 l 435 635 m 711 -103 l 57 -103 l 18 0 l 711 -14 l 711 -103 z "},"ॿ":{"ha":863,"x_min":-28,"x_max":890,"o":"m 768 697 q 722 576 722 697 l 722 -103 l 85 -103 l 46 0 l 542 -10 l 542 103 q 344 49 443 49 q 201 88 267 49 q 95 196 135 128 q 56 346 56 264 q 88 479 56 421 q 179 571 121 538 q 310 604 238 604 q 430 584 369 604 q 542 529 490 564 l 542 561 q 551 697 542 632 l 4 697 l -28 806 l 860 806 l 890 697 l 768 697 m 542 401 q 438 439 492 425 q 339 453 385 453 l 319 451 l 542 279 l 542 401 m 319 201 q 469 232 394 201 l 228 419 q 179 318 179 385 q 218 230 179 258 q 319 201 257 201 z "},"ॲ":{"ha":1124,"x_min":11,"x_max":1103,"o":"m 11 0 m 997 697 q 951 576 951 697 l 951 -75 l 771 -22 l 771 335 q 681 318 732 318 q 599 328 644 318 q 635 203 635 267 q 606 98 635 147 q 524 19 578 49 q 401 -11 471 -11 q 174 62 279 -11 q 11 276 69 135 l 86 319 q 201 149 125 213 q 360 85 276 85 q 444 122 415 85 q 474 217 474 160 q 453 309 474 264 q 393 381 432 354 q 253 356 331 361 l 217 489 q 402 523 339 506 q 490 566 465 540 q 515 635 515 592 q 483 699 515 676 q 400 722 450 722 q 293 699 349 722 q 197 633 238 675 l 128 753 q 240 812 181 792 q 358 832 300 832 q 525 775 458 832 q 592 611 592 718 q 506 435 592 497 q 621 418 563 418 q 727 439 685 418 q 771 497 769 460 l 771 561 q 781 697 771 632 l 664 697 l 632 806 l 1047 806 l 1078 697 l 997 697 m 672 1122 q 847 1019 758 1019 q 927 1046 890 1019 q 1001 1126 964 1072 l 1103 1022 q 1003 926 1054 957 q 890 894 951 894 q 740 942 813 894 q 617 1075 668 989 l 672 1122 z "},"अ":{"ha":1050,"x_min":11,"x_max":1078,"o":"m 997 697 q 951 576 951 697 l 951 -75 l 771 -22 l 771 335 q 681 318 732 318 q 599 328 644 318 q 635 203 635 267 q 606 98 635 147 q 524 19 578 49 q 401 -11 471 -11 q 174 62 279 -11 q 11 276 69 135 l 86 319 q 201 149 125 213 q 360 85 276 85 q 444 122 415 85 q 474 217 474 160 q 453 309 474 264 q 393 381 432 354 q 253 356 331 361 l 217 489 q 402 523 339 506 q 490 566 465 540 q 515 635 515 592 q 483 699 515 676 q 400 722 450 722 q 293 699 349 722 q 197 633 238 675 l 128 753 q 240 812 181 792 q 358 832 300 832 q 525 775 458 832 q 592 611 592 718 q 506 435 592 497 q 621 418 563 418 q 727 439 685 418 q 771 497 769 460 l 771 561 q 781 697 771 632 l 664 697 l 632 806 l 1047 806 l 1078 697 l 997 697 z "},"आ":{"ha":1435,"x_min":32,"x_max":1463,"o":"m 1354 697 q 1308 576 1308 697 l 1308 -75 l 1128 -22 l 1128 561 q 1138 697 1128 632 l 1018 697 q 972 576 972 697 l 972 -75 l 792 -22 l 792 335 q 701 318 753 318 q 619 328 665 318 q 656 203 656 267 q 627 98 656 147 q 545 19 599 49 q 422 -11 492 -11 q 195 62 300 -11 q 32 276 90 135 l 107 319 q 222 149 146 213 q 381 85 297 85 q 465 122 436 85 q 494 217 494 160 q 474 309 494 264 q 414 381 453 354 q 274 356 351 361 l 238 489 q 423 523 360 506 q 511 566 486 540 q 536 635 536 592 q 503 699 536 676 q 421 722 471 722 q 314 699 369 722 q 218 633 258 675 l 149 753 q 261 812 201 792 q 379 832 321 832 q 546 775 479 832 q 613 611 613 718 q 526 435 613 497 q 642 418 583 418 q 748 439 706 418 q 792 497 790 460 l 792 561 q 801 697 792 632 l 685 697 l 653 806 l 1432 806 l 1463 697 l 1354 697 z "},"इ":{"ha":738,"x_min":-28,"x_max":765,"o":"m 483 433 q 574 403 533 433 q 640 320 615 374 q 664 197 664 267 q 640 68 664 131 q 558 -35 615 6 q 408 -76 501 -76 q 196 -6 290 -76 l 190 -8 q 350 -207 242 -115 l 221 -282 q 82 81 82 -71 q 107 153 82 128 q 172 179 132 179 q 238 153 211 179 q 264 85 264 128 l 263 71 q 363 58 313 58 q 505 99 449 58 q 561 218 561 140 q 515 283 561 283 q 428 267 492 283 q 369 252 400 258 q 317 246 339 246 q 211 280 260 246 q 135 369 163 314 q 107 483 107 424 q 153 599 107 560 q 271 638 199 638 l 435 638 q 444 697 440 675 l 4 697 l -28 806 l 735 806 l 765 697 l 657 697 q 611 576 611 697 l 611 536 l 329 529 q 254 507 276 528 q 232 443 232 486 q 244 401 232 418 q 275 383 257 383 q 305 389 288 383 q 340 401 322 394 q 413 425 382 417 q 483 433 444 433 z "},"ई":{"ha":738,"x_min":-28,"x_max":765,"o":"m 483 433 q 574 403 533 433 q 640 320 615 374 q 664 197 664 267 q 640 68 664 131 q 558 -35 615 6 q 408 -76 501 -76 q 196 -6 290 -76 l 190 -8 q 350 -207 242 -115 l 221 -282 q 82 81 82 -71 q 107 153 82 128 q 172 179 132 179 q 238 153 211 179 q 264 85 264 128 l 263 71 q 363 58 313 58 q 505 99 449 58 q 561 218 561 140 q 515 283 561 283 q 428 267 492 283 q 369 252 400 258 q 317 246 339 246 q 211 280 260 246 q 135 369 163 314 q 107 483 107 424 q 153 599 107 560 q 271 638 199 638 l 435 638 q 444 697 440 675 l 4 697 l -28 806 l 435 806 q 351 1003 351 892 q 410 1139 351 1089 q 558 1189 469 1189 q 728 1142 643 1189 l 740 1010 q 656 1051 688 1040 q 588 1063 624 1063 q 519 1033 543 1063 q 494 960 494 1004 q 513 881 494 922 q 568 806 532 840 l 735 806 l 765 697 l 657 697 q 611 576 611 697 l 611 536 l 329 529 q 254 507 276 528 q 232 443 232 486 q 244 401 232 418 q 275 383 257 383 q 305 389 288 383 q 340 401 322 394 q 413 425 382 417 q 483 433 444 433 z "},"उ":{"ha":668,"x_min":-28,"x_max":696,"o":"m 511 463 q 625 343 586 411 q 664 207 664 275 q 635 98 664 147 q 549 19 606 49 q 414 -11 493 -11 q 197 69 300 -11 q 21 304 94 149 l 104 344 q 224 188 161 236 q 365 139 288 139 q 465 173 428 139 q 503 258 503 207 q 484 331 503 294 q 426 401 465 368 q 247 356 349 361 l 211 488 q 400 538 342 497 q 458 633 458 578 q 440 697 458 661 l 4 697 l -28 806 l 665 806 l 696 697 l 539 697 q 564 586 564 643 q 511 463 564 522 z "},"ऊ":{"ha":906,"x_min":-28,"x_max":933,"o":"m 747 483 q 881 438 828 483 q 933 304 933 393 q 905 184 933 243 q 818 81 876 125 l 719 186 q 806 279 776 232 q 836 361 836 326 q 825 393 836 382 q 793 404 814 404 q 721 381 763 404 q 640 314 679 357 q 664 207 664 258 q 635 98 664 147 q 549 19 606 49 q 414 -11 493 -11 q 197 69 300 -11 q 21 304 94 149 l 104 344 q 224 188 161 236 q 365 139 288 139 q 465 173 428 139 q 503 258 503 207 q 484 331 503 294 q 426 401 465 368 q 247 356 349 361 l 211 488 q 400 538 342 497 q 458 633 458 578 q 440 697 458 661 l 4 697 l -28 806 l 894 806 l 925 697 l 539 697 q 564 586 564 643 q 511 463 564 522 q 563 422 540 442 q 650 467 601 451 q 747 483 699 483 z "},"ऋ":{"ha":1117,"x_min":-28,"x_max":1144,"o":"m 1011 501 q 957 381 1011 432 q 1044 150 1044 246 q 994 32 1044 78 q 847 -31 943 -14 l 793 108 q 924 217 924 133 q 883 331 924 263 q 667 279 792 286 l 667 -75 l 486 -22 l 486 200 l 194 -36 l 92 74 l 486 349 l 486 371 q 232 461 349 461 q 90 422 154 461 l 13 558 q 197 619 104 619 q 334 591 265 619 q 486 501 403 563 l 486 561 q 496 697 486 632 l 4 697 l -28 806 l 1114 806 l 1144 697 l 713 697 q 667 576 667 697 l 667 371 q 826 418 754 379 q 788 524 788 469 q 817 591 788 565 q 890 617 846 617 q 978 581 944 617 q 1011 501 1011 544 z "},"ॠ":{"ha":1171,"x_min":-28,"x_max":1213,"o":"m 1213 69 q 1111 -8 1168 18 q 996 -33 1054 -33 q 898 -13 943 -33 q 826 43 853 7 q 794 143 794 86 q 825 246 794 201 q 769 290 792 264 q 746 356 746 321 q 667 346 714 349 l 667 -75 l 486 -22 l 486 179 l 176 -54 l 92 74 l 486 353 q 348 435 408 408 q 232 461 288 461 q 90 422 154 461 l 13 558 q 197 619 104 619 q 332 587 267 619 q 486 485 397 554 l 486 561 q 496 697 486 632 l 4 697 l -28 806 l 1156 806 l 1186 697 l 713 697 q 667 576 667 697 l 667 457 q 751 467 717 457 q 828 503 785 476 q 824 532 824 518 q 849 594 824 569 q 917 618 875 618 q 984 590 957 618 q 1011 517 1011 561 q 983 450 1011 478 q 910 422 954 422 q 883 425 903 422 q 867 376 867 401 q 874 350 867 361 q 917 332 888 332 q 1040 383 965 332 l 1099 278 q 949 213 1004 258 q 909 169 922 192 q 896 125 896 146 q 906 94 896 110 q 963 68 924 68 q 1056 100 1006 68 q 1149 189 1107 132 l 1213 69 z "},"ऌ":{"ha":990,"x_min":-28,"x_max":1018,"o":"m 1018 -3 q 803 -117 908 -117 q 688 -76 740 -117 q 624 49 624 -26 q 674 196 624 114 q 713 285 699 239 q 728 368 728 331 q 704 444 728 415 q 633 472 681 472 q 526 424 572 472 q 468 275 481 375 l 324 294 q 365 449 329 378 q 293 465 328 465 q 212 430 242 465 q 182 321 182 394 q 242 160 182 232 q 431 31 301 89 l 388 -37 q 122 134 221 26 q 22 379 22 242 q 72 538 22 475 q 231 601 122 601 q 418 526 333 601 q 557 593 479 588 q 565 697 557 636 l 4 697 l -28 806 l 986 806 l 1017 697 l 750 697 q 738 603 738 668 l 738 553 q 826 456 796 517 q 857 324 857 394 q 796 128 857 215 q 739 -3 739 44 q 749 -31 739 -21 q 769 -39 757 -39 q 833 -6 796 -39 q 914 99 871 28 l 1018 -3 z "},"ॡ":{"ha":1003,"x_min":-28,"x_max":1128,"o":"m 1128 -228 q 1022 -311 1079 -285 q 906 -337 964 -337 q 826 -325 864 -337 q 761 -292 788 -312 q 713 -233 731 -268 q 694 -161 694 -197 q 713 -92 694 -124 q 688 -76 700 -86 q 624 49 624 -26 q 674 196 624 114 q 713 281 699 238 q 728 360 728 324 q 703 444 728 413 q 628 475 679 475 q 528 424 574 475 q 468 275 483 372 l 322 296 q 361 450 332 386 q 288 465 322 465 q 211 431 240 465 q 182 325 182 396 q 242 161 182 233 q 431 31 301 89 l 388 -37 q 22 388 22 103 q 44 488 22 439 q 112 569 65 536 q 231 601 158 601 q 331 583 286 601 q 415 529 375 564 q 556 592 471 583 q 564 697 556 636 l 4 697 l -28 806 l 1000 806 l 1031 697 l 749 697 q 736 603 736 668 l 736 554 q 831 451 797 517 q 864 308 864 385 q 806 118 864 203 q 756 40 772 68 q 740 -8 740 11 q 749 -31 740 -22 q 769 -39 757 -39 q 833 -6 796 -39 q 914 99 871 28 l 1018 -3 q 924 -82 975 -56 q 822 -111 874 -108 q 793 -185 793 -147 q 815 -235 793 -217 q 867 -251 836 -251 q 948 -223 906 -251 q 1026 -135 990 -194 l 1128 -228 z "},"ऍ":{"ha":854,"x_min":-28,"x_max":896,"o":"m 0 0 m 803 697 q 757 576 757 697 l 757 386 q 715 260 757 313 q 597 182 674 208 l 524 279 q 565 327 553 294 q 576 414 576 360 l 576 561 q 586 697 576 632 l 342 697 q 296 576 296 697 l 296 383 q 310 308 296 335 q 357 258 324 281 l 639 72 q 700 -28 700 33 q 592 -229 700 -110 l 443 -118 q 506 1 506 -40 q 479 46 506 28 l 240 206 q 142 299 168 254 q 115 414 115 344 l 115 561 q 125 697 115 632 l 4 697 l -28 806 l 851 806 l 882 697 l 803 697 m 465 1157 q 640 1054 551 1054 q 720 1081 683 1054 q 794 1161 757 1107 l 896 1057 q 796 960 847 992 q 683 929 744 929 q 533 976 606 929 q 410 1110 461 1024 l 465 1157 z "},"ऎ":{"ha":854,"x_min":-28,"x_max":882,"o":"m 0 0 m 803 697 q 757 576 757 697 l 757 386 q 715 260 757 313 q 597 182 674 208 l 524 279 q 565 327 553 294 q 576 414 576 360 l 576 561 q 586 697 576 632 l 342 697 q 296 576 296 697 l 296 383 q 310 308 296 335 q 357 258 324 281 l 639 72 q 700 -28 700 33 q 592 -229 700 -110 l 443 -118 q 506 1 506 -40 q 479 46 506 28 l 240 206 q 142 299 168 254 q 115 414 115 344 l 115 561 q 125 697 115 632 l 4 697 l -28 806 l 851 806 l 882 697 l 803 697 m 626 806 q 570 929 614 894 q 446 958 526 964 l 417 957 q 255 1011 313 957 q 174 1185 197 1065 l 229 1210 q 301 1112 263 1140 q 406 1083 339 1083 q 451 1086 418 1083 q 506 1089 488 1089 l 507 1089 q 665 1029 607 1089 q 717 806 722 969 l 626 806 z "},"ए":{"ha":854,"x_min":-28,"x_max":882,"o":"m 803 697 q 757 576 757 697 l 757 386 q 715 260 757 313 q 597 182 674 208 l 524 279 q 565 327 553 294 q 576 414 576 360 l 576 561 q 586 697 576 632 l 342 697 q 296 576 296 697 l 296 383 q 310 308 296 335 q 357 258 324 281 l 639 72 q 700 -28 700 33 q 592 -229 700 -110 l 443 -118 q 506 1 506 -40 q 479 46 506 28 l 240 206 q 142 299 168 254 q 115 414 115 344 l 115 561 q 125 697 115 632 l 4 697 l -28 806 l 851 806 l 882 697 l 803 697 z "},"ऐ":{"ha":854,"x_min":-28,"x_max":882,"o":"m 0 0 m 803 697 q 757 576 757 697 l 757 386 q 715 260 757 313 q 597 182 674 208 l 524 279 q 565 327 553 294 q 576 414 576 360 l 576 561 q 586 697 576 632 l 342 697 q 296 576 296 697 l 296 383 q 310 308 296 335 q 357 258 324 281 l 639 72 q 700 -28 700 33 q 592 -229 700 -110 l 443 -118 q 506 1 506 -40 q 479 46 506 28 l 240 206 q 142 299 168 254 q 115 414 115 344 l 115 561 q 125 697 115 632 l 4 697 l -28 806 l 851 806 l 882 697 l 803 697 m 624 806 q 467 1005 540 943 q 290 1067 393 1067 q 164 1047 238 1067 l 106 1190 q 256 1215 185 1215 q 516 1113 400 1215 q 733 806 632 1011 l 624 806 z "},"ऑ":{"ha":1435,"x_min":32,"x_max":1463,"o":"m 32 0 m 1354 697 q 1308 576 1308 697 l 1308 -75 l 1128 -22 l 1128 561 q 1138 697 1128 632 l 1018 697 q 972 576 972 697 l 972 -75 l 792 -22 l 792 335 q 701 318 753 318 q 619 328 665 318 q 656 203 656 267 q 627 98 656 147 q 545 19 599 49 q 422 -11 492 -11 q 195 62 300 -11 q 32 276 90 135 l 107 319 q 222 149 146 213 q 381 85 297 85 q 465 122 436 85 q 494 217 494 160 q 474 309 494 264 q 414 381 453 354 q 274 356 351 361 l 238 489 q 423 523 360 506 q 511 566 486 540 q 536 635 536 592 q 503 699 536 676 q 421 722 471 722 q 314 699 369 722 q 218 633 258 675 l 149 753 q 261 812 201 792 q 379 832 321 832 q 546 775 479 832 q 613 611 613 718 q 526 435 613 497 q 642 418 583 418 q 748 439 706 418 q 792 497 790 460 l 792 561 q 801 697 792 632 l 685 697 l 653 806 l 1432 806 l 1463 697 l 1354 697 m 1025 1157 q 1200 1054 1111 1054 q 1280 1081 1243 1054 q 1354 1161 1317 1107 l 1456 1057 q 1356 960 1407 992 q 1243 929 1304 929 q 1093 976 1165 929 q 969 1110 1021 1024 l 1025 1157 z "},"ऒ":{"ha":1435,"x_min":32,"x_max":1463,"o":"m 1354 697 q 1308 576 1308 697 l 1308 -75 l 1128 -22 l 1128 561 q 1138 697 1128 632 l 1018 697 q 972 576 972 697 l 972 -75 l 792 -22 l 792 335 q 701 318 753 318 q 619 328 665 318 q 656 203 656 267 q 627 98 656 147 q 545 19 599 49 q 422 -11 492 -11 q 195 62 300 -11 q 32 276 90 135 l 107 319 q 222 149 146 213 q 381 85 297 85 q 465 122 436 85 q 494 217 494 160 q 474 309 494 264 q 414 381 453 354 q 274 356 351 361 l 238 489 q 423 523 360 506 q 511 566 486 540 q 536 635 536 592 q 503 699 536 676 q 421 722 471 722 q 314 699 369 722 q 218 633 258 675 l 149 753 q 261 812 201 792 q 379 832 321 832 q 546 775 479 832 q 613 611 613 718 q 526 435 613 497 q 642 418 583 418 q 748 439 706 418 q 792 497 790 460 l 792 561 q 801 697 792 632 l 685 697 l 653 806 l 1186 806 q 1130 929 1174 894 q 1006 958 1086 964 l 976 957 q 815 1011 872 957 q 733 1185 757 1065 l 789 1210 q 860 1112 822 1140 q 965 1083 899 1083 q 1011 1086 978 1083 q 1065 1089 1047 1089 l 1067 1089 q 1224 1029 1167 1089 q 1276 806 1282 969 l 1432 806 l 1463 697 l 1354 697 z "},"ओ":{"ha":1435,"x_min":32,"x_max":1463,"o":"m 1354 697 q 1308 576 1308 697 l 1308 -75 l 1128 -22 l 1128 561 q 1138 697 1128 632 l 1018 697 q 972 576 972 697 l 972 -75 l 792 -22 l 792 335 q 701 318 753 318 q 619 328 665 318 q 656 203 656 267 q 627 98 656 147 q 545 19 599 49 q 422 -11 492 -11 q 195 62 300 -11 q 32 276 90 135 l 107 319 q 222 149 146 213 q 381 85 297 85 q 465 122 436 85 q 494 217 494 160 q 474 309 494 264 q 414 381 453 354 q 274 356 351 361 l 238 489 q 423 523 360 506 q 511 566 486 540 q 536 635 536 592 q 503 699 536 676 q 421 722 471 722 q 314 699 369 722 q 218 633 258 675 l 149 753 q 261 812 201 792 q 379 832 321 832 q 546 775 479 832 q 613 611 613 718 q 526 435 613 497 q 642 418 583 418 q 748 439 706 418 q 792 497 790 460 l 792 561 q 801 697 792 632 l 685 697 l 653 806 l 1161 806 q 1016 977 1086 922 q 850 1032 946 1032 q 724 1013 797 1032 l 665 1156 q 815 1181 744 1181 q 1066 1087 954 1181 q 1275 806 1178 993 l 1432 806 l 1463 697 l 1354 697 z "},"औ":{"ha":1435,"x_min":32,"x_max":1463,"o":"m 1354 697 q 1308 576 1308 697 l 1308 -75 l 1128 -22 l 1128 561 q 1138 697 1128 632 l 1018 697 q 972 576 972 697 l 972 -75 l 792 -22 l 792 335 q 701 318 753 318 q 619 328 665 318 q 656 203 656 267 q 627 98 656 147 q 545 19 599 49 q 422 -11 492 -11 q 195 62 300 -11 q 32 276 90 135 l 107 319 q 222 149 146 213 q 381 85 297 85 q 465 122 436 85 q 494 217 494 160 q 474 309 494 264 q 414 381 453 354 q 274 356 351 361 l 238 489 q 423 523 360 506 q 511 566 486 540 q 536 635 536 592 q 503 699 536 676 q 421 722 471 722 q 314 699 369 722 q 218 633 258 675 l 149 753 q 261 812 201 792 q 379 832 321 832 q 546 775 479 832 q 613 611 613 718 q 526 435 613 497 q 642 418 583 418 q 748 439 706 418 q 792 497 790 460 l 792 561 q 801 697 792 632 l 685 697 l 653 806 l 1171 806 q 1097 896 1147 865 q 975 926 1046 926 q 818 893 901 926 l 775 986 q 968 1046 871 1046 q 1094 1016 1038 1046 q 1182 935 1150 986 q 1101 1083 1163 1028 q 954 1139 1040 1139 q 828 1110 896 1139 l 786 1201 q 951 1254 863 1250 l 963 1254 q 1124 1209 1049 1254 q 1244 1077 1199 1164 q 1290 871 1290 990 q 1286 806 1290 839 l 1432 806 l 1463 697 l 1354 697 z "},"ॳ":{"ha":1050,"x_min":11,"x_max":1078,"o":"m 997 697 q 951 576 951 697 l 951 -75 l 771 -22 l 771 335 q 681 318 732 318 q 599 328 644 318 q 635 203 635 267 q 606 98 635 147 q 524 19 578 49 q 401 -11 471 -11 q 174 62 279 -11 q 11 276 69 135 l 86 319 q 201 149 125 213 q 360 85 276 85 q 444 122 415 85 q 474 217 474 160 q 453 309 474 264 q 393 381 432 354 q 253 356 331 361 l 217 489 q 402 523 339 506 q 490 566 465 540 q 515 635 515 592 q 483 699 515 676 q 400 722 450 722 q 293 699 349 722 q 197 633 238 675 l 128 753 q 240 812 181 792 q 358 832 300 832 q 525 775 458 832 q 592 611 592 718 q 506 435 592 497 q 621 418 563 418 q 727 439 685 418 q 771 497 769 460 l 771 561 q 781 697 771 632 l 664 697 l 632 806 l 785 806 l 785 1040 l 965 993 l 965 922 q 953 806 965 858 l 1047 806 l 1078 697 l 997 697 z "},"ॴ":{"ha":1435,"x_min":32,"x_max":1463,"o":"m 1354 697 q 1308 576 1308 697 l 1308 -75 l 1128 -22 l 1128 561 q 1138 697 1128 632 l 1018 697 q 972 576 972 697 l 972 -75 l 792 -22 l 792 335 q 701 318 753 318 q 619 328 665 318 q 656 203 656 267 q 627 98 656 147 q 545 19 599 49 q 422 -11 492 -11 q 195 62 300 -11 q 32 276 90 135 l 107 319 q 222 149 146 213 q 381 85 297 85 q 465 122 436 85 q 494 217 494 160 q 474 309 494 264 q 414 381 453 354 q 274 356 351 361 l 238 489 q 423 523 360 506 q 511 566 486 540 q 536 635 536 592 q 503 699 536 676 q 421 722 471 722 q 314 699 369 722 q 218 633 258 675 l 149 753 q 261 812 201 792 q 379 832 321 832 q 546 775 479 832 q 613 611 613 718 q 526 435 613 497 q 642 418 583 418 q 748 439 706 418 q 792 497 790 460 l 792 561 q 801 697 792 632 l 685 697 l 653 806 l 1142 806 l 1142 1040 l 1322 993 l 1322 922 q 1310 806 1322 858 l 1432 806 l 1463 697 l 1354 697 z "},"ॵ":{"ha":1435,"x_min":32,"x_max":1463,"o":"m 1354 697 q 1308 576 1308 697 l 1308 -75 l 1128 -22 l 1128 561 q 1138 697 1128 632 l 1018 697 q 972 576 972 697 l 972 -75 l 792 -22 l 792 335 q 701 318 753 318 q 619 328 665 318 q 656 203 656 267 q 627 98 656 147 q 545 19 599 49 q 422 -11 492 -11 q 195 62 300 -11 q 32 276 90 135 l 107 319 q 222 149 146 213 q 381 85 297 85 q 465 122 436 85 q 494 217 494 160 q 474 309 494 264 q 414 381 453 354 q 274 356 351 361 l 238 489 q 423 523 360 506 q 511 566 486 540 q 536 635 536 592 q 503 699 536 676 q 421 722 471 722 q 314 699 369 722 q 218 633 258 675 l 149 753 q 261 812 201 792 q 379 832 321 832 q 546 775 479 832 q 613 611 613 718 q 526 435 613 497 q 642 418 583 418 q 748 439 706 418 q 792 497 790 460 l 792 561 q 801 697 792 632 l 685 697 l 653 806 l 1161 806 q 1120 863 1146 846 q 1057 881 1094 881 q 999 874 1033 881 q 922 865 960 865 q 797 904 851 865 q 699 1033 743 943 l 744 1064 q 808 992 776 1013 q 876 971 840 971 q 957 985 899 971 q 1031 994 990 994 q 1153 952 1103 994 q 1214 817 1204 910 q 1217 858 1217 847 l 1217 864 q 1183 992 1217 944 q 1089 1040 1150 1040 q 1050 1036 1071 1040 q 972 1026 1006 1026 q 767 1181 829 1026 l 814 1206 q 862 1147 833 1164 q 929 1129 890 1129 q 984 1135 953 1129 q 1047 1150 1015 1142 q 1099 1158 1072 1156 l 1110 1158 q 1246 1097 1193 1158 q 1299 928 1299 1036 q 1283 806 1299 867 l 1432 806 l 1463 697 l 1354 697 z "},"ॶ":{"ha":1050,"x_min":11,"x_max":1078,"o":"m 11 0 m 997 697 q 951 576 951 697 l 951 -75 l 771 -22 l 771 335 q 681 318 732 318 q 599 328 644 318 q 635 203 635 267 q 606 98 635 147 q 524 19 578 49 q 401 -11 471 -11 q 174 62 279 -11 q 11 276 69 135 l 86 319 q 201 149 125 213 q 360 85 276 85 q 444 122 415 85 q 474 217 474 160 q 453 309 474 264 q 393 381 432 354 q 253 356 331 361 l 217 489 q 402 523 339 506 q 490 566 465 540 q 515 635 515 592 q 483 699 515 676 q 400 722 450 722 q 293 699 349 722 q 197 633 238 675 l 128 753 q 240 812 181 792 q 358 832 300 832 q 525 775 458 832 q 592 611 592 718 q 506 435 592 497 q 621 418 563 418 q 727 439 685 418 q 771 497 769 460 l 771 561 q 781 697 771 632 l 664 697 l 632 806 l 1047 806 l 1078 697 l 997 697 m 342 -60 q 431 -141 386 -119 q 528 -162 476 -162 q 738 -42 640 -162 l 839 -140 q 721 -253 788 -217 q 579 -289 654 -289 q 415 -246 490 -289 q 281 -101 340 -203 l 342 -60 z "},"ॷ":{"ha":1050,"x_min":11,"x_max":1078,"o":"m 997 697 q 951 576 951 697 l 951 -75 l 771 -22 l 771 335 q 681 318 732 318 q 599 328 644 318 q 635 203 635 267 q 606 98 635 147 q 524 19 578 49 q 401 -11 471 -11 q 174 62 279 -11 q 11 276 69 135 l 86 319 q 201 149 125 213 q 360 85 276 85 q 444 122 415 85 q 474 217 474 160 q 453 309 474 264 q 393 381 432 354 q 253 356 331 361 l 217 489 q 402 523 339 506 q 490 566 465 540 q 515 635 515 592 q 483 699 515 676 q 400 722 450 722 q 293 699 349 722 q 197 633 238 675 l 128 753 q 240 812 181 792 q 358 832 300 832 q 525 775 458 832 q 592 611 592 718 q 506 435 592 497 q 621 418 563 418 q 727 439 685 418 q 771 497 769 460 l 771 561 q 781 697 771 632 l 664 697 l 632 806 l 1047 806 l 1078 697 l 997 697 m 586 -301 q 422 -258 497 -301 q 288 -114 347 -215 l 349 -72 q 438 -153 393 -132 q 535 -175 483 -175 q 744 -54 647 -175 l 846 -153 q 728 -265 794 -229 q 586 -301 661 -301 m 576 -400 q 786 -279 689 -400 l 888 -378 q 769 -490 836 -454 q 628 -526 703 -526 q 464 -483 539 -526 q 329 -339 389 -440 l 390 -297 q 480 -378 435 -357 q 576 -400 525 -400 z "},"ा":{"ha":432,"x_min":-28,"x_max":460,"o":"m 351 697 q 306 576 306 697 l 306 -75 l 125 -22 l 125 561 q 135 697 125 632 l 4 697 l -28 806 l 429 806 l 460 697 l 351 697 z "},"ि":{"ha":443,"x_min":-28,"x_max":847,"o":"m 310 1196 q 511 1156 406 1196 q 707 1042 617 1117 q 847 869 797 968 l 763 842 q 649 954 718 904 q 506 1033 579 1004 q 376 1061 432 1061 q 267 1029 304 1061 q 231 938 231 997 q 261 806 231 881 l 429 806 l 460 697 l 351 697 q 306 576 306 697 l 306 -75 l 125 -22 l 125 561 q 135 697 125 632 l 4 697 l -28 806 l 144 806 q 86 1001 86 911 q 142 1142 86 1089 q 310 1196 199 1196 z "},"ी":{"ha":418,"x_min":-336,"x_max":446,"o":"m 338 697 q 292 576 292 697 l 292 -75 l 111 -22 l 111 561 q 121 697 111 632 l -10 697 l -42 806 l 135 806 q 26 981 96 921 q -114 1040 -43 1040 q -181 1022 -154 1040 q -208 968 -208 1003 q -172 878 -208 931 l -228 828 q -336 1022 -336 921 q -278 1146 -336 1096 q -128 1196 -219 1196 q 40 1147 -39 1196 q 176 1010 118 1099 q 260 806 233 921 l 415 806 l 446 697 l 338 697 z "},"ॉ":{"ha":432,"x_min":-44,"x_max":460,"o":"m 0 0 m 351 697 q 306 576 306 697 l 306 -75 l 125 -22 l 125 561 q 135 697 125 632 l 4 697 l -28 806 l 429 806 l 460 697 l 351 697 m 11 1157 q 186 1054 97 1054 q 266 1081 229 1054 q 340 1161 303 1107 l 442 1057 q 342 960 393 992 q 229 929 290 929 q 79 976 151 929 q -44 1110 7 1024 l 11 1157 z "},"ॊ":{"ha":432,"x_min":-281,"x_max":460,"o":"m 0 0 m 351 697 q 306 576 306 697 l 306 -75 l 125 -22 l 125 561 q 135 697 125 632 l 4 697 l -28 806 l 429 806 l 460 697 l 351 697 m 172 806 q 116 929 160 894 q -8 958 72 964 l -37 957 q -199 1011 -142 957 q -281 1185 -257 1065 l -225 1210 q -153 1112 -192 1140 q -49 1083 -115 1083 q -3 1086 -36 1083 q 51 1089 33 1089 l 53 1089 q 210 1029 153 1089 q 263 806 268 969 l 172 806 z "},"ो":{"ha":432,"x_min":-339,"x_max":460,"o":"m 351 697 q 306 576 306 697 l 306 -75 l 125 -22 l 125 561 q 135 697 125 632 l 4 697 l -28 806 l 157 806 q 12 977 82 922 q -154 1032 -58 1032 q -281 1013 -207 1032 l -339 1156 q -189 1181 -260 1181 q 62 1087 -50 1181 q 271 806 174 993 l 429 806 l 460 697 l 351 697 z "},"ौ":{"ha":432,"x_min":-236,"x_max":460,"o":"m 351 697 q 306 576 306 697 l 306 -75 l 125 -22 l 125 561 q 135 697 125 632 l 4 697 l -28 806 l 160 806 q 85 896 136 865 q -36 926 35 926 q -193 893 -110 926 l -236 986 q -43 1046 -140 1046 q 83 1016 26 1046 q 171 935 139 986 q 90 1083 151 1028 q -57 1139 29 1139 q -183 1110 -115 1139 l -225 1201 q -60 1254 -149 1250 l -49 1254 q 113 1209 38 1254 q 233 1077 188 1164 q 279 871 279 990 q 275 806 279 839 l 429 806 l 460 697 l 351 697 z "},"ॎ":{"ha":453,"x_min":146,"x_max":481,"o":"m 326 -75 l 146 -28 l 146 681 q 160 806 146 746 l 450 806 l 481 697 l 326 697 l 326 -75 z "},"ऻ":{"ha":432,"x_min":-28,"x_max":460,"o":"m 351 697 q 306 576 306 697 l 306 -75 l 125 -22 l 125 561 q 135 697 125 632 l 4 697 l -28 806 l 126 806 l 126 1040 l 307 993 l 307 922 q 294 806 307 858 l 429 806 l 460 697 l 351 697 z "},"ॏ":{"ha":432,"x_min":-297,"x_max":460,"o":"m 351 697 q 306 576 306 697 l 306 -75 l 125 -22 l 125 561 q 135 697 125 632 l 4 697 l -28 806 l 157 806 q 61 853 125 853 q 3 846 38 853 q -74 838 -37 838 q -199 876 -144 838 q -297 1006 -253 915 l -251 1036 q -187 964 -219 985 q -119 943 -156 943 q -39 957 -97 943 q 35 968 -1 968 q 140 938 94 968 q 207 844 186 908 q 176 977 210 928 q 79 1026 143 1026 q 40 1022 61 1026 q -37 1013 -3 1013 q -243 1167 -181 1013 l -196 1192 q -148 1133 -176 1150 q -81 1115 -119 1115 q -26 1122 -57 1115 q 38 1136 6 1128 q 90 1144 64 1142 l 101 1144 q 233 1088 183 1144 q 283 929 283 1031 q 267 806 283 875 l 429 806 l 460 697 l 351 697 z "},"⁄":{"ha":649,"x_min":-31,"x_max":679,"o":"m 60 -22 l -31 44 l 585 994 l 679 921 l 60 -22 z "},"½":{"ha":1104,"x_min":29,"x_max":1047,"o":"m 29 0 m 281 549 q 278 478 281 506 q 338 479 294 479 l 338 418 l 89 418 l 89 471 q 132 484 119 472 q 144 540 144 496 l 144 860 l 57 808 l 29 863 l 232 994 l 281 994 l 281 549 m 261 -22 l 171 44 l 786 994 l 881 921 l 261 -22 m 836 571 q 972 534 917 571 q 1028 422 1028 497 q 994 333 1028 372 q 888 236 961 294 q 853 208 871 222 q 817 176 835 193 q 790 149 799 161 q 769 113 781 136 l 940 110 q 970 119 960 108 q 981 161 981 131 l 1047 161 l 1039 -4 l 651 -4 q 670 101 651 56 q 717 179 689 146 q 790 253 744 213 q 876 413 876 329 q 811 490 876 490 q 783 483 797 490 q 764 468 769 476 q 778 447 774 460 q 783 425 783 435 q 765 380 783 401 q 713 358 746 358 q 665 381 682 360 q 647 433 647 401 q 669 496 647 464 q 735 549 692 528 q 836 571 778 571 z "},"¼":{"ha":1079,"x_min":29,"x_max":1022,"o":"m 29 0 m 281 549 q 278 478 281 506 q 338 479 294 479 l 338 418 l 89 418 l 89 471 q 132 484 119 472 q 144 540 144 496 l 144 860 l 57 808 l 29 863 l 232 994 l 281 994 l 281 549 m 261 -22 l 171 44 l 786 994 l 881 921 l 261 -22 m 1022 210 l 1022 133 l 940 133 l 940 125 q 938 54 940 82 q 997 56 954 56 l 997 -6 l 749 -6 l 749 47 q 793 60 781 49 q 806 117 806 72 l 806 135 l 596 136 l 596 217 l 892 571 l 940 571 l 940 211 l 1022 210 m 689 215 l 808 213 l 815 379 l 814 379 l 689 215 z "},"¾":{"ha":1133,"x_min":50,"x_max":1076,"o":"m 50 0 m 247 994 q 383 957 331 994 q 435 849 435 919 q 404 774 435 810 q 329 726 374 738 l 329 725 q 428 674 394 713 q 461 579 461 636 q 401 454 461 503 q 233 406 342 406 q 137 424 179 406 q 72 474 94 443 q 50 540 50 506 q 70 596 50 572 q 122 619 90 619 q 171 599 156 619 q 186 550 186 579 q 181 524 186 539 q 167 501 176 510 q 228 481 183 481 q 291 506 267 481 q 315 574 315 532 q 287 647 315 619 q 204 674 258 674 l 157 672 l 157 747 l 206 746 q 274 773 253 746 q 296 836 296 800 q 278 898 296 876 q 225 919 260 919 q 195 915 208 919 q 175 903 182 910 q 190 883 185 896 q 194 860 194 869 q 178 816 194 838 q 129 794 163 794 q 78 814 97 794 q 58 865 58 833 q 79 924 58 894 q 143 974 100 954 q 247 994 186 994 m 315 -22 l 225 44 l 840 994 l 935 921 l 315 -22 m 1076 210 l 1076 133 l 994 133 l 994 125 q 992 54 994 82 q 1051 56 1008 56 l 1051 -6 l 803 -6 l 803 47 q 847 60 835 49 q 860 117 860 72 l 860 135 l 650 136 l 650 217 l 946 571 l 994 571 l 994 211 l 1076 210 m 743 215 l 863 213 l 869 379 l 868 379 l 743 215 z "},"¹":{"ha":386,"x_min":29,"x_max":338,"o":"m 281 549 q 278 478 281 506 q 338 479 294 479 l 338 418 l 89 418 l 89 471 q 132 484 119 472 q 144 540 144 496 l 144 860 l 57 808 l 29 863 l 232 994 l 281 994 l 281 549 z "},"²":{"ha":521,"x_min":60,"x_max":460,"o":"m 249 994 q 385 958 329 994 q 440 846 440 921 q 407 757 440 796 q 300 660 374 718 q 265 631 283 646 q 229 600 247 617 q 202 572 211 585 q 182 536 193 560 l 353 533 q 383 543 372 532 q 393 585 393 554 l 460 585 l 451 419 l 64 419 q 83 524 64 479 q 129 603 101 569 q 203 676 157 636 q 289 836 289 753 q 224 914 289 914 q 196 907 210 914 q 176 892 182 900 q 191 871 186 883 q 196 849 196 858 q 177 803 196 825 q 125 782 158 782 q 77 804 94 783 q 60 857 60 825 q 82 919 60 888 q 147 973 104 951 q 249 994 190 994 z "},"³":{"ha":507,"x_min":50,"x_max":461,"o":"m 247 994 q 383 957 331 994 q 435 849 435 919 q 404 774 435 810 q 329 726 374 738 l 329 725 q 428 674 394 713 q 461 579 461 636 q 401 454 461 503 q 233 406 342 406 q 137 424 179 406 q 72 474 94 443 q 50 540 50 506 q 70 596 50 572 q 122 619 90 619 q 171 599 156 619 q 186 550 186 579 q 181 524 186 539 q 167 501 176 510 q 228 481 183 481 q 291 506 267 481 q 315 574 315 532 q 287 647 315 619 q 204 674 258 674 l 157 672 l 157 747 l 206 746 q 274 773 253 746 q 296 836 296 800 q 278 898 296 876 q 225 919 260 919 q 195 915 208 919 q 175 903 182 910 q 190 883 185 896 q 194 860 194 869 q 178 816 194 838 q 129 794 163 794 q 78 814 97 794 q 58 865 58 833 q 79 924 58 894 q 143 974 100 954 q 247 994 186 994 z "},"⁴":{"ha":579,"x_min":51,"x_max":478,"o":"m 478 633 l 478 557 l 396 557 l 396 549 q 393 478 396 506 q 453 479 410 479 l 453 418 l 204 418 l 204 471 q 249 484 236 472 q 261 540 261 496 l 261 558 l 51 560 l 51 640 l 347 994 l 396 994 l 396 635 l 478 633 m 144 639 l 264 636 l 271 803 l 269 803 l 144 639 z "},"०":{"ha":760,"x_min":83,"x_max":676,"o":"m 381 139 q 232 179 300 139 q 124 288 164 219 q 83 436 83 356 q 124 583 83 515 q 233 692 164 651 q 381 732 301 732 q 528 692 460 732 q 636 583 596 651 q 676 436 676 515 q 636 288 676 357 q 528 179 596 219 q 381 139 460 139 m 463 258 q 517 310 497 275 q 538 392 538 346 q 513 499 538 443 q 440 591 483 558 q 350 624 397 624 q 299 613 321 624 q 242 560 263 596 q 222 479 222 525 q 247 374 222 428 q 319 281 276 314 q 410 247 363 247 q 463 258 440 247 z "},"१":{"ha":608,"x_min":40,"x_max":515,"o":"m 418 193 q 486 89 486 151 q 393 -101 486 15 l 267 -29 q 342 117 342 76 q 321 153 342 140 l 82 299 q 125 338 83 300 q 257 468 221 428 q 96 595 151 522 q 40 738 40 668 q 97 845 40 803 q 246 888 153 888 q 380 855 318 888 q 478 763 442 822 q 515 625 515 703 q 461 466 515 544 q 279 276 407 388 l 418 193 m 194 732 q 229 637 194 685 q 322 550 264 589 q 368 693 368 622 q 338 778 368 747 q 268 810 307 810 q 215 790 236 810 q 194 732 194 769 z "},"२":{"ha":697,"x_min":39,"x_max":589,"o":"m 589 644 q 516 433 589 528 q 331 299 443 339 q 281 282 306 288 q 351 160 313 214 q 446 42 389 107 l 313 -42 q 188 274 233 110 q 81 314 122 279 q 39 404 39 349 q 67 478 39 450 q 138 506 94 506 q 242 415 217 506 q 374 481 322 432 q 449 592 426 529 q 472 715 472 654 q 453 790 472 768 q 394 811 433 811 q 283 785 347 811 q 156 715 218 760 l 68 851 q 300 926 181 926 q 444 895 378 926 q 549 801 510 864 q 589 644 589 738 z "},"३":{"ha":651,"x_min":44,"x_max":610,"o":"m 610 381 q 561 259 610 310 q 438 182 513 208 q 286 154 364 156 q 335 85 310 117 q 406 0 360 53 l 272 -83 q 167 168 207 42 q 44 292 44 200 q 73 363 44 338 q 142 389 101 389 q 204 365 178 389 q 253 279 231 340 q 385 304 331 282 q 466 359 439 326 q 493 426 493 392 q 465 481 493 463 q 386 500 436 500 q 256 475 328 500 l 203 590 l 374 636 q 449 677 419 649 q 478 742 478 706 q 394 801 478 801 q 265 778 340 801 q 135 719 190 756 l 67 850 q 190 901 124 882 q 315 921 257 921 q 437 894 382 921 q 524 820 492 868 q 556 710 556 772 q 463 550 556 606 q 572 488 535 535 q 610 381 610 442 z "},"४":{"ha":783,"x_min":36,"x_max":713,"o":"m 504 586 q 663 246 663 407 q 628 115 663 172 q 531 25 593 57 q 386 -7 468 -7 q 221 28 294 -7 q 106 126 147 64 q 64 261 64 188 q 286 614 64 425 q 199 689 247 649 q 131 753 167 714 q 88 800 94 792 q 36 856 38 854 l 146 960 l 169 935 q 394 700 267 826 l 439 738 q 617 943 560 843 l 713 808 q 544 619 654 713 l 504 586 m 357 89 q 473 135 433 89 q 513 258 513 181 q 484 376 513 317 q 397 504 456 436 q 225 208 225 360 q 265 117 225 146 q 357 89 304 89 z "},"५":{"ha":760,"x_min":35,"x_max":739,"o":"m 606 -83 q 490 233 532 65 q 333 189 418 189 q 178 239 247 189 q 72 371 110 289 q 35 547 35 453 q 73 742 35 642 q 186 942 111 843 l 326 836 q 215 635 258 753 q 172 410 172 517 q 200 321 172 357 q 271 285 228 285 q 373 311 329 285 q 443 386 417 338 q 396 481 396 421 q 422 547 396 522 q 492 572 447 572 q 574 538 538 572 q 611 447 611 504 q 575 315 611 374 q 647 139 608 217 q 739 -14 686 61 l 606 -83 z "},"६":{"ha":646,"x_min":-8,"x_max":622,"o":"m 507 157 q 553 77 529 108 q 622 13 578 46 l 524 -57 q 407 107 449 18 q 342 101 378 101 q 192 140 257 101 q 93 240 128 179 q 58 364 58 301 q 128 518 58 453 q 26 619 61 563 q -8 731 -8 676 q 53 851 -8 804 q 226 899 114 899 q 413 860 325 899 l 397 764 q 271 788 331 788 q 165 759 197 788 q 133 676 133 731 q 149 616 133 646 q 196 567 165 586 q 306 606 246 593 q 426 617 365 619 l 465 499 q 235 435 304 492 q 165 300 165 378 q 193 222 165 249 q 265 196 221 196 q 374 228 317 196 q 372 264 372 239 q 398 339 372 314 q 467 364 424 364 q 538 334 508 364 q 567 257 567 304 q 507 157 567 192 z "},"७":{"ha":838,"x_min":56,"x_max":768,"o":"m 450 810 q 630 749 558 810 q 735 597 701 688 q 768 418 768 507 q 731 213 768 307 q 622 61 694 118 q 446 4 549 4 q 247 71 335 4 q 107 265 158 138 q 56 564 56 392 q 82 819 56 686 l 249 772 q 200 444 200 588 q 256 201 200 288 q 404 114 311 114 q 549 188 501 114 q 604 410 597 263 q 564 407 576 407 q 427 440 489 407 q 329 531 365 474 q 293 656 293 588 q 335 768 293 726 q 450 810 378 810 m 449 646 q 466 571 449 608 q 518 509 483 533 q 604 486 553 485 q 584 659 603 594 q 510 724 565 724 q 464 703 479 724 q 449 646 449 682 z "},"८":{"ha":668,"x_min":35,"x_max":613,"o":"m 572 694 q 352 526 444 615 q 212 354 260 438 q 164 207 164 271 q 189 132 164 161 q 285 88 228 88 q 418 142 350 88 q 518 276 486 196 l 613 136 q 489 20 563 60 q 336 -19 415 -19 q 204 10 267 -19 q 97 93 142 39 q 35 263 35 171 q 149 541 35 390 q 490 853 263 692 l 572 694 z "},"९":{"ha":654,"x_min":26,"x_max":592,"o":"m 336 426 q 535 241 479 306 q 592 125 592 176 q 468 -76 592 43 l 340 31 q 425 189 425 117 q 392 260 425 232 l 151 468 q 58 586 89 522 q 26 713 26 650 q 88 856 26 801 q 260 910 150 910 q 431 863 358 910 q 542 747 504 817 q 581 613 581 678 q 521 476 581 529 q 374 424 461 424 q 336 426 361 424 m 335 799 q 214 754 257 799 q 171 647 171 710 q 201 550 171 596 q 289 542 249 542 q 453 681 453 542 q 335 799 453 799 z "},"*":{"ha":740,"x_min":60,"x_max":681,"o":"m 371 994 q 443 896 443 994 q 404 719 443 835 q 558 810 503 790 q 610 819 588 819 q 676 772 661 819 q 681 747 681 760 q 659 701 681 719 q 606 672 638 682 q 425 654 542 654 q 560 535 525 582 q 589 463 589 492 q 560 411 589 432 q 519 397 540 397 q 443 449 481 397 q 371 615 406 501 q 297 450 332 496 q 221 397 260 397 q 181 411 200 397 q 151 464 151 432 q 181 535 151 492 q 317 654 219 588 q 136 672 197 654 q 60 747 60 697 q 64 772 60 760 q 129 819 81 819 q 181 810 151 819 q 338 719 236 792 q 299 896 299 835 q 371 994 299 994 z "},"\\":{"ha":971,"x_min":35,"x_max":936,"o":"m 35 0 m 828 -376 l 936 -306 l 161 1049 l 35 968 l 828 -376 z "},"·":{"ha":314,"x_min":57,"x_max":258,"o":"m 158 583 q 230 551 201 583 q 258 475 258 519 q 231 398 258 429 q 160 367 204 367 q 86 398 115 367 q 57 475 57 429 q 88 551 57 519 q 158 583 118 583 z "},"•":{"ha":531,"x_min":43,"x_max":488,"o":"m 264 722 q 375 693 324 722 q 457 614 426 664 q 488 504 488 564 q 457 394 488 444 q 375 315 426 344 q 264 286 324 286 q 153 315 204 286 q 73 394 103 344 q 43 504 43 444 q 73 614 43 564 q 153 693 103 664 q 264 722 204 722 z "},":":{"ha":344,"x_min":71,"x_max":272,"o":"m 71 0 m 172 194 q 244 163 215 194 q 272 86 272 131 q 245 9 272 40 q 174 -22 218 -22 q 100 9 129 -22 q 71 86 71 40 q 101 163 71 131 q 172 194 132 194 m 172 754 q 244 722 215 754 q 272 646 272 690 q 245 569 272 600 q 174 538 218 538 q 100 569 129 538 q 71 646 71 600 q 101 722 71 690 q 172 754 132 754 z "},",":{"ha":347,"x_min":61,"x_max":289,"o":"m 164 190 q 256 149 224 190 q 289 44 289 108 q 256 -103 289 -24 q 161 -260 224 -182 l 107 -221 q 161 -120 135 -185 q 186 -1 188 -56 q 157 -6 174 -6 q 89 17 117 -6 q 61 86 61 40 q 90 160 61 131 q 164 190 118 190 z "},"…":{"ha":1074,"x_min":61,"x_max":1013,"o":"m 61 0 m 163 194 q 234 163 206 194 q 263 86 263 131 q 235 9 263 40 q 164 -22 208 -22 q 90 9 119 -22 q 61 86 61 40 q 92 163 61 131 q 163 194 122 194 m 538 194 q 609 163 581 194 q 638 86 638 131 q 610 9 638 40 q 539 -22 583 -22 q 465 9 494 -22 q 436 86 436 40 q 467 163 436 131 q 538 194 497 194 m 913 194 q 984 163 956 194 q 1013 86 1013 131 q 985 9 1013 40 q 914 -22 958 -22 q 840 9 869 -22 q 811 86 811 40 q 842 163 811 131 q 913 194 872 194 z "},"!":{"ha":358,"x_min":75,"x_max":282,"o":"m 179 994 q 257 956 232 994 q 278 868 282 918 l 226 296 l 132 296 l 79 868 q 102 956 75 917 q 179 994 129 994 m 179 194 q 251 163 222 194 q 279 86 279 131 q 249 10 279 42 q 178 -22 218 -22 q 108 10 138 -22 q 78 86 78 42 q 108 163 78 131 q 179 194 139 194 z "},"¡":{"ha":329,"x_min":64,"x_max":265,"o":"m 64 0 m 164 -300 q 86 -262 111 -300 q 65 -174 61 -224 l 117 399 l 211 399 l 264 -174 q 241 -261 268 -222 q 164 -300 214 -300 m 164 500 q 92 532 121 500 q 64 608 64 564 q 94 685 64 653 q 165 717 125 717 q 235 685 206 717 q 265 608 265 653 q 235 532 265 564 q 164 500 204 500 z "},"#":{"ha":1210,"x_min":51,"x_max":1158,"o":"m 1158 735 l 1158 733 l 1131 611 l 900 611 l 835 338 l 1067 338 l 1038 214 l 810 214 l 754 -22 l 607 -22 l 664 214 l 426 214 l 372 -22 l 225 -22 l 282 214 l 51 214 l 81 338 l 307 338 l 376 611 l 143 611 l 172 735 l 403 735 l 464 994 l 604 994 l 544 735 l 785 735 l 846 994 l 985 994 l 926 735 l 1158 735 m 451 338 l 689 338 l 758 611 l 518 611 l 451 338 z "},".":{"ha":324,"x_min":61,"x_max":263,"o":"m 163 194 q 234 163 206 194 q 263 86 263 131 q 235 9 263 40 q 164 -22 208 -22 q 90 9 119 -22 q 61 86 61 40 q 92 163 61 131 q 163 194 122 194 z "},"?":{"ha":699,"x_min":51,"x_max":636,"o":"m 340 994 q 565 931 494 994 q 636 774 636 868 q 587 636 636 696 q 450 507 538 576 q 372 438 396 464 q 347 389 347 413 q 361 358 347 369 q 403 347 375 347 q 444 353 422 347 l 465 282 q 397 258 433 265 q 329 251 360 251 q 244 275 279 251 q 208 347 208 299 q 230 415 208 382 q 321 518 251 449 q 406 624 378 574 q 433 746 433 674 q 406 857 433 817 q 314 897 379 897 q 253 884 282 897 q 208 853 224 871 q 227 821 221 840 q 233 783 233 801 q 210 722 233 753 q 146 690 188 690 q 75 717 99 690 q 51 789 51 744 q 90 886 51 839 q 194 964 128 933 q 340 994 260 994 m 344 194 q 416 163 388 194 q 444 86 444 131 q 414 10 444 42 q 343 -22 383 -22 q 273 10 303 -22 q 243 86 243 42 q 274 163 243 131 q 344 194 304 194 z "},"¿":{"ha":685,"x_min":56,"x_max":640,"o":"m 56 0 m 351 -300 q 126 -237 197 -300 q 56 -79 56 -174 q 105 58 56 -1 q 242 188 154 118 q 320 256 296 231 q 344 306 344 282 q 331 336 344 325 q 289 347 317 347 q 247 342 269 347 l 226 413 q 295 436 258 429 q 363 443 332 443 q 448 419 413 443 q 483 347 483 396 q 462 279 483 313 q 371 176 440 246 q 286 71 314 121 q 258 -51 258 21 q 285 -162 258 -122 q 378 -203 313 -203 q 439 -190 410 -203 q 483 -158 468 -176 q 465 -126 471 -146 q 458 -89 458 -107 q 481 -27 458 -58 q 546 4 504 4 q 617 -23 593 4 q 640 -94 640 -50 q 602 -192 640 -144 q 498 -269 564 -239 q 351 -300 432 -300 m 347 500 q 276 532 304 500 q 247 608 247 564 q 278 685 247 653 q 349 717 308 717 q 419 685 389 717 q 449 608 449 653 q 418 532 449 564 q 347 500 388 500 z "},"\"":{"ha":453,"x_min":60,"x_max":393,"o":"m 71 682 l 60 994 l 194 994 l 182 682 l 71 682 m 269 682 l 258 994 l 393 994 l 381 682 l 269 682 z "},"'":{"ha":261,"x_min":58,"x_max":203,"o":"m 72 682 l 58 994 l 203 994 l 190 682 l 72 682 z "},";":{"ha":371,"x_min":69,"x_max":297,"o":"m 69 0 m 172 190 q 265 149 232 190 q 297 44 297 108 q 265 -103 297 -24 q 169 -260 232 -182 l 115 -221 q 169 -120 143 -185 q 194 -1 196 -56 q 165 -6 182 -6 q 97 17 125 -6 q 69 86 69 40 q 98 160 69 131 q 172 190 126 190 m 192 754 q 263 722 235 754 q 292 646 292 690 q 265 569 292 600 q 193 538 238 538 q 119 569 149 538 q 90 646 90 600 q 121 722 90 690 q 192 754 151 754 z "},"/":{"ha":971,"x_min":35,"x_max":936,"o":"m 143 -376 l 35 -306 l 810 1049 l 936 968 l 143 -376 z "},"_":{"ha":1156,"x_min":150,"x_max":1004,"o":"m 1004 -215 l 150 -215 l 150 -69 l 1004 -75 l 1004 -215 z "},"{":{"ha":511,"x_min":-4,"x_max":501,"o":"m 468 958 q 390 945 418 958 q 349 895 363 932 q 335 789 335 858 q 343 676 335 760 q 349 629 346 663 q 350 601 350 619 q 285 440 350 503 q 117 367 221 376 l 117 364 q 292 281 226 353 q 350 101 358 210 l 344 33 q 335 -99 335 -54 q 351 -215 335 -176 q 403 -267 368 -254 q 501 -278 439 -281 l 501 -376 l 463 -376 q 147 -79 147 -376 q 150 -2 147 -49 q 154 63 153 44 q 161 189 161 142 q 133 289 161 261 q 28 317 104 317 l -4 317 l -4 415 l 28 415 q 133 440 106 415 q 161 536 161 465 q 154 646 161 583 q 150 699 153 660 q 147 769 147 738 q 225 985 147 915 q 463 1056 303 1056 l 501 1056 l 501 957 l 468 958 z "},"}":{"ha":511,"x_min":10,"x_max":515,"o":"m 10 0 m 43 958 q 121 945 93 958 q 163 895 149 932 q 176 789 176 858 q 168 676 176 760 q 163 629 165 663 q 161 601 161 619 q 226 440 161 503 q 394 367 290 376 l 394 364 q 219 281 285 353 q 161 101 153 210 l 167 33 q 176 -99 176 -54 q 160 -215 176 -176 q 108 -267 143 -254 q 10 -278 72 -281 l 10 -376 l 49 -376 q 364 -79 364 -376 q 361 -2 364 -49 q 357 63 358 44 q 350 189 350 142 q 378 289 350 261 q 483 317 407 317 l 515 317 l 515 415 l 483 415 q 378 440 406 415 q 350 536 350 465 q 357 646 350 583 q 361 699 358 660 q 364 769 364 738 q 286 985 364 915 q 49 1056 208 1056 l 10 1056 l 10 957 l 43 958 z "},"[":{"ha":536,"x_min":86,"x_max":535,"o":"m 267 946 l 261 -251 l 535 -256 l 535 -354 l 86 -354 l 88 1049 l 532 1049 l 532 950 l 267 946 z "},"]":{"ha":536,"x_min":1,"x_max":450,"o":"m 1 0 m 269 -251 l 275 946 l 1 950 l 1 1049 l 450 1049 l 449 -354 l 4 -354 l 4 -256 l 269 -251 z "}}}
